<svg xmlns="http://www.w3.org/2000/svg" xmlns:xlink="http://www.w3.org/1999/xlink" width="60" height="60" viewBox="0 0 60 60">
  <defs>
    <clipPath id="clip-path">
      <rect id="사각형_341303" data-name="사각형 341303" width="60" height="60" transform="translate(24 -20323)" opacity="0.5"/>
    </clipPath>
  </defs>
  <g id="icon_2" transform="translate(-24 20323)" clip-path="url(#clip-path)">
    <g id="icon" transform="translate(16.542 -20332.859)">
      <g id="그룹_457179" data-name="그룹 457179" transform="translate(19.859 23.86)">
        <path id="패스_841380" data-name="패스 841380" d="M-63.41,47.083H-90.431V64.9H-74.99l5.147,5.089V64.9h6.434Z" transform="translate(101.697 -47.083)" fill="none" stroke="#000" stroke-linecap="round" stroke-linejoin="round" stroke-width="3"/>
        <path id="패스_841381" data-name="패스 841381" d="M-76.144,62.783v6.87H-88.739L-92.925,73.8V69.653h-5.242V55.144h9.786" transform="translate(98.167 -43.467)" fill="none" stroke="#000" stroke-linecap="round" stroke-linejoin="round" stroke-width="3"/>
        <g id="그룹_457105" data-name="그룹 457105" transform="translate(16.357 7.684)">
          <path id="패스_841382" data-name="패스 841382" d="M-85.137,55.7a1.262,1.262,0,0,1-.9-.379,1.248,1.248,0,0,1-.265-.4,1.257,1.257,0,0,1-.1-.48,1.3,1.3,0,0,1,.366-.9,1.5,1.5,0,0,1,.417-.278,1.289,1.289,0,0,1,1.376.278,1.246,1.246,0,0,1,.366.9,1.244,1.244,0,0,1-.088.48,1.283,1.283,0,0,1-.278.4A1.262,1.262,0,0,1-85.137,55.7Z" transform="translate(86.4 -53.168)"/>
          <path id="패스_841383" data-name="패스 841383" d="M-79.467,55.7a1.321,1.321,0,0,1-.492-.1,1.22,1.22,0,0,1-.4-.278,1.282,1.282,0,0,1-.278-.4,1.245,1.245,0,0,1-.088-.48,1.279,1.279,0,0,1,.366-.9,1.289,1.289,0,0,1,1.376-.278,1.5,1.5,0,0,1,.417.278,1.3,1.3,0,0,1,.366.9,1.257,1.257,0,0,1-.1.48,1.248,1.248,0,0,1-.265.4A1.284,1.284,0,0,1-79.467,55.7Z" transform="translate(87.89 -53.168)"/>
          <path id="패스_841384" data-name="패스 841384" d="M-73.807,55.7a1.255,1.255,0,0,1-.884-.379,1.1,1.1,0,0,1-.278-.4,1.257,1.257,0,0,1-.1-.48,1.257,1.257,0,0,1,.379-.9,1.282,1.282,0,0,1,.4-.278,1.284,1.284,0,0,1,1.376.278,1.227,1.227,0,0,1,.366.9,1.245,1.245,0,0,1-.088.48,1.1,1.1,0,0,1-.278.4,1.1,1.1,0,0,1-.4.278A1.271,1.271,0,0,1-73.807,55.7Z" transform="translate(89.378 -53.168)"/>
        </g>
      </g>
    </g>
  </g>
</svg>
