<svg xmlns="http://www.w3.org/2000/svg" width="104" height="104" viewBox="0 0 104 104">
  <g id="그룹_464693" data-name="그룹 464693" transform="translate(-410 -1179)">
    <g id="그룹_457162" data-name="그룹 457162" transform="translate(206.805 1239.969)">
      <rect id="사각형_339478" data-name="사각형 339478" width="48" height="48" transform="translate(230.195 -34.97)" fill="none"/>
      <path id="패스_841415" data-name="패스 841415" d="M269.272,11h-34.4a1.578,1.578,0,0,1-1.578-1.578V-31.768a1.578,1.578,0,0,1,1.578-1.578h34.4a1.577,1.577,0,0,1,1.578,1.578V9.426A1.577,1.577,0,0,1,269.272,11ZM236.447,7.849h31.247V-30.191H236.447Z" transform="translate(1.789 0.535)"/>
      <g id="그룹_457159" data-name="그룹 457159" transform="translate(244.014 -11.076)">
        <path id="패스_841416" data-name="패스 841416" d="M240.532-16.418a1.714,1.714,0,0,1-.614-.126,1.543,1.543,0,0,1-.5-.331,2.747,2.747,0,0,1-.205-.237c-.049-.095-.095-.189-.142-.284a1.735,1.735,0,0,1-.079-.284,1.025,1.025,0,0,1-.033-.316,1.59,1.59,0,0,1,.459-1.12,1.543,1.543,0,0,1,.5-.331,1.606,1.606,0,0,1,1.72.331,1.6,1.6,0,0,1,.472,1.12,2.131,2.131,0,0,1-.03.316,2.008,2.008,0,0,1-.1.284c-.046.095-.093.189-.14.284a3.058,3.058,0,0,1-.205.237A1.6,1.6,0,0,1,240.532-16.418Z" transform="translate(-238.954 19.573)"/>
        <path id="패스_841417" data-name="패스 841417" d="M245.773-16.415a2.117,2.117,0,0,1-.316-.032.987.987,0,0,1-.284-.095,1.2,1.2,0,0,1-.286-.142,2.472,2.472,0,0,1-.235-.189,1.659,1.659,0,0,1-.458-1.12,1.571,1.571,0,0,1,.126-.6,1.629,1.629,0,0,1,.331-.521l.235-.189a1.2,1.2,0,0,1,.286-.142.987.987,0,0,1,.284-.095,1.508,1.508,0,0,1,.915.095,1.822,1.822,0,0,1,.521.331,1.629,1.629,0,0,1,.331.521,1.6,1.6,0,0,1,.126.6,1.666,1.666,0,0,1-.458,1.12,1.822,1.822,0,0,1-.521.331A1.327,1.327,0,0,1,245.773-16.415Z" transform="translate(-235.926 19.57)"/>
        <path id="패스_841418" data-name="패스 841418" d="M251.013-16.415a1.319,1.319,0,0,1-.6-.126,1.559,1.559,0,0,1-.5-.331,2.747,2.747,0,0,1-.205-.237,1.2,1.2,0,0,1-.142-.284,1.009,1.009,0,0,1-.1-.284,2.375,2.375,0,0,1-.03-.316,1.542,1.542,0,0,1,.126-.6,1.56,1.56,0,0,1,.347-.521,1.559,1.559,0,0,1,.5-.331,1.5,1.5,0,0,1,.913-.095,1.31,1.31,0,0,1,.3.095,1.133,1.133,0,0,1,.268.142c.077.063.158.126.237.189a1.878,1.878,0,0,1,.347.521,1.585,1.585,0,0,1,.11.6,1.025,1.025,0,0,1-.033.316,1.9,1.9,0,0,1-.077.284,2.834,2.834,0,0,1-.158.284,1.244,1.244,0,0,1-.189.237,2.7,2.7,0,0,1-.237.189,1.133,1.133,0,0,1-.268.142,1.311,1.311,0,0,1-.3.095A2.117,2.117,0,0,1,251.013-16.415Z" transform="translate(-232.899 19.57)"/>
        <path id="패스_841419" data-name="패스 841419" d="M240.532-11.274a1.714,1.714,0,0,1-.614-.126,1.367,1.367,0,0,1-.5-.347,1.6,1.6,0,0,1-.347-.5,1.556,1.556,0,0,1-.112-.6,1.636,1.636,0,0,1,.112-.615,1.6,1.6,0,0,1,.347-.5,1.585,1.585,0,0,1,.5-.347,1.611,1.611,0,0,1,1.72.347,1.376,1.376,0,0,1,.345.5,1.65,1.65,0,0,1,.126.615,1.57,1.57,0,0,1-.126.6,1.376,1.376,0,0,1-.345.5A1.544,1.544,0,0,1,240.532-11.274Z" transform="translate(-238.954 22.538)"/>
        <path id="패스_841420" data-name="패스 841420" d="M245.773-11.27a2.117,2.117,0,0,1-.316-.032l-.284-.095-.286-.142a2.73,2.73,0,0,1-.235-.205,1.551,1.551,0,0,1-.189-.237.845.845,0,0,1-.142-.268,1.162,1.162,0,0,1-.1-.3,1.926,1.926,0,0,1-.03-.3,1.945,1.945,0,0,1,.03-.316,1.162,1.162,0,0,1,.1-.3.845.845,0,0,1,.142-.268c.063-.079.126-.174.189-.237a2.73,2.73,0,0,1,.235-.205l.286-.142.284-.095a1.637,1.637,0,0,1,.915.095,1.877,1.877,0,0,1,.521.347c.063.063.126.158.189.237a.877.877,0,0,1,.142.268,1.1,1.1,0,0,1,.093.3,1.777,1.777,0,0,1,.033.316,1.761,1.761,0,0,1-.033.3,1.1,1.1,0,0,1-.093.3.877.877,0,0,1-.142.268,1.549,1.549,0,0,1-.189.237,1.585,1.585,0,0,1-.521.347A1.577,1.577,0,0,1,245.773-11.27Z" transform="translate(-235.926 22.535)"/>
        <path id="패스_841421" data-name="패스 841421" d="M251.013-11.274a1.564,1.564,0,0,1-.6-.126,1.38,1.38,0,0,1-.5-.347,1.361,1.361,0,0,1-.347-.5,1.6,1.6,0,0,1-.126-.6,1.57,1.57,0,0,1,.473-1.12,1.6,1.6,0,0,1,.5-.347,1.63,1.63,0,0,1,.913-.079,2.865,2.865,0,0,1,.3.079c.093.047.174.095.268.142a3,3,0,0,1,.237.205,1.6,1.6,0,0,1,.347.5,1.666,1.666,0,0,1,.11.615,1.585,1.585,0,0,1-.11.6,1.6,1.6,0,0,1-.347.5,3,3,0,0,1-.237.205c-.095.047-.175.095-.268.142-.112.032-.205.063-.3.095A2.117,2.117,0,0,1,251.013-11.274Z" transform="translate(-232.899 22.539)"/>
      </g>
      <path id="패스_841422" data-name="패스 841422" d="M257.073-23.385H240.53a1.577,1.577,0,0,1-1.578-1.578,1.577,1.577,0,0,1,1.578-1.578h16.543a1.577,1.577,0,0,1,1.578,1.578A1.577,1.577,0,0,1,257.073-23.385Z" transform="translate(5.059 4.467)"/>
    </g>
    <rect id="사각형" width="104" height="104" transform="translate(410 1179)" fill="#fff" opacity="0"/>
  </g>
</svg>
