<svg xmlns="http://www.w3.org/2000/svg" width="104" height="104" viewBox="0 0 104 104">
  <g id="그룹_464694" data-name="그룹 464694" transform="translate(-410 -1310)">
    <g id="그룹_457193" data-name="그룹 457193" transform="translate(436.427 1342.238)">
      <path id="패스_841380" data-name="패스 841380" d="M-54.334,47.083h-36.1V70.878H-69.8l6.876,6.8v-6.8h8.594Z" transform="translate(103.481 -47.083)" fill="none" stroke="#000" stroke-linecap="round" stroke-linejoin="round" stroke-width="3"/>
      <path id="패스_841381" data-name="패스 841381" d="M-68.747,65.349v9.177H-85.572l-5.592,5.545V74.526h-7V55.144h13.073" transform="translate(98.167 -41.546)" fill="none" stroke="#000" stroke-linecap="round" stroke-linejoin="round" stroke-width="3"/>
      <g id="그룹_457105" data-name="그룹 457105" transform="translate(19.85 10.265)">
        <path id="패스_841382" data-name="패스 841382" d="M-84.713,56.545a1.686,1.686,0,0,1-1.2-.506,1.667,1.667,0,0,1-.354-.54,1.679,1.679,0,0,1-.135-.641,1.736,1.736,0,0,1,.489-1.2,2.007,2.007,0,0,1,.557-.371,1.722,1.722,0,0,1,1.839.371,1.664,1.664,0,0,1,.489,1.2,1.662,1.662,0,0,1-.118.641,1.713,1.713,0,0,1-.371.54A1.686,1.686,0,0,1-84.713,56.545Z" transform="translate(86.4 -53.168)"/>
        <path id="패스_841383" data-name="패스 841383" d="M-79.043,56.545a1.764,1.764,0,0,1-.658-.135,1.63,1.63,0,0,1-.54-.371,1.713,1.713,0,0,1-.371-.54,1.663,1.663,0,0,1-.118-.641,1.708,1.708,0,0,1,.489-1.2,1.722,1.722,0,0,1,1.839-.371,2.007,2.007,0,0,1,.557.371,1.736,1.736,0,0,1,.489,1.2,1.679,1.679,0,0,1-.135.641,1.667,1.667,0,0,1-.354.54A1.716,1.716,0,0,1-79.043,56.545Z" transform="translate(90.295 -53.168)"/>
        <path id="패스_841384" data-name="패스 841384" d="M-73.383,56.545a1.677,1.677,0,0,1-1.181-.506,1.475,1.475,0,0,1-.371-.54,1.679,1.679,0,0,1-.135-.641,1.68,1.68,0,0,1,.506-1.2,1.713,1.713,0,0,1,.54-.371,1.715,1.715,0,0,1,1.839.371,1.639,1.639,0,0,1,.489,1.2,1.663,1.663,0,0,1-.118.641,1.475,1.475,0,0,1-.371.54,1.475,1.475,0,0,1-.54.371A1.7,1.7,0,0,1-73.383,56.545Z" transform="translate(94.183 -53.168)"/>
      </g>
    </g>
    <rect id="사각형" width="104" height="104" transform="translate(410 1310)" fill="#fff" opacity="0"/>
  </g>
</svg>
