<svg xmlns="http://www.w3.org/2000/svg" xmlns:xlink="http://www.w3.org/1999/xlink" width="104" height="104" viewBox="0 0 104 104">
  <defs>
    <clipPath id="clip-path">
      <rect id="사각형_339237" data-name="사각형 339237" width="40.896" height="18.805" fill="#fff" stroke="#000" stroke-width="3"/>
    </clipPath>
    <clipPath id="clip-path-2">
      <rect id="사각형_339240" data-name="사각형 339240" width="14.525" height="13.62" transform="translate(0 0)" fill="#fff" stroke="#000" stroke-width="3"/>
    </clipPath>
  </defs>
  <g id="그룹_464691" data-name="그룹 464691" transform="translate(-410 -1179)">
    <g id="ICON-고객센터" transform="translate(437.762 1207.997)">
      <g id="마스크_그룹_128" data-name="마스크 그룹 128" transform="translate(3.45 0.003)" clip-path="url(#clip-path)">
        <g id="패스_840973" data-name="패스 840973" transform="translate(2.843 1.817)" fill="none">
          <path d="M17.548,0A17.548,17.548,0,0,1,35.1,17.548c0,22.689-35.1,22.689-35.1,0A17.548,17.548,0,0,1,17.548,0Z" stroke="none"/>
          <path d="M 17.5475959777832 3 C 13.66179656982422 3 10.00856590270996 4.513210296630859 7.260885238647461 7.260890960693359 C 4.513206481933594 10.00856971740723 2.999996185302734 13.66180038452148 2.999996185302734 17.54759979248047 C 2.999996185302734 19.84145927429199 3.418066024780273 21.93124961853027 4.242586135864258 23.7588996887207 C 4.987646102905273 25.410400390625 6.064205169677734 26.85013961791992 7.442375183105469 28.03813934326172 C 8.759956359863281 29.17391967773438 10.32103538513184 30.05772018432617 12.08225631713867 30.66500091552734 C 13.81366539001465 31.26200103759766 15.65247535705566 31.5647087097168 17.5475959777832 31.5647087097168 C 19.44271469116211 31.5647087097168 21.28152465820312 31.26200103759766 23.01293563842773 30.66500091552734 C 24.77415466308594 30.05772018432617 26.33523559570312 29.17391967773438 27.65281677246094 28.03813934326172 C 29.03098678588867 26.85013961791992 30.10754585266113 25.410400390625 30.85260581970215 23.7588996887207 C 31.67712593078613 21.93124961853027 32.09519577026367 19.84145927429199 32.09519577026367 17.54759979248047 C 32.09519577026367 13.66180038452148 30.58198547363281 10.00856971740723 27.83430480957031 7.260890960693359 C 25.08662605285645 4.513210296630859 21.43339538574219 3 17.5475959777832 3 M 17.5475959777832 0 C 27.23886489868164 0 35.09519577026367 7.856330871582031 35.09519577026367 17.54759979248047 C 35.09519577026367 40.23707962036133 -3.814697265625e-06 40.23707962036133 -3.814697265625e-06 17.54759979248047 C -3.814697265625e-06 7.856330871582031 7.856325149536133 0 17.5475959777832 0 Z" stroke="none" fill="#000"/>
        </g>
      </g>
      <g id="마스크_그룹_129" data-name="마스크 그룹 129" transform="translate(43.292 45.572) rotate(180)" clip-path="url(#clip-path-2)">
        <g id="패스_840974" data-name="패스 840974" transform="translate(2.026 1.519)" fill="none">
          <path d="M12.5,0A12.5,12.5,0,0,1,25,12.5c0,16.163-25,16.163-25,0A12.5,12.5,0,0,1,12.5,0Z" stroke="none"/>
          <path d="M 12.50017833709717 3.000003814697266 C 7.261758804321289 3.000003814697266 2.999998092651367 7.261762619018555 2.999998092651367 12.50018310546875 C 2.999998092651367 14.01105308532715 3.272129058837891 15.38033390045166 3.808828353881836 16.56999397277832 C 4.287467956542969 17.63095474243164 4.979278564453125 18.55605316162109 5.865058898925781 19.31960296630859 C 7.56281852722168 20.78310394287109 9.981227874755859 21.62246322631836 12.50017833709717 21.62246322631836 C 15.01912879943848 21.62246322631836 17.43753814697266 20.78310394287109 19.13529777526855 19.31960296630859 C 20.02107810974121 18.55605316162109 20.71288871765137 17.63095474243164 21.1915283203125 16.56999397277832 C 21.72822761535645 15.38033390045166 22.00035858154297 14.01105308532715 22.00035858154297 12.50018310546875 C 22.00035858154297 7.261762619018555 17.73859786987305 3.000003814697266 12.50017833709717 3.000003814697266 M 12.50017833709717 3.814697265625e-06 C 19.40383911132812 3.814697265625e-06 25.00035858154297 5.596523284912109 25.00035858154297 12.50018310546875 C 25.00035858154297 28.6632251739502 -1.9073486328125e-06 28.66322135925293 -1.9073486328125e-06 12.50018310546875 C -1.9073486328125e-06 5.596523284912109 5.596517562866211 3.814697265625e-06 12.50017833709717 3.814697265625e-06 Z" stroke="none" fill="#000"/>
        </g>
      </g>
      <g id="그룹_456559" data-name="그룹 456559" transform="translate(-1.762 17.549)">
        <g id="사각형_339238" data-name="사각형 339238" transform="translate(2 0)" fill="none" stroke="#000" stroke-width="3">
          <path d="M4,0H9.087a0,0,0,0,1,0,0V14.766a0,0,0,0,1,0,0H4a4,4,0,0,1-4-4V4A4,4,0,0,1,4,0Z" stroke="none"/>
          <path d="M4,1.5H6.087A1.5,1.5,0,0,1,7.587,3v8.766a1.5,1.5,0,0,1-1.5,1.5H4a2.5,2.5,0,0,1-2.5-2.5V4A2.5,2.5,0,0,1,4,1.5Z" fill="none"/>
        </g>
        <g id="사각형_339239" data-name="사각형 339239" transform="translate(49.206 14.766) rotate(180)" fill="none" stroke="#000" stroke-width="3">
          <path d="M4,0H9.087a0,0,0,0,1,0,0V14.766a0,0,0,0,1,0,0H4a4,4,0,0,1-4-4V4A4,4,0,0,1,4,0Z" stroke="none"/>
          <path d="M4,1.5H6.087A1.5,1.5,0,0,1,7.587,3v8.766a1.5,1.5,0,0,1-1.5,1.5H4a2.5,2.5,0,0,1-2.5-2.5V4A2.5,2.5,0,0,1,4,1.5Z" fill="none"/>
        </g>
      </g>
      <rect id="사각형_339241" data-name="사각형 339241" width="11.358" height="5.679" rx="2.84" transform="translate(18.127 40.266)" fill="none" stroke="#000" stroke-width="3"/>
    </g>
    <rect id="사각형" width="104" height="104" transform="translate(410 1179)" fill="#fff" opacity="0"/>
  </g>
</svg>
