<svg xmlns="http://www.w3.org/2000/svg" width="104" height="104" viewBox="0 0 104 104">
  <g id="그룹_465376" data-name="그룹 465376" transform="translate(-216 -796)">
    <rect id="사각형_341301" data-name="사각형 341301" width="104" height="104" transform="translate(216 796)" fill="none"/>
    <g id="통합검색" transform="translate(247 825)">
      <g id="사각형_339358" data-name="사각형 339358" transform="translate(0 0)" fill="#fff" stroke="#000" stroke-width="3">
        <rect width="34.869" height="44.472" rx="4" stroke="none"/>
        <rect x="1.5" y="1.5" width="31.869" height="41.472" rx="2.5" fill="none"/>
      </g>
      <path id="패스_840985" data-name="패스 840985" d="M606.549,6073.622h9.606" transform="translate(-589.115 -6062.06)" fill="none" stroke="#000" stroke-linecap="round" stroke-width="3"/>
      <path id="패스_841365" data-name="패스 841365" d="M606.549,6073.622h3" transform="translate(-598.54 -6062.06)" fill="none" stroke="#000" stroke-linecap="round" stroke-width="3"/>
      <path id="패스_840986" data-name="패스 840986" d="M606.549,6073.622h19.032" transform="translate(-598.54 -6051.385)" fill="none" stroke="#000" stroke-linecap="round" stroke-width="3"/>
      <path id="패스_840987" data-name="패스 840987" d="M606.549,6073.622h19.032" transform="translate(-598.54 -6040.771)" fill="none" stroke="#000" stroke-linecap="round" stroke-width="3"/>
      <line id="Shape_3" data-name="Shape 3" x2="6.439" y2="6.439" transform="translate(36.734 41.06)" fill="none" stroke="#000" stroke-linecap="round" stroke-linejoin="round" stroke-width="3"/>
      <g id="Ellipse_1" data-name="Ellipse 1" transform="translate(-645.357 -30.372)" fill="#fff">
        <path d="M 673.8108520507812 74.60024261474609 C 670.792236328125 74.60024261474609 667.9540405273438 73.41780090332031 665.8190307617188 71.27074432373047 C 661.4053955078125 66.8328857421875 661.4053955078125 59.61213302612305 665.8189086914062 55.17441558837891 C 667.9540405273438 53.02726364135742 670.792236328125 51.84483337402344 673.8108520507812 51.84483337402344 C 676.8294067382812 51.84483337402344 679.6676635742188 53.02727508544922 681.8026733398438 55.17433547973633 C 686.2161865234375 59.61212539672852 686.2161865234375 66.8328857421875 681.802734375 71.27068328857422 C 679.6676635742188 73.41780090332031 676.8294067382812 74.60024261474609 673.8108520507812 74.60024261474609 Z" stroke="none"/>
        <path d="M 673.810791015625 53.34484100341797 C 671.1943969726562 53.34484100341797 668.7340087890625 54.37014770507812 666.8825073242188 56.23222351074219 C 663.0490112304688 60.08668518066406 663.0490112304688 66.35838317871094 666.8826904296875 70.21315002441406 C 668.7340087890625 72.07492065429688 671.1943969726562 73.10022735595703 673.810791015625 73.10022735595703 C 676.4271240234375 73.10022735595703 678.8876342773438 72.07484436035156 680.7391967773438 70.21299743652344 C 684.5725708007812 66.35838317871094 684.5726318359375 60.08660888671875 680.7390747070312 56.23207092285156 C 678.8876342773438 54.37022399902344 676.4271240234375 53.34484100341797 673.810791015625 53.34484100341797 M 673.810791015625 50.34482574462891 C 677.0883178710938 50.34482574462891 680.3658447265625 51.60211181640625 682.8663330078125 54.11669158935547 C 687.8674926757812 59.14530181884766 687.8674926757812 67.2996826171875 682.8663330078125 72.32846069335938 C 677.8654174804688 77.35748291015625 669.75634765625 77.35757446289062 664.7554321289062 72.32846069335938 C 659.7540893554688 67.2996826171875 659.7540893554688 59.14530181884766 664.7554321289062 54.11669158935547 C 667.255859375 51.60211181640625 670.5333251953125 50.34482574462891 673.810791015625 50.34482574462891 Z" stroke="none" fill="#000"/>
      </g>
    </g>
  </g>
</svg>
