<svg xmlns="http://www.w3.org/2000/svg" xmlns:xlink="http://www.w3.org/1999/xlink" width="60" height="60" viewBox="0 0 60 60">
  <defs>
    <clipPath id="clip-path">
      <rect id="사각형_341302" data-name="사각형 341302" width="60" height="60" transform="translate(24 -20459)" opacity="0.5"/>
    </clipPath>
  </defs>
  <g id="icon_1" transform="translate(-24 20459)" clip-path="url(#clip-path)">
    <g id="패스_844754" data-name="패스 844754" transform="translate(-64.71 -20460.443)" fill="none" stroke-miterlimit="10">
      <path d="M109.931,40.642c13.235,13.032,22.984,5.6,22.984,5.6l1.521-1.5a3.574,3.574,0,0,0,0-5.11l-3.219-3.169a3.2,3.2,0,0,0-4.475,0l-2.218,2.184a1.416,1.416,0,0,1-1.236.385C120.7,38.592,112.193,36.457,111.5,27.4a1.381,1.381,0,0,1,.415-1.078l2.239-2.2a3.114,3.114,0,0,0,0-4.453l-3.218-3.168a3.676,3.676,0,0,0-5.143,0l-1.544,1.52S95.723,26.652,109.931,40.642Z" stroke="none"/>
      <path d="M 125.5601119995117 48.35137939453125 L 125.5601119995117 45.35137939453125 C 128.5451202392578 45.35137939453125 130.4890594482422 44.24552917480469 130.99609375 43.92034530639648 L 132.3305969238281 42.60635375976562 C 132.4791564941406 42.46009063720703 132.5103302001953 42.2987060546875 132.5103302001953 42.18905639648438 C 132.5103302001953 42.07941818237305 132.4791564941406 41.91801834106445 132.3306121826172 41.77176666259766 L 129.1117248535156 38.6024169921875 C 129.0781555175781 38.56936645507812 129.0335998535156 38.55260467529297 128.9792938232422 38.55260467529297 C 128.9244689941406 38.55260467529297 128.8793029785156 38.56967926025391 128.8460235595703 38.6024169921875 L 126.6315765380859 40.78280639648438 C 125.8019409179688 41.60236740112305 124.7005920410156 42.05374145507812 123.5302886962891 42.05377960205078 C 123.2826538085938 42.05377960205078 123.0329513549805 42.03284072875977 122.7881393432617 41.99155426025391 L 122.7821502685547 41.99054336547852 C 116.3294906616211 40.888916015625 109.1901626586914 36.53688049316406 108.5045013427734 27.62844276428223 C 108.4050750732422 26.34944152832031 108.8794403076172 25.09269332885742 109.8059234619141 24.18047904968262 L 112.0461044311523 21.97476768493652 C 112.0662002563477 21.95499229431152 112.0867538452148 21.92916679382324 112.0867538452148 21.8874683380127 C 112.0867614746094 21.84507942199707 112.0657501220703 21.81866645812988 112.0452041625977 21.79844284057617 L 108.8274002075195 18.63015556335449 C 108.6707229614258 18.47589302062988 108.4871368408203 18.44350433349609 108.3607177734375 18.44350433349609 C 108.2342987060547 18.44350433349609 108.0507125854492 18.47589302062988 107.8940505981445 18.63014221191406 L 106.3962326049805 20.10491752624512 C 106.396110534668 20.10505676269531 106.3959579467773 20.10522651672363 106.3958358764648 20.10536766052246 L 106.3501052856445 20.15034294128418 L 106.3951034545898 20.10619735717773 C 106.2150115966797 20.3094367980957 104.8705062866211 21.91521644592285 104.7233657836914 24.6922550201416 C 104.5055389404297 28.80300521850586 107.0342483520508 33.57900619506836 112.0361175537109 38.50390625 C 114.6148376464844 41.04296875 117.2171783447266 42.90439224243164 119.7708129882812 44.03647994995117 C 121.7385635375977 44.90881729125977 123.6860122680664 45.35121917724609 125.5590744018555 45.35137939453125 L 125.5601119995117 48.35137939453125 M 125.5588150024414 48.35137557983398 C 121.5363235473633 48.35102462768555 116.1135787963867 46.72877502441406 109.9313049316406 40.64160537719727 C 95.72264862060547 26.65156745910645 104.2452926635742 18.01264190673828 104.2452926635742 18.01264190673828 L 105.7892379760742 16.4924430847168 C 107.2096786499023 15.09386253356934 109.5117492675781 15.09385013580322 110.9322052001953 16.4924430847168 L 114.150016784668 19.66074180603027 C 115.3990020751953 20.89052963256836 115.3990020751953 22.88461685180664 114.150016784668 24.11335563659668 L 111.9107360839844 26.31818008422852 C 111.6243133544922 26.60019302368164 111.4645919799805 26.99859237670898 111.495475769043 27.39594268798828 C 112.1929168701172 36.45737838745117 120.7016983032227 38.59195327758789 123.2870178222656 39.03332901000977 C 123.7405853271484 39.10986709594727 124.1984939575195 38.96937942504883 124.5232543945312 38.64856719970703 L 126.7412109375 36.46471786499023 C 127.9774475097656 35.24856948852539 129.9813995361328 35.24856948852539 131.2165374755859 36.46471786499023 L 134.4354248046875 39.63406753540039 C 135.8686218261719 41.04524230957031 135.8686218261719 43.33287811279297 134.4354248046875 44.74404144287109 L 132.9149169921875 46.24118041992188 C 132.9149169921875 46.24118041992188 130.1479187011719 48.35177612304688 125.5588150024414 48.35137557983398 Z" stroke="none" fill="#000"/>
    </g>
  </g>
</svg>
