<svg xmlns="http://www.w3.org/2000/svg" width="104" height="104" viewBox="0 0 104 104">
  <g id="그룹_464692" data-name="그룹 464692" transform="translate(-216 -796)">
    <g id="그룹_457164" data-name="그룹 457164" transform="translate(44.279 671.783)">
      <rect id="사각형_339477" data-name="사각형 339477" width="48" height="48" transform="translate(199.72 152.214)" fill="none"/>
      <path id="패스_841414" data-name="패스 841414" d="M231.277,193.53c-.49,0-1-.018-1.545-.051-5.984-.394-11.946-3.685-17.728-9.791a39.687,39.687,0,0,1-8.51-14.147,11.3,11.3,0,0,1,1.077-10.3,9.879,9.879,0,0,1,5.863-3.745,3.158,3.158,0,0,1,3.9,1.434c.5.794,3.144,4.979,3.873,6.535h0c1.18,2.509-.138,3.96-.293,4.118l-.182.161c-1.186.889-3.031,2.316-3.415,2.7a.347.347,0,0,0,.024.3l.071.148a16.845,16.845,0,0,0,4.037,5.747,38.848,38.848,0,0,0,6.953,5.354,1.27,1.27,0,0,0,.315.125,36.142,36.142,0,0,0,2.862-3.147,3.224,3.224,0,0,1,4.343-.728c.45.251,5.236,2.964,6.44,3.82a4.325,4.325,0,0,1,1.9,2.951l.018.175a8.888,8.888,0,0,1-.54,3.517C240.183,190.211,238.167,193.53,231.277,193.53Zm-19.719-34.976a1.409,1.409,0,0,0-.354.063,6.732,6.732,0,0,0-4.012,2.483,8.08,8.08,0,0,0-.685,7.324,36.565,36.565,0,0,0,7.842,13.064c5.195,5.489,10.444,8.444,15.593,8.782,6.152.4,7.511-1.95,7.782-2.681a5.661,5.661,0,0,0,.349-2.146,1.164,1.164,0,0,0-.5-.718c-.972-.688-4.884-2.932-6.316-3.742l-.021.027-.146-.022a39.771,39.771,0,0,1-3.174,3.483c-.622.688-2.078,1.421-4.106.305a42,42,0,0,1-7.565-5.808,20.027,20.027,0,0,1-4.753-6.75,3.537,3.537,0,0,1,.5-3.976c.643-.646,2.628-2.163,3.5-2.821a1.733,1.733,0,0,0-.18-.585l0,0c-.566-1.215-2.885-4.931-3.729-6.26Zm-.129-.257v0Z" transform="translate(1.822 1.887)"/>
    </g>
    <rect id="사각형" width="104" height="104" transform="translate(216 796)" fill="#fff" opacity="0"/>
  </g>
</svg>
