<svg xmlns="http://www.w3.org/2000/svg" xmlns:xlink="http://www.w3.org/1999/xlink" width="60" height="60" viewBox="0 0 60 60">
  <defs>
    <clipPath id="clip-path">
      <rect id="사각형_341304" data-name="사각형 341304" width="60" height="60" transform="translate(24 -20190)" opacity="0.5"/>
    </clipPath>
    <clipPath id="clip-path-2">
      <rect id="사각형_339237" data-name="사각형 339237" width="30.614" height="14.077" fill="#fff" stroke="#707070" stroke-width="3"/>
    </clipPath>
    <clipPath id="clip-path-3">
      <rect id="사각형_339240" data-name="사각형 339240" width="10.873" height="10.196" transform="translate(0 0)" fill="#fff" stroke="#707070" stroke-width="3"/>
    </clipPath>
  </defs>
  <g id="icon_3" transform="translate(-24 20190)" clip-path="url(#clip-path)">
    <g id="ICON-고객센터" transform="translate(20.341 -20199.857)">
      <g id="그룹_468070" data-name="그룹 468070" transform="translate(0.224 0.216)">
        <g id="마스크_그룹_128" data-name="마스크 그룹 128" transform="translate(23.298 21.642)" clip-path="url(#clip-path-2)">
          <g id="패스_840973" data-name="패스 840973" transform="translate(2.128 1.361)" fill="none">
            <path d="M13.136,0A13.136,13.136,0,0,1,26.272,13.136C26.272,30.121,0,30.121,0,13.136A13.136,13.136,0,0,1,13.136,0Z" stroke="none"/>
            <path d="M 13.13579368591309 3.000001907348633 C 7.546903610229492 3.000001907348633 3.000003814697266 7.546901702880859 3.000003814697266 13.13579177856445 C 3.000003814697266 14.74526214599609 3.29051399230957 16.20528221130371 3.863452911376953 17.47528266906738 C 4.375642776489258 18.61060333251953 5.115913391113281 19.60051345825195 6.063684463500977 20.41751098632812 C 7.875053405761719 21.97894287109375 10.45274353027344 22.87447166442871 13.13579368591309 22.87447166442871 C 15.81884384155273 22.87447166442871 18.39652252197266 21.97894287109375 20.20789337158203 20.41751098632812 C 21.15567398071289 19.60051345825195 21.89594268798828 18.61060333251953 22.40812301635742 17.47528266906738 C 22.9810733795166 16.20528221130371 23.27158355712891 14.74526214599609 23.27158355712891 13.13579177856445 C 23.27158355712891 7.546901702880859 18.72468376159668 3.000001907348633 13.13579368591309 3.000001907348633 M 13.13579368591309 1.9073486328125e-06 C 20.39049339294434 1.9073486328125e-06 26.27158355712891 5.881092071533203 26.27158355712891 13.13579177856445 C 26.27158355712891 30.12070274353027 1.9073486328125e-06 30.12070083618164 3.814697265625e-06 13.13579177856445 C 3.814697265625e-06 5.881092071533203 5.881093978881836 1.9073486328125e-06 13.13579368591309 1.9073486328125e-06 Z" stroke="none" fill="#000"/>
          </g>
        </g>
        <g id="마스크_그룹_129" data-name="마스크 그룹 129" transform="translate(53.122 55.754) rotate(180)" clip-path="url(#clip-path-3)">
          <g id="패스_840974" data-name="패스 840974" transform="translate(1.516 1.137)" fill="none">
            <path d="M9.357,0a9.357,9.357,0,0,1,9.357,9.357c0,12.1-18.715,12.1-18.715,0A9.357,9.357,0,0,1,9.357,0Z" stroke="none"/>
            <path d="M 9.357393264770508 3 C 5.851913452148438 3 3.000002861022949 5.851910591125488 3.000002861022949 9.357390403747559 C 3.000002861022949 11.28864097595215 3.633513450622559 12.81396102905273 4.882933616638184 13.89098072052002 C 6.018962860107422 14.87026023864746 7.649843215942383 15.43190002441406 9.357393264770508 15.43190002441406 C 11.06494331359863 15.43190002441406 12.69582366943359 14.87026023864746 13.83184337615967 13.89098072052002 C 15.08127307891846 12.81396102905273 15.71478271484375 11.28864097595215 15.71478271484375 9.357390403747559 C 15.71478271484375 5.851910591125488 12.86287307739258 3 9.357393264770508 3 M 9.357393264770508 0 C 14.52534294128418 0 18.71478271484375 4.189451217651367 18.71478271484375 9.357390403747559 C 18.71478271484375 21.45674133300781 1.9073486328125e-06 21.45674133300781 3.814697265625e-06 9.357390403747559 C 3.814697265625e-06 4.189451217651367 4.189443588256836 0 9.357393264770508 0 Z" stroke="none" fill="#000"/>
          </g>
        </g>
        <g id="그룹_456559" data-name="그룹 456559" transform="translate(20.635 34.777)">
          <g id="사각형_339238" data-name="사각형 339238" transform="translate(1 0)" fill="none" stroke="#000" stroke-width="2.5">
            <path d="M4,0H6.8a0,0,0,0,1,0,0V11.053a0,0,0,0,1,0,0H4a4,4,0,0,1-4-4V4A4,4,0,0,1,4,0Z" stroke="none"/>
            <path d="M4,1.25H5.552a0,0,0,0,1,0,0V9.8a0,0,0,0,1,0,0H4a2.75,2.75,0,0,1-2.75-2.75V4A2.75,2.75,0,0,1,4,1.25Z" fill="none"/>
          </g>
          <g id="사각형_339239" data-name="사각형 339239" transform="translate(34.802 11.053) rotate(180)" fill="none" stroke="#000" stroke-width="2.5">
            <path d="M4,0H6.8a0,0,0,0,1,0,0V11.053a0,0,0,0,1,0,0H4a4,4,0,0,1-4-4V4A4,4,0,0,1,4,0Z" stroke="none"/>
            <path d="M4,1.25H5.552a0,0,0,0,1,0,0V9.8a0,0,0,0,1,0,0H4a2.75,2.75,0,0,1-2.75-2.75V4A2.75,2.75,0,0,1,4,1.25Z" fill="none"/>
          </g>
        </g>
        <rect id="사각형_339241" data-name="사각형 339241" width="8.503" height="4.251" rx="2.126" transform="translate(34.284 51.782)" fill="none" stroke="#000" stroke-width="2.5"/>
      </g>
    </g>
  </g>
</svg>
