<svg id="바코드" xmlns="http://www.w3.org/2000/svg" width="592" height="90" viewBox="0 0 592 90">
  <rect id="사각형_339335" data-name="사각형 339335" width="5" height="90" transform="translate(263.449)"/>
  <rect id="사각형_339336" data-name="사각형 339336" width="5" height="90" transform="translate(275.469)"/>
  <rect id="사각형_339319" data-name="사각형 339319" width="5" height="90" transform="translate(159.271)"/>
  <rect id="사각형_339332" data-name="사각형 339332" width="5" height="90" transform="translate(447.763)"/>
  <rect id="사각형_339320" data-name="사각형 339320" width="5" height="90" transform="translate(190.324)"/>
  <rect id="사각형_339329" data-name="사각형 339329" width="5" height="90" transform="translate(476)"/>
  <rect id="사각형_339321" data-name="사각형 339321" width="5" height="90" transform="translate(201.343)"/>
  <rect id="사각형_339330" data-name="사각형 339330" width="5" height="90" transform="translate(487)"/>
  <rect id="사각형_339322" data-name="사각형 339322" width="5" height="90" transform="translate(218.372)"/>
  <rect id="사각형_339326" data-name="사각형 339326" width="5" height="90" transform="translate(505)"/>
  <rect id="사각형_339349" data-name="사각형 339349" width="5" height="90" transform="translate(570)"/>
  <rect id="사각형_339323" data-name="사각형 339323" width="8" height="90" transform="translate(243.417)"/>
  <rect id="사각형_339327" data-name="사각형 339327" width="8" height="90" transform="translate(530)"/>
  <rect id="사각형_339342" data-name="사각형 339342" width="8" height="90" transform="translate(544)"/>
  <rect id="사각형_339315" data-name="사각형 339315" width="5" height="90" transform="translate(73)"/>
  <rect id="사각형_339337" data-name="사각형 339337" width="5" height="90" transform="translate(359.613)"/>
  <rect id="사각형_339317" data-name="사각형 339317" width="5" height="90" transform="translate(116.198)"/>
  <rect id="사각형_339333" data-name="사각형 339333" width="5" height="90" transform="translate(403.688)"/>
  <rect id="사각형_339312" data-name="사각형 339312" width="10" height="90" transform="translate(0)"/>
  <rect id="사각형_339338" data-name="사각형 339338" width="10" height="90" transform="translate(288.496)"/>
  <rect id="사각형_339313" data-name="사각형 339313" width="14" height="90" transform="translate(23)"/>
  <rect id="사각형_339339" data-name="사각형 339339" width="14" height="90" transform="translate(311.539)"/>
  <rect id="사각형_339324" data-name="사각형 339324" width="14" height="90" transform="translate(226.392)"/>
  <rect id="사각형_339328" data-name="사각형 339328" width="14" height="90" transform="translate(513)"/>
  <rect id="사각형_339346" data-name="사각형 339346" width="14" height="90" transform="translate(578)"/>
  <rect id="사각형_339318" data-name="사각형 339318" width="14" height="90" transform="translate(127.22)"/>
  <rect id="사각형_339334" data-name="사각형 339334" width="14" height="90" transform="translate(415.719)"/>
  <rect id="사각형_339316" data-name="사각형 339316" width="14" height="90" transform="translate(91)"/>
  <rect id="사각형_339340" data-name="사각형 339340" width="14" height="90" transform="translate(376.652)"/>
  <rect id="사각형_339325" data-name="사각형 339325" width="14" height="90" transform="translate(168.291)"/>
  <rect id="사각형_339331" data-name="사각형 339331" width="14" height="90" transform="translate(456.79)"/>
  <rect id="사각형_339314" data-name="사각형 339314" width="24" height="90" transform="translate(43)"/>
  <rect id="사각형_339341" data-name="사각형 339341" width="24" height="90" transform="translate(330.582)"/>
</svg>
