<svg xmlns="http://www.w3.org/2000/svg" width="209" height="874" viewBox="0 0 209 874">
  <g id="그룹_456330" data-name="그룹 456330" transform="translate(-4276.182 964.833) rotate(-90)">
    <g id="바코드" transform="translate(90.833 4276.182)">
      <rect id="사각형_339335" data-name="사각형 339335" width="7.384" height="132.73" transform="translate(388.942)"/>
      <rect id="사각형_339336" data-name="사각형 339336" width="7.384" height="132.73" transform="translate(406.688)"/>
      <rect id="사각형_339319" data-name="사각형 339319" width="7.384" height="132.73" transform="translate(235.14)"/>
      <rect id="사각형_339332" data-name="사각형 339332" width="7.384" height="132.73" transform="translate(661.053)"/>
      <rect id="사각형_339320" data-name="사각형 339320" width="7.384" height="132.73" transform="translate(280.985)"/>
      <rect id="사각형_339329" data-name="사각형 339329" width="7.384" height="132.73" transform="translate(702.692)"/>
      <rect id="사각형_339321" data-name="사각형 339321" width="7.384" height="132.73" transform="translate(297.252)"/>
      <rect id="사각형_339330" data-name="사각형 339330" width="7.384" height="132.73" transform="translate(718.937)"/>
      <rect id="사각형_339322" data-name="사각형 339322" width="7.384" height="132.73" transform="translate(322.393)"/>
      <rect id="사각형_339326" data-name="사각형 339326" width="7.384" height="132.73" transform="translate(745.519)"/>
      <rect id="사각형_339349" data-name="사각형 339349" width="7.384" height="132.73" transform="translate(841.51)"/>
      <rect id="사각형_339323" data-name="사각형 339323" width="11.814" height="132.73" transform="translate(359.367)"/>
      <rect id="사각형_339327" data-name="사각형 339327" width="11.814" height="132.73" transform="translate(782.439)"/>
      <rect id="사각형_339342" data-name="사각형 339342" width="11.814" height="132.73" transform="translate(803.114)"/>
      <rect id="사각형_339315" data-name="사각형 339315" width="7.384" height="132.73" transform="translate(107.806)"/>
      <rect id="사각형_339337" data-name="사각형 339337" width="7.384" height="132.73" transform="translate(530.913)"/>
      <rect id="사각형_339317" data-name="사각형 339317" width="7.384" height="132.73" transform="translate(171.549)"/>
      <rect id="사각형_339333" data-name="사각형 339333" width="7.384" height="132.73" transform="translate(595.983)"/>
      <rect id="사각형_339312" data-name="사각형 339312" width="14.768" height="132.73" transform="translate(0)"/>
      <rect id="사각형_339338" data-name="사각형 339338" width="14" height="132.819" transform="translate(426.37 0.181)"/>
      <rect id="사각형_339313" data-name="사각형 339313" width="20.675" height="132.73" transform="translate(33.966)"/>
      <rect id="사각형_339339" data-name="사각형 339339" width="20.675" height="132.73" transform="translate(459.938)"/>
      <rect id="사각형_339324" data-name="사각형 339324" width="20.675" height="132.73" transform="translate(334.231)"/>
      <rect id="사각형_339328" data-name="사각형 339328" width="20.675" height="132.73" transform="translate(757.333)"/>
      <rect id="사각형_339346" data-name="사각형 339346" width="20.675" height="132.73" transform="translate(853.325)"/>
      <rect id="사각형_339318" data-name="사각형 339318" width="20.675" height="132.73" transform="translate(187.82)"/>
      <rect id="사각형_339334" data-name="사각형 339334" width="20.675" height="132.73" transform="translate(613.743)"/>
      <rect id="사각형_339316" data-name="사각형 339316" width="20.675" height="132.73" transform="translate(134.388)"/>
      <rect id="사각형_339340" data-name="사각형 339340" width="20.675" height="132.73" transform="translate(556.066)"/>
      <rect id="사각형_339325" data-name="사각형 339325" width="20.675" height="132.73" transform="translate(248.455)"/>
      <rect id="사각형_339331" data-name="사각형 339331" width="20.675" height="132.73" transform="translate(674.378)"/>
      <rect id="사각형_339314" data-name="사각형 339314" width="35.443" height="132.73" transform="translate(63.502)"/>
      <rect id="사각형_339341" data-name="사각형 339341" width="35.443" height="132.73" transform="translate(488.049)"/>
    </g>
    <text id="Title" transform="translate(397.833 4475.182)" font-size="36" font-family="NotoSansCJKkr-Regular, Noto Sans CJK KR"><tspan x="0" y="0">1234567890128</tspan></text>
  </g>
</svg>
