<?xml version="1.0" encoding="utf-8"?>
<!-- Generator: Adobe Illustrator 27.2.0, SVG Export Plug-In . SVG Version: 6.00 Build 0)  -->
<svg version="1.1" id="Layer_1" xmlns="http://www.w3.org/2000/svg" xmlns:xlink="http://www.w3.org/1999/xlink" x="0px" y="0px"
	 viewBox="0 0 32 32" style="enable-background:new 0 0 32 32;" xml:space="preserve">
<style type="text/css">
	.st0{fill:#666666;}
	.st1{fill:#2D2926;}
</style>
<g id="그룹_464684" transform="translate(-10.897 0.323)">
	<path id="사각형_1822" class="st0" d="M16.9-0.3h20c3.3,0,6,2.7,6,6v20c0,3.3-2.7,6-6,6h-20c-3.3,0-6-2.7-6-6v-20
		C10.9,2.4,13.6-0.3,16.9-0.3z"/>
</g>
<path class="st1" d="M16,4.3C9.9,4.3,5,8.8,5,14.5c0,4.1,1.7,6.1,4.1,8l0,0v4.9c0,0.1,0.3,0.4,0.4,0.1l4.2-3h0.1
	c0.7,0.1,1.5,0.1,2.2,0.1c6.1,0,11-4.6,11-10.2C26.9,8.8,22.1,4.3,16,4.3 M12.4,17.1c1,0,2-0.7,2.3-1.6h1.6
	c-0.4,1.9-1.9,3.2-3.8,3.2c-2.3,0-4.1-1.7-4.1-4.1s1.9-4.1,4.1-4.1c2,0,3.5,1.3,3.9,3.2h-1.6c-0.3-1-1.2-1.7-2.3-1.7
	c-1.6,0-2.6,1.2-2.6,2.6C9.8,15.9,10.9,17.1,12.4,17.1 M22.7,18.4h-1.5v-3.2c0-0.7-0.4-1.2-1.2-1.2c-0.7,0-1.3,0.4-1.3,1.5v3h-1.5
	v-8.1h1.5v3c0.4-0.6,1-0.7,1.7-0.7s1.2,0.1,1.6,0.7c0.4,0.4,0.6,1,0.6,1.7C22.7,15.2,22.7,18.4,22.7,18.4z"/>
</svg>
