<svg xmlns="http://www.w3.org/2000/svg" width="64" height="64" viewBox="0 0 64 64">
  <g id="그룹_459098" data-name="그룹 459098" transform="translate(0 0.002)">
    <g id="그룹_456340" data-name="그룹 456340">
      <path id="패스_841001" data-name="패스 841001" d="M46.9,39.489h1.986a6.455,6.455,0,0,0,0-12.909H46.9" fill="none" stroke="#000" stroke-linecap="round" stroke-linejoin="round" stroke-width="2"/>
      <path id="패스_841002" data-name="패스 841002" d="M37.156,10.075A14.9,14.9,0,0,0,17.1,24.058V39.5H15.119a6.455,6.455,0,0,1,0-12.909H17.1" fill="none" stroke="#000" stroke-linecap="round" stroke-linejoin="round" stroke-width="2"/>
      <path id="패스_841003" data-name="패스 841003" d="M46.9,24.053V43.528a9.44,9.44,0,0,1-9.44,9.44h-.987" fill="none" stroke="#000" stroke-linecap="round" stroke-linejoin="round" stroke-width="2"/>
      <rect id="사각형_339174" data-name="사각형 339174" width="8.937" height="3.972" rx="1" transform="translate(27.543 50.881)" fill="none" stroke="#000" stroke-linecap="round" stroke-linejoin="round" stroke-width="2"/>
      <path id="패스_841004" data-name="패스 841004" d="M45.932,16.142H43.946V14.156" fill="none" stroke="#000" stroke-linecap="round" stroke-linejoin="round" stroke-width="2"/>
    </g>
    <rect id="사각형_339175" data-name="사각형 339175" width="64" height="64" transform="translate(0 -0.002)" fill="none"/>
    <circle id="타원_8358" data-name="타원 8358" cx="8.239" cy="8.239" r="8.239" transform="translate(23.912 17.967)" fill="none" stroke="#000" stroke-linecap="round" stroke-linejoin="round" stroke-width="2"/>
    <ellipse id="타원_8359" data-name="타원 8359" cx="3.586" cy="8.239" rx="3.586" ry="8.239" transform="translate(28.543 17.967)" fill="none" stroke="#000" stroke-linecap="round" stroke-linejoin="round" stroke-width="2"/>
    <line id="선_491" data-name="선 491" x2="16.347" transform="translate(23.979 26.141)" fill="none" stroke="#000" stroke-linecap="round" stroke-linejoin="round" stroke-width="2"/>
    <rect id="사각형_339758" data-name="사각형 339758" width="19.681" height="19.681" transform="translate(22.557 16.143)" fill="none"/>
  </g>
</svg>
