<svg xmlns="http://www.w3.org/2000/svg" width="64" height="64" viewBox="0 0 64 64"><g transform="translate(-251.97 -91.57)"><line x1="4.84" y2="7.88" transform="translate(265.1 138.53)" fill="none" stroke="#000" stroke-linecap="round" stroke-linejoin="round" stroke-width="2"/><path d="M290.77,137.76c-2.41-.14-5.1-.23-7.83-.23-8.68,0-21.84,1-21.84,1v-32s9.67,1,21.84,1c9.59,0,13-.37,13-.37" fill="none" stroke="#000" stroke-linecap="round" stroke-linejoin="round" stroke-width="2"/><path d="M302.94,121.53" fill="none" stroke="#000" stroke-linecap="round" stroke-linejoin="round" stroke-width="2"/><path d="M302.94,117.53" fill="none" stroke="#000" stroke-linecap="round" stroke-linejoin="round" stroke-width="2"/><path d="M304.94,106.53v2h2" fill="none" stroke="#000" stroke-linecap="round" stroke-linejoin="round" stroke-width="2"/><path d="M290.94,146.53h16V116.7a.169.169,0,0,0-.17-.17H290.94Z" fill="none" stroke="#000" stroke-linecap="round" stroke-linejoin="round" stroke-width="2"/><line x2="3" transform="translate(297.44 143.53)" fill="none" stroke="#000" stroke-linecap="round" stroke-linejoin="round" stroke-width="2"/><rect width="64" height="64" transform="translate(251.97 91.57)" fill="none"/></g></svg>