<svg id="icon" xmlns="http://www.w3.org/2000/svg" width="40" height="40" viewBox="0 0 40 40">
  <rect id="사각형_2722" data-name="사각형 2722" width="40" height="40" fill="none" opacity="0"/>
  <path id="Fill-2" d="M244.822,274.141a7.627,7.627,0,0,1,3.62-6.388,7.846,7.846,0,0,0-6.139-3.324c-2.579-.272-5.087,1.55-6.4,1.55-1.337,0-3.371-1.514-5.548-1.479a8.157,8.157,0,0,0-6.873,4.2c-2.969,5.146-.757,12.717,2.094,16.881,1.431,2.035,3.087,4.318,5.276,4.235,2.129-.083,2.934-1.36,5.5-1.36s3.3,1.36,5.524,1.313c2.295-.035,3.726-2.046,5.11-4.1a16.687,16.687,0,0,0,2.33-4.755,7.378,7.378,0,0,1-4.5-6.766" transform="translate(-215.626 -253.215)" fill="#999"/>
  <path id="Fill-3" d="M420.675,154.267a7.505,7.505,0,0,0,1.715-5.371,7.609,7.609,0,0,0-4.933,2.555,7.2,7.2,0,0,0-1.763,5.169,6.3,6.3,0,0,0,4.98-2.354" transform="translate(-395.678 -145.785)" fill="#999"/>
</svg>
