<svg xmlns="http://www.w3.org/2000/svg" width="17" height="17" viewBox="0 0 17 17">
  <g id="icon_clip" transform="translate(-0.186 0.111)">
    <rect id="사각형_339588" data-name="사각형 339588" width="17" height="17" transform="translate(0.186 -0.111)" fill="none"/>
    <path id="패스_841367" data-name="패스 841367" d="M9875.289-2877.623l4.3-4.666a3.294,3.294,0,0,0,.053-4.681c-2.369-2.279-4.48.213-4.83.58s-5.148,5.536-5.148,5.536-1.822,1.719-.354,3.441c1.1,1.358,2.689.746,3.6-.21s4.113-4.377,4.113-4.377a1.477,1.477,0,0,0,0-1.96,1.256,1.256,0,0,0-2.021,0l-2.709,2.861" transform="translate(-9865.995 2890.661)" fill="none" stroke="#666" stroke-linecap="round" stroke-width="1"/>
  </g>
</svg>
