<svg xmlns="http://www.w3.org/2000/svg" width="55.89" height="56" viewBox="0 0 55.89 56"><g transform="translate(-4.11 -4)"><path d="M58.19,25.4A27,27,0,0,0,32,5l4,5" fill="none" stroke="#000" stroke-linecap="round" stroke-linejoin="round" stroke-width="2"/><path d="M6,39.44A27,27,0,0,0,32,59l-4-5" fill="none" stroke="#000" stroke-linecap="round" stroke-linejoin="round" stroke-width="2"/><path d="M24.11,9.41V31h-19V5H19.7a1.05,1.05,0,0,1,.71.29l3.41,3.42A1,1,0,0,1,24.11,9.41Z" fill="none" stroke="#000" stroke-linecap="round" stroke-linejoin="round" stroke-width="2"/><path d="M20.11,20v7h-11V17h8Z" fill="none" stroke="#000" stroke-linecap="round" stroke-linejoin="round" stroke-width="2"/><line y2="2" transform="translate(13.11 9)" fill="none" stroke="#000" stroke-linecap="round" stroke-linejoin="round" stroke-width="2"/><line y2="2" transform="translate(9.11 9)" fill="none" stroke="#000" stroke-linecap="round" stroke-linejoin="round" stroke-width="2"/><path d="M59,37.41V59H40V33H54.59a1,1,0,0,1,.7.29l3.42,3.42A1,1,0,0,1,59,37.41Z" fill="none" stroke="#000" stroke-linecap="round" stroke-linejoin="round" stroke-width="2"/><path d="M55,48v7H44V45h8Z" fill="none" stroke="#000" stroke-linecap="round" stroke-linejoin="round" stroke-width="2"/><line y2="2" transform="translate(48 37)" fill="none" stroke="#000" stroke-linecap="round" stroke-linejoin="round" stroke-width="2"/><line y2="2" transform="translate(44 37)" fill="none" stroke="#000" stroke-linecap="round" stroke-linejoin="round" stroke-width="2"/></g></svg>