<svg xmlns="http://www.w3.org/2000/svg" width="112.258" height="29" viewBox="0 0 112.258 29"><path d="M157.076,214.232a2.942,2.942,0,0,1-2.746,1.351,3.033,3.033,0,0,1-3.2-2.091,4.766,4.766,0,0,1-.137-.994h1.592a2.594,2.594,0,0,0,.147.668,1.63,1.63,0,0,0,1.628.983c.549,0,1.372-.233,1.372-.911a.817.817,0,0,0-.109-.375c-.181-.365-.849-.624-1.2-.766a10.718,10.718,0,0,1-2.269-1.108,2.2,2.2,0,0,1-.875-1.809c0-1.651,1.434-2.517,2.94-2.517a2.863,2.863,0,0,1,2.7,1.508,3.074,3.074,0,0,1,.256,1.177h-1.592a1.279,1.279,0,0,0-1.4-1.266c-.536,0-1.253.3-1.253.927,0,.606.756.828,1.216,1.009a12.1,12.1,0,0,1,2.381,1.069,2.137,2.137,0,0,1,.885,1.861,2.609,2.609,0,0,1-.329,1.284h0Zm-10.457-5.988v2.018h3.411v1.408h-3.411V214h3.887v1.408h-5.543v-8.579h5.408v1.41Zm-9.943-1.41h1.765l3.486,6.04v-6.04h1.565v8.579h-1.653l-3.595-6.035v6.035h-1.569Zm-3.133,0H135.2v8.579h-1.654Zm-.97,7.171v1.408h-5.422v-8.579h1.69V214Zm-8.167,1.408-1.749-3.282h-1.19v3.282h-1.651v-8.579h2.319a5.944,5.944,0,0,1,2.075.22,2.44,2.44,0,0,1,1.667,2.417,2.472,2.472,0,0,1-1.519,2.381l1.969,3.561H124.4Zm-.875-7.008a3.2,3.2,0,0,0-1.276-.161h-.789v2.479h1.082c.875,0,1.641-.243,1.641-1.276a1.068,1.068,0,0,0-.657-1.043h0Zm-6.854-1.571h1.651v8.579h-1.651Zm-2.587,8.579-.536-1.786h-3.026l-.532,1.786h-1.7l2.9-8.579h1.678l2.918,8.579Zm-2.053-6.692-1.094,3.5h2.2Zm-9.312,6.7-.536-1.786H99.164l-.536,1.786h-1.7l2.9-8.576h1.674l2.918,8.576h-1.7Zm-2.053-6.692-1.094,3.5h2.2ZM89.5,206.842H91.26l3.489,6.037v-6.037h1.566v8.576H94.664l-3.6-6.04v6.04H89.5Zm-2.312,8.576-.536-1.786H83.624l-.533,1.786h-1.7l2.9-8.576H85.97l2.916,8.576h-1.7Zm-2.055-6.692-1.093,3.5h2.2Zm-6.248-1.884h1.654v8.576H78.883Zm-1.46,7.4a2.947,2.947,0,0,1-2.746,1.351,3.044,3.044,0,0,1-3.209-2.091,4.689,4.689,0,0,1-.133-1h1.593a2.576,2.576,0,0,0,.146.673,1.626,1.626,0,0,0,1.626.983c.549,0,1.373-.233,1.373-.911a.837.837,0,0,0-.109-.378c-.182-.367-.85-.621-1.2-.766A10.62,10.62,0,0,1,72.491,211a2.207,2.207,0,0,1-.873-1.809c0-1.656,1.434-2.515,2.939-2.515a2.861,2.861,0,0,1,2.7,1.506,2.987,2.987,0,0,1,.253,1.177h-1.59a1.278,1.278,0,0,0-1.4-1.266c-.533,0-1.251.3-1.251.927,0,.606.753.823,1.214,1.006a12.173,12.173,0,0,1,2.383,1.071,2.124,2.124,0,0,1,.888,1.855,2.619,2.619,0,0,1-.329,1.289h0Zm-8.025,1.18-.532-1.786H65.84l-.536,1.786H63.6l2.9-8.576h1.677l2.915,8.576H69.4Zm-2.051-6.692-1.095,3.5h2.2l-1.1-3.5h0Z" transform="translate(-63.603 -186.589)" fill="#727171"/><path d="M710.769,72.119a2.323,2.323,0,0,0,.163.893,2.561,2.561,0,0,0,3.545,1.418c.4-.162,11.594-4.672,11.594-4.672s-4.4,11.176-4.57,11.591a2.6,2.6,0,0,0,1.439,3.539,2.46,2.46,0,0,0,.89.155,2.624,2.624,0,0,0,2.479-1.9c.067-.192,5.58-15.325,5.7-15.69a4.332,4.332,0,0,0,.2-1.071,2.744,2.744,0,0,0-2.782-2.785,3.374,3.374,0,0,0-1.09.2c-.266.085-14.474,5.375-15.693,5.828a2.664,2.664,0,0,0-1.882,2.488h0Z" transform="translate(-619.957 -63.6)" fill="#e60013"/></svg>