<svg xmlns="http://www.w3.org/2000/svg" width="24" height="24" viewBox="0 0 24 24">
  <g id="그룹_456324" data-name="그룹 456324" transform="translate(-77 -27)">
    <g id="Media_Person_Picture__Elements_Avatar_24px" data-name="Media / Person Picture / _Elements / Avatar 24px" transform="translate(77 27)">
      <g id="Default">
        <circle id="Circle" cx="12" cy="12" r="12" fill="rgba(0,0,0,0.6)"/>
        <g id="_12px_12px_footprint" data-name="12px / 12px footprint" transform="translate(6 6)">
          <rect id="Footprint" width="12" height="12" fill="rgba(0,0,0,0)"/>
        </g>
      </g>
    </g>
    <g id="다각형_3" data-name="다각형 3" transform="translate(94 34) rotate(90)" fill="#fff">
      <path d="M 8.19575023651123 7.500004768371582 L 1.804250001907349 7.500004768371582 C 1.538409948348999 7.500004768371582 1.409860014915466 7.319844722747803 1.36693000793457 7.242384433746338 C 1.324000000953674 7.164924621582031 1.239349961280823 6.960434436798096 1.380249977111816 6.735004425048828 L 4.576000213623047 1.621794581413269 C 4.708559989929199 1.409694671630859 4.916679859161377 1.386794567108154 5 1.386794567108154 C 5.083320140838623 1.386794567108154 5.291440010070801 1.409694671630859 5.423999786376953 1.621794581413269 L 8.619750022888184 6.735004425048828 C 8.760649681091309 6.960434436798096 8.675999641418457 7.164924621582031 8.63306999206543 7.242384433746338 C 8.590140342712402 7.319844722747803 8.461589813232422 7.500004768371582 8.19575023651123 7.500004768371582 Z" stroke="none"/>
      <path d="M 4.999855518341064 1.887025356292725 L 1.80424976348877 7.000004768371582 L 8.19575023651123 7.000004768371582 L 4.999855518341064 1.887025356292725 M 5 0.8867921829223633 C 5.326082706451416 0.8867921829223633 5.652164936065674 1.043459415435791 5.848000049591064 1.356794834136963 L 9.043749809265137 6.470004558563232 C 9.460029602050781 7.136044502258301 8.981189727783203 8.000004768371582 8.19575023651123 8.000004768371582 L 1.80424976348877 8.000004768371582 C 1.018810272216797 8.000004768371582 0.5399703979492188 7.136044502258301 0.9562501907348633 6.470004558563232 L 4.151999950408936 1.356794834136963 C 4.347835063934326 1.043459415435791 4.673917293548584 0.8867921829223633 5 0.8867921829223633 Z" stroke="none" fill="#fff"/>
    </g>
  </g>
</svg>
