<svg xmlns="http://www.w3.org/2000/svg" width="80" height="80" viewBox="0 0 80 80"><g transform="translate(-21 -92.535)"><circle cx="40" cy="40" r="40" transform="translate(21 92.535)" fill="none"/><g transform="translate(-51.949 41.499)"><g transform="translate(89.505 68.032)"><path d="M139.7,105.217h2a6.5,6.5,0,1,0,.12-13H139.7" transform="translate(-101.255 -74.668)" fill="none" stroke="#000" stroke-linecap="round" stroke-linejoin="round" stroke-width="2"/><path d="M120.278,71.208a15.008,15.008,0,0,0-20.192,14.08v15.551h-2a6.5,6.5,0,0,1,0-13h2" transform="translate(-91.644 -70.281)" fill="none" stroke="#000" stroke-linecap="round" stroke-linejoin="round" stroke-width="2"/><path d="M137.075,89.036v19.613a9.506,9.506,0,0,1-9.5,9.507h-.991" transform="translate(-98.631 -74.032)" fill="none" stroke="#000" stroke-linecap="round" stroke-linejoin="round" stroke-width="2"/><rect width="9" height="4" rx="0.533" transform="translate(18.956 42.021)" fill="none" stroke="#000" stroke-linecap="round" stroke-linejoin="round" stroke-width="2"/><path d="M44.074-76.725v2h2" transform="translate(-7.482 80.808)" fill="none" stroke="#000" stroke-linecap="round" stroke-linejoin="round" stroke-width="2"/></g><rect width="64" height="64" transform="translate(80.949 59.036)" fill="none"/></g></g></svg>