<svg xmlns="http://www.w3.org/2000/svg" width="64" height="64" viewBox="0 0 64 64">
  <g id="그룹_457509" data-name="그룹 457509" transform="translate(-0.088 -0.008)">
    <g id="그룹_457508" data-name="그룹 457508">
      <rect id="사각형_339256" data-name="사각형 339256" width="64" height="64" transform="translate(0.088 0.008)" fill="none"/>
    </g>
    <g id="그룹_458938" data-name="그룹 458938">
      <path id="패스_842151" data-name="패스 842151" d="M17.944,47.178a4.653,4.653,0,0,1,3.045.9,3.174,3.174,0,0,1,1.091,2.6v.3a3.145,3.145,0,0,1-2.236,3.22l2.323,4.365a.747.747,0,0,1,.079.65.834.834,0,0,1-.431.458,1.255,1.255,0,0,1-.669.088.673.673,0,0,1-.492-.406l-2.5-4.874a1.235,1.235,0,0,1-.291.038h-2.63v4.52a.622.622,0,0,1-.273.566,1.122,1.122,0,0,1-.625.177,1.087,1.087,0,0,1-.616-.177.633.633,0,0,1-.264-.566V48.48a1.4,1.4,0,0,1,.29-1.018,1.536,1.536,0,0,1,1.066-.283Zm-.37,5.845a3.359,3.359,0,0,0,2.113-.527,1.854,1.854,0,0,0,.65-1.53v-.243a1.845,1.845,0,0,0-.633-1.53,3.1,3.1,0,0,0-1.953-.512H15.234v4.342Z" stroke="#000" stroke-miterlimit="10" stroke-width="0.3"/>
      <path id="패스_842152" data-name="패스 842152" d="M28.5,50.236a4.693,4.693,0,0,1,1.664.283,3.554,3.554,0,0,1,1.284.82,3.6,3.6,0,0,1,.827,1.309,4.982,4.982,0,0,1,.29,1.761v.035a1.278,1.278,0,0,1-.283.943,1.371,1.371,0,0,1-.968.273H26v.069a2.7,2.7,0,0,0,.668,1.955,2.581,2.581,0,0,0,1.936.686,6.106,6.106,0,0,0,1.382-.14,4.994,4.994,0,0,0,1.152-.441.737.737,0,0,1,.554-.06.647.647,0,0,1,.4.377.842.842,0,0,1,.07.573.635.635,0,0,1-.334.413,5.8,5.8,0,0,1-1.435.547,8.1,8.1,0,0,1-1.856.189,4.229,4.229,0,0,1-3.112-1.12,4.555,4.555,0,0,1-1.131-3.37v-.6a4.581,4.581,0,0,1,1.131-3.37A4.155,4.155,0,0,1,28.5,50.236ZM28.466,51.7a2.382,2.382,0,0,0-1.83.677A2.612,2.612,0,0,0,26,54.23v.106h4.9v-.16a2.614,2.614,0,0,0-.6-1.811,2.33,2.33,0,0,0-1.833-.668Z" stroke="#000" stroke-miterlimit="10" stroke-width="0.3"/>
      <path id="패스_842153" data-name="패스 842153" d="M39.5,50.236a3.31,3.31,0,0,1,2.463.889,3.46,3.46,0,0,1,.881,2.545v5.387a.609.609,0,0,1-.264.544,1.1,1.1,0,0,1-1.2,0,.611.611,0,0,1-.264-.544V54.074a2.37,2.37,0,0,0-.554-1.792,2.188,2.188,0,0,0-1.557-.519,2.471,2.471,0,0,0-.907.167,2.392,2.392,0,0,0-.754.466,2.209,2.209,0,0,0-.518.732,2.37,2.37,0,0,0-.194.976v4.953a.6.6,0,0,1-.264.544,1.083,1.083,0,0,1-.616.178,1.05,1.05,0,0,1-.6-.178.609.609,0,0,1-.264-.544V51.063a.6.6,0,0,1,.255-.538,1.062,1.062,0,0,1,1.144,0,.6.6,0,0,1,.256.538v.616h.035a2.582,2.582,0,0,1,1.125-1.03A3.83,3.83,0,0,1,39.5,50.236Z" stroke="#000" stroke-miterlimit="10" stroke-width="0.3"/>
      <path id="패스_842154" data-name="패스 842154" d="M47.048,47.9a1.092,1.092,0,0,1,.616.177.624.624,0,0,1,.264.565v1.814h2.041a.508.508,0,0,1,.449.21.855.855,0,0,1,.15.512.821.821,0,0,1-.15.5.517.517,0,0,1-.449.2H47.931v5.034a1.9,1.9,0,0,0,.247,1.116.974.974,0,0,0,.826.326,2.466,2.466,0,0,0,.863-.159.622.622,0,0,1,.472.01.631.631,0,0,1,.334.43.767.767,0,0,1,.009.546.671.671,0,0,1-.36.369,3.439,3.439,0,0,1-1.443.282,2.688,2.688,0,0,1-2.059-.686,3.244,3.244,0,0,1-.634-2.235V51.872H45.131a.52.52,0,0,1-.45-.2.834.834,0,0,1-.15-.5.876.876,0,0,1,.15-.512.516.516,0,0,1,.45-.209h1.055V48.635a.629.629,0,0,1,.264-.566A1.06,1.06,0,0,1,47.048,47.9Z" stroke="#000" stroke-miterlimit="10" stroke-width="0.3"/>
    </g>
    <g id="그룹_458939" data-name="그룹 458939">
      <path id="패스_841464" data-name="패스 841464" d="M40.856,5.067V7.062h2" fill="none" stroke="#000" stroke-linecap="round" stroke-linejoin="round" stroke-width="2"/>
      <g id="그룹_457498" data-name="그룹 457498">
        <path id="사각형_339246" data-name="사각형 339246" d="M42.852,15.667V43.235H25.305a3.942,3.942,0,0,1-3.942-3.942V5.1H32.106" fill="#fff" stroke="#000" stroke-linecap="round" stroke-linejoin="round" stroke-width="2"/>
        <line id="선_20" data-name="선 20" x2="3.839" transform="translate(30.189 39.239)" fill="none" stroke="#000" stroke-linecap="round" stroke-miterlimit="10" stroke-width="2"/>
      </g>
    </g>
    <circle id="Ellipse_207" data-name="Ellipse 207" cx="8.531" cy="8.531" r="8.531" transform="translate(37.814 27.853)" fill="#fff" stroke="#000" stroke-miterlimit="10" stroke-width="2"/>
    <path id="패스_70043" data-name="패스 70043" d="M42.235,37.021l2.314,2.315,5.9-5.9" fill="#fff" stroke="#000" stroke-linecap="round" stroke-miterlimit="10" stroke-width="2"/>
  </g>
</svg>
