<svg xmlns="http://www.w3.org/2000/svg" width="21.673" height="20.445" viewBox="0 0 21.673 20.445">
  <g id="그룹_3935" data-name="그룹 3935" transform="translate(0.141)">
    <g id="Ellipse_1" data-name="Ellipse 1" transform="translate(-661.145 -50.345)" fill="none">
      <path d="M663.557,52.912a8.683,8.683,0,0,1,12.328,0,8.8,8.8,0,0,1,0,12.4,8.683,8.683,0,0,1-12.328,0A8.8,8.8,0,0,1,663.557,52.912Z" stroke="none"/>
      <path d="M 669.7217407226562 52.3448486328125 C 667.929443359375 52.3448486328125 666.2439575195312 53.04721832275391 664.9755859375 54.3227424621582 C 662.3497314453125 56.96289825439453 662.3497314453125 61.25879669189453 664.9756469726562 63.8990592956543 C 666.2439575195312 65.17448425292969 667.929443359375 65.87684631347656 669.7217407226562 65.87684631347656 C 671.513916015625 65.87684631347656 673.1994018554688 65.17448425292969 674.4677124023438 63.89900588989258 C 677.0934448242188 61.25879669189453 677.0934448242188 56.96284866333008 674.4676513671875 54.32263565063477 C 673.1994018554688 53.04721832275391 671.513916015625 52.3448486328125 669.7217407226562 52.3448486328125 M 669.7217407226562 50.3448486328125 C 671.9527587890625 50.3448486328125 674.1837158203125 51.20069122314453 675.8858032226562 52.91237640380859 C 679.2901611328125 56.33542633056641 679.2901611328125 61.88621520996094 675.8858032226562 65.309326171875 C 672.4816284179688 68.73268127441406 666.9619140625 68.73268127441406 663.5574951171875 65.309326171875 C 660.1530151367188 61.88621520996094 660.1530151367188 56.33542633056641 663.5574951171875 52.91237640380859 C 665.2597045898438 51.20069122314453 667.49072265625 50.3448486328125 669.7217407226562 50.3448486328125 Z" stroke="none" fill="#ccc"/>
    </g>
    <line id="Shape_3" data-name="Shape 3" x2="4.886" y2="4.886" transform="translate(15.232 14.145)" fill="none" stroke="#ccc" stroke-linecap="round" stroke-linejoin="round" stroke-width="2"/>
  </g>
</svg>
