<svg xmlns="http://www.w3.org/2000/svg" width="64" height="64" viewBox="0 0 64 64"><g transform="translate(-38.889 -525.593)"><rect width="64" height="64" transform="translate(38.889 525.593)" fill="none"/><path d="M52.831,545.122v-6.865a9.668,9.668,0,0,1,19.336,0" fill="none" stroke="#000" stroke-linecap="round" stroke-miterlimit="10" stroke-width="2"/><circle cx="3.876" cy="3.876" r="3.876" transform="translate(58.867 555.687)" fill="none" stroke="#000" stroke-linecap="round" stroke-miterlimit="10" stroke-width="2"/><line y2="7.056" transform="translate(62.743 564.506)" fill="none" stroke="#000" stroke-linecap="round" stroke-miterlimit="10" stroke-width="2"/><line y2="6.186" transform="translate(86.444 569.577)" fill="none" stroke="#000" stroke-linecap="round" stroke-miterlimit="10" stroke-width="2"/><line y2="0.689" transform="translate(86.444 579.992)" fill="none" stroke="#000" stroke-linecap="round" stroke-miterlimit="10" stroke-width="2"/><g transform="translate(-1.567 -1.372)" fill="none" stroke-linecap="round" stroke-linejoin="round"><path d="M87.043,561.385l-14.436,25a1.117,1.117,0,0,0,.967,1.676h28.873a1.117,1.117,0,0,0,.967-1.676l-14.437-25A1.117,1.117,0,0,0,87.043,561.385Z" stroke="none"/><path d="M 88.01087951660156 563.7095336914063 L 75.10379791259766 586.0657958984375 L 100.9189453125 586.0657958984375 L 88.01087951660156 563.7095336914063 M 88.01126861572266 560.8264770507813 C 88.38754272460938 560.8264770507813 88.76368713378906 561.0127563476563 88.97830963134766 561.38525390625 L 103.4155426025391 586.3899536132813 C 103.8458938598633 587.135009765625 103.3076858520508 588.0657958984375 102.4481048583984 588.0657958984375 L 73.57470703125 588.0657958984375 C 72.71512603759766 588.0657958984375 72.17690277099609 587.135009765625 72.60726928710938 586.3899536132813 L 87.04339599609375 561.38525390625 C 87.25856781005859 561.0127563476563 87.63498687744141 560.8264770507813 88.01126861572266 560.8264770507813 Z" stroke="none" fill="#000"/></g><path d="M74.376,580H44.627a.948.948,0,0,1-.884-1V547a.948.948,0,0,1,.884-1H80.86a.947.947,0,0,1,.883,1v20.964" fill="none" stroke="#000" stroke-linecap="round" stroke-linejoin="round" stroke-width="2"/></g></svg>