<svg xmlns="http://www.w3.org/2000/svg" width="80" height="80" viewBox="0 0 80 80">
  <g id="그룹_458460" data-name="그룹 458460" transform="translate(342 -1254)">
    <g id="그룹_493" data-name="그룹 493" transform="translate(-327.099 1275.536)">
      <path id="패스_613" data-name="패스 613" d="M-293.445,1281.194a29.478,29.478,0,0,1,3.917,15.5" transform="translate(339.59 -1268.729)" fill="none" stroke="#000" stroke-linecap="round" stroke-linejoin="round" stroke-width="2"/>
      <path id="패스_614" data-name="패스 614" d="M-330.048,1299.269c0-15.442,9.769-27.984,25.031-27.962a25.611,25.611,0,0,1,3.906.3" transform="translate(330.048 -1271.307)" fill="none" stroke="#000" stroke-linecap="round" stroke-linejoin="round" stroke-width="2"/>
    </g>
    <path id="패스_615" data-name="패스 615" d="M-329.548,1293.543a4.654,4.654,0,0,0-4.616,4.661c.083,2.536,1.923,4.534,4.11,4.463l52.325.242c2.188-.071,3.893-2.185,3.81-4.721a4.557,4.557,0,0,0-4.745-4.554" transform="translate(2.042 9.83)" fill="none" stroke="#000" stroke-linecap="round" stroke-linejoin="round" stroke-width="2"/>
    <path id="패스_616" data-name="패스 616" d="M-328.81,1288.387" transform="translate(3.369 8.597)" fill="none" stroke="#000" stroke-linecap="round" stroke-linejoin="round" stroke-width="2"/>
    <line id="선_312" data-name="선 312" x1="12.34" transform="translate(-325.372 1298.045)" fill="none" stroke="#000" stroke-linecap="round" stroke-linejoin="round" stroke-width="2"/>
    <line id="선_313" data-name="선 313" x1="14.623" transform="translate(-327.368 1303.477)" fill="none" stroke="#000" stroke-linecap="round" stroke-linejoin="round" stroke-width="2"/>
    <line id="선_314" data-name="선 314" x1="12.34" transform="translate(-290.808 1298.003)" fill="none" stroke="#000" stroke-linecap="round" stroke-linejoin="round" stroke-width="2"/>
    <line id="선_315" data-name="선 315" x1="12.981" transform="translate(-290.451 1303.434)" fill="none" stroke="#000" stroke-linecap="round" stroke-linejoin="round" stroke-width="2"/>
    <line id="선_316" data-name="선 316" y1="7.143" transform="translate(-301.88 1296.274)" fill="none" stroke="#000" stroke-linecap="round" stroke-linejoin="round" stroke-width="2"/>
    <line id="선_317" data-name="선 317" x2="7.191" transform="translate(-305.356 1300.008)" fill="none" stroke="#000" stroke-linecap="round" stroke-linejoin="round" stroke-width="2"/>
    <rect id="사각형_309" data-name="사각형 309" width="80" height="80" transform="translate(-342 1254)" fill="none"/>
    <g id="그룹_494" data-name="그룹 494" transform="translate(-298.242 1268.434)">
      <path id="패스_617" data-name="패스 617" d="M-286.719,1275.78c.061,8.688-9.826,15.658-10.185,15.538-.343-.115-9.886-6.132-10.186-15.538a10.076,10.076,0,0,1,10.186-10.186" transform="translate(307.096 -1265.594)" fill="none" stroke="#000" stroke-linecap="round" stroke-linejoin="round" stroke-width="2"/>
      <circle id="타원_97" data-name="타원 97" cx="3.715" cy="3.715" r="3.715" transform="translate(6.474 6.73)" fill="none" stroke="#000" stroke-linecap="round" stroke-linejoin="round" stroke-width="2"/>
    </g>
  </g>
</svg>
