<svg id="그룹_460314" data-name="그룹 460314" xmlns="http://www.w3.org/2000/svg" width="104" height="104" viewBox="0 0 104 104">
  <g id="그룹_456847" data-name="그룹 456847">
    <circle id="타원_8364" data-name="타원 8364" cx="52" cy="52" r="52" fill="#f8f8f8"/>
    <g id="그룹_458936" data-name="그룹 458936" transform="translate(11.956 12.008)">
      <g id="그룹_458934" data-name="그룹 458934" transform="translate(10.905 11.516)">
        <g id="그룹_459039" data-name="그룹 459039">
          <path id="패스_842064" data-name="패스 842064" d="M57.461,21.314V42.465A8.408,8.408,0,0,1,52.1,50.559c-.515.2-4.624.184-5.18.276" transform="translate(0.813 -6.185)" fill="none" stroke="#000" stroke-linecap="round" stroke-miterlimit="10" stroke-width="3"/>
          <path id="패스_842065" data-name="패스 842065" d="M41.809,54.285H17.519A8.787,8.787,0,0,1,8.733,45.5h0V18a8.786,8.786,0,0,1,8.786-8.786H51.687" transform="translate(-8.733 -9.211)" fill="none" stroke="#000" stroke-linecap="round" stroke-miterlimit="10" stroke-width="3"/>
          <path id="패스_842066" data-name="패스 842066" d="M35.194,45.311l14.46,11.88.194-12.084" transform="translate(-2.118 -0.237)" fill="none" stroke="#000" stroke-linecap="round" stroke-linejoin="round" stroke-width="3"/>
          <path id="패스_840980" data-name="패스 840980" d="M55.964,12.278H52.9V9.213" transform="translate(2.309 -9.211)" fill="none" stroke="#000" stroke-linecap="round" stroke-linejoin="round" stroke-width="3"/>
        </g>
        <path id="패스_69836" data-name="패스 69836" d="M26.013,20.584a.637.637,0,0,1,.575.271,1.218,1.218,0,0,1-.006,1.256.637.637,0,0,1-.575.271H19.432v4.842h6.16a.613.613,0,0,1,.554.27,1.126,1.126,0,0,1,.177.627,1.078,1.078,0,0,1-.177.616.624.624,0,0,1-.554.261H19.433v5.654a.736.736,0,0,1-.322.669,1.353,1.353,0,0,1-.741.209,1.294,1.294,0,0,1-.731-.209.746.746,0,0,1-.312-.669V22.131a1.672,1.672,0,0,1,.35-1.211,1.826,1.826,0,0,1,1.262-.334Zm7.786-.1a1.4,1.4,0,0,1,.741.2,1.427,1.427,0,0,1,.532.741l4.947,12.754a.97.97,0,0,1-.011.8.932.932,0,0,1-.574.467,1.565,1.565,0,0,1-.817.031.857.857,0,0,1-.584-.616L36.66,31.127H30.877l-1.419,3.8a.8.8,0,0,1-.532.575,1.333,1.333,0,0,1-.784-.054A1,1,0,0,1,27.577,35a.9.9,0,0,1,0-.762l4.967-12.817a1.468,1.468,0,0,1,.521-.741,1.343,1.343,0,0,1,.734-.2Zm-.02,2.569q-.21.688-.419,1.3t-.5,1.409L31.5,29.373h4.53L34.7,25.762c-.195-.529-.365-1.01-.511-1.44s-.283-.856-.406-1.274Zm14.132-2.694a5.911,5.911,0,0,1,4.6,1.751,7.829,7.829,0,0,1,1.6,5.406V28.5a11.141,11.141,0,0,1-.365,3.027,6.187,6.187,0,0,1-1.05,2.171l1.31,1.315a.64.64,0,0,1,.234.575.932.932,0,0,1-.312.574,1.022,1.022,0,0,1-.564.3.649.649,0,0,1-.584-.22l-1.424-1.419a6.484,6.484,0,0,1-3.445.835,5.913,5.913,0,0,1-4.6-1.751,7.83,7.83,0,0,1-1.6-5.409v-.982a7.829,7.829,0,0,1,1.6-5.406,5.908,5.908,0,0,1,4.6-1.752Zm0,1.9a3.707,3.707,0,0,0-3.079,1.262,6.715,6.715,0,0,0-1.013,4.165v.646a6.667,6.667,0,0,0,1.013,4.155,3.724,3.724,0,0,0,3.077,1.256,3.845,3.845,0,0,0,1.92-.418l-1.5-1.529a.651.651,0,0,1-.219-.584,1.108,1.108,0,0,1,.866-.866.651.651,0,0,1,.584.219l1.627,1.629A7.486,7.486,0,0,0,52,28.329v-.646a6.715,6.715,0,0,0-1.012-4.165,3.7,3.7,0,0,0-3.081-1.264Z" transform="translate(-6.587 -6.428)" stroke="#000" stroke-miterlimit="10" stroke-width="1"/>
      </g>
      <g id="그룹_458935" data-name="그룹 458935" transform="translate(0.044 -0.008)">
        <rect id="area_64x64" data-name="area 64x64" width="80" height="80" transform="translate(0 0)" fill="none"/>
        <path id="패스_842150" data-name="패스 842150" d="M52.239,17.048" transform="translate(13.005 4.271)" fill="#be1e2d"/>
      </g>
    </g>
  </g>
</svg>
