<svg xmlns="http://www.w3.org/2000/svg" width="80" height="80" viewBox="0 0 80 80">
  <g id="그룹_458468" data-name="그룹 458468" transform="translate(228 -570)">
    <g id="_14" data-name="14" transform="translate(-277 593)">
      <rect id="사각형_180" data-name="사각형 180" width="80" height="80" transform="translate(49 -23)" fill="none"/>
      <g id="그룹_458474" data-name="그룹 458474" transform="translate(-72.5 40.87)">
        <g id="그룹_458472" data-name="그룹 458472" transform="translate(132.5 -45.87)">
          <path id="패스_37" data-name="패스 37" d="M636.045,25.531V44.77c0,3.758-3.331,6.8-7.441,6.8H579V13.13h44.644" transform="translate(-579 -13.13)" fill="none" stroke="#000" stroke-linecap="round" stroke-linejoin="round" stroke-width="2"/>
          <path id="패스_38" data-name="패스 38" d="M623,13.13v2.48h2.48" transform="translate(-568.435 -13.13)" fill="none" stroke="#000" stroke-linecap="round" stroke-linejoin="round" stroke-width="2"/>
          <path id="패스_39" data-name="패스 39" d="M590,50.032l14.918-5.9h-.037l14.881,5.9" transform="translate(-576.359 -5.686)" fill="none" stroke="#000" stroke-linecap="round" stroke-linejoin="round" stroke-width="2"/>
        </g>
        <g id="그룹_458473" data-name="그룹 458473" transform="translate(147.609 -32.947)">
          <path id="패스_40" data-name="패스 40" d="M591.979,25.354a.964.964,0,0,1,.557.16.586.586,0,0,1,.236.521v4.551a4.767,4.767,0,0,0,.112,1.11,1.829,1.829,0,0,0,.342.733,1.247,1.247,0,0,0,.588.4,3.05,3.05,0,0,0,1.688,0,1.247,1.247,0,0,0,.588-.4,1.845,1.845,0,0,0,.342-.733,4.773,4.773,0,0,0,.11-1.11V26.035a.586.586,0,0,1,.237-.521,1.051,1.051,0,0,1,1.115,0,.586.586,0,0,1,.237.521v4.528A6.2,6.2,0,0,1,597.9,32.4a2.81,2.81,0,0,1-.67,1.172,2.472,2.472,0,0,1-1.085.625,6.041,6.041,0,0,1-2.975,0,2.472,2.472,0,0,1-1.085-.625,2.8,2.8,0,0,1-.67-1.172,6.2,6.2,0,0,1-.231-1.835V26.035a.586.586,0,0,1,.237-.521A.966.966,0,0,1,591.979,25.354Z" transform="translate(-591.184 -23.118)"/>
          <path id="패스_41" data-name="패스 41" d="M600.215,23.551a.649.649,0,0,1,.362.108.37.37,0,0,1,.165.334v1.523h1.531a.346.346,0,0,1,.305.14.578.578,0,0,1,.1.339.6.6,0,0,1-.1.344.343.343,0,0,1-.305.145h-1.531v1.664a.37.37,0,0,1-.165.334.662.662,0,0,1-.724,0,.372.372,0,0,1-.164-.334V26.483h-1.532a.344.344,0,0,1-.306-.145.6.6,0,0,1-.1-.344.578.578,0,0,1,.1-.339.347.347,0,0,1,.306-.14h1.532V23.992a.372.372,0,0,1,.164-.334A.649.649,0,0,1,600.215,23.551Z" transform="translate(-589.607 -23.551)"/>
          <path id="패스_42" data-name="패스 42" d="M605.619,25.744a.939.939,0,0,1,.544.161.571.571,0,0,1,.237.508v1.152h1.3a.464.464,0,0,1,.415.193.773.773,0,0,1,.13.451.781.781,0,0,1-.13.454.465.465,0,0,1-.415.191h-1.3v3.275c0,.528.2.794.606.794a1.737,1.737,0,0,0,.57-.1.544.544,0,0,1,.4.025.585.585,0,0,1,.3.384.717.717,0,0,1,.006.482.546.546,0,0,1-.316.324,2.455,2.455,0,0,1-.508.155,3.114,3.114,0,0,1-.582.056,1.956,1.956,0,0,1-1.57-.552,2.5,2.5,0,0,1-.465-1.644v-3.2h-.62a.466.466,0,0,1-.415-.191.8.8,0,0,1-.13-.454.792.792,0,0,1,.13-.451.465.465,0,0,1,.415-.193h.62V26.414a.57.57,0,0,1,.236-.508A.943.943,0,0,1,605.619,25.744Z" transform="translate(-588.186 -23.024)"/>
          <path id="패스_43" data-name="패스 43" d="M608.365,27.225a1.27,1.27,0,0,1,.3-.061.848.848,0,0,1,.291.025.609.609,0,0,1,.254.135.671.671,0,0,1,.175.285l1.561,4.6h.012l1.563-4.6a.664.664,0,0,1,.169-.285.553.553,0,0,1,.241-.135.807.807,0,0,1,.285-.025,1.257,1.257,0,0,1,.3.061.778.778,0,0,1,.428.341.625.625,0,0,1,.006.578l-1.873,4.911a1.225,1.225,0,0,1-.49.656,1.355,1.355,0,0,1-1.327,0,1.224,1.224,0,0,1-.49-.656l-1.873-4.911a.591.591,0,0,1,.025-.578A.868.868,0,0,1,608.365,27.225Z" transform="translate(-587.187 -22.684)"/>
        </g>
      </g>
    </g>
  </g>
</svg>
