<svg xmlns="http://www.w3.org/2000/svg" width="96" height="96" viewBox="0 0 96 96">
  <g id="icon_64" transform="translate(-493 -964.75)">
    <rect id="area" width="96" height="96" transform="translate(493 964.75)" fill="#fa4848" opacity="0"/>
    <g id="그룹_425087" data-name="그룹 425087" transform="translate(-1130.603 294.988)">
      <path id="패스_840937" data-name="패스 840937" d="M1664.664,714.3v7.275c0,3.83,5.373,6.935,12,6.935s12-3.105,12-6.935V714.3" transform="translate(21.939 22.322)" fill="#f9f9f9" stroke="#000" stroke-linejoin="round" stroke-width="2"/>
      <path id="패스_840938" data-name="패스 840938" d="M1664.664,719.948v7.275c0,3.831,5.373,6.936,12,6.936s12-3.105,12-6.936v-7.275" transform="translate(21.939 22.603)" fill="rgba(0,0,0,0)" stroke="#000" stroke-linejoin="round" stroke-width="2"/>
      <path id="패스_840939" data-name="패스 840939" d="M1664.664,708.651v7.275c0,3.831,5.373,6.936,12,6.936s12-3.105,12-6.936v-7.275" transform="translate(21.939 22.04)" fill="#fff" stroke="#000" stroke-linejoin="round" stroke-width="2"/>
      <g id="타원_158" data-name="타원 158" transform="translate(1686.603 724.762)">
        <ellipse id="타원_8340" data-name="타원 8340" cx="12" cy="6.936" rx="12" ry="6.936" fill="#fff" stroke="#000" stroke-linejoin="round" stroke-width="2"/>
      </g>
    </g>
    <path id="패스_70010" data-name="패스 70010" d="M183.124,742.278H137.6a1.456,1.456,0,0,1-1.456-1.455V682.6a1.455,1.455,0,0,1,1.456-1.456H207.46a1.454,1.454,0,0,1,1.456,1.456v39.3" transform="translate(367.86 294.765)" fill="none" stroke="#000" stroke-linecap="round" stroke-miterlimit="10" stroke-width="2"/>
    <line id="선_443" data-name="선 443" y2="7" transform="translate(516 972.75)" fill="none" stroke="#000" stroke-linecap="round" stroke-miterlimit="10" stroke-width="2"/>
    <line id="선_444" data-name="선 444" y2="7" transform="translate(565 972.75)" fill="none" stroke="#000" stroke-linecap="round" stroke-miterlimit="10" stroke-width="2"/>
    <line id="선_445-2" data-name="선 445-2" x2="71.5" transform="translate(505 987.75)" fill="none" stroke="#000" stroke-linecap="round" stroke-miterlimit="10" stroke-width="2"/>
    <path id="패스_840951" data-name="패스 840951" d="M.44,0H12.188V-2.42H5.5L9.878-6.688a8.6,8.6,0,0,0,1.54-1.936,4.428,4.428,0,0,0,.594-2.244A4.808,4.808,0,0,0,11.7-12.54a4.926,4.926,0,0,0-.935-1.551,4.518,4.518,0,0,0-1.6-1.144,5.672,5.672,0,0,0-2.31-.429,5.779,5.779,0,0,0-3.014.748,4.966,4.966,0,0,0-1.914,2.035,6.345,6.345,0,0,0-.66,2.937H3.85a3.553,3.553,0,0,1,.825-2.475,2.756,2.756,0,0,1,2.145-.913,2.525,2.525,0,0,1,1.386.352,2.243,2.243,0,0,1,.825.913,2.6,2.6,0,0,1,.275,1.155A3.41,3.41,0,0,1,8.855-9.2,9.4,9.4,0,0,1,7.568-7.5ZM25.52-5.016a5.611,5.611,0,0,0-.627-2.717,4.564,4.564,0,0,0-1.672-1.782,4.425,4.425,0,0,0-2.321-.627,6.283,6.283,0,0,0-1.276.132,4.433,4.433,0,0,0-1.21.44l1.012-3.542h5.962V-15.4h-7.92l-2.09,8.492a7.928,7.928,0,0,1,2.134-.979,7.8,7.8,0,0,1,1.98-.253,3.754,3.754,0,0,1,1.639.352,2.873,2.873,0,0,1,1.177,1.012,2.83,2.83,0,0,1,.44,1.606,2.865,2.865,0,0,1-.847,2.2,3.4,3.4,0,0,1-2.409.792,4.18,4.18,0,0,1-2.167-.638,6.053,6.053,0,0,1-1.749-1.54l-1.518,1.87A8.272,8.272,0,0,0,16.313-.561a6.761,6.761,0,0,0,3.487.8A6.851,6.851,0,0,0,22.594-.33a4.978,4.978,0,0,0,2.112-1.738A5.031,5.031,0,0,0,25.52-5.016ZM34.772-9.8,27.982,0h1.5l6.8-9.8ZM33.96-2.184a1.244,1.244,0,0,1,.294-.826.988.988,0,0,1,.8-.35.988.988,0,0,1,.8.35,1.244,1.244,0,0,1,.294.826,1.217,1.217,0,0,1-.294.819,1,1,0,0,1-.8.343,1,1,0,0,1-.8-.343A1.217,1.217,0,0,1,33.96-2.184Zm-1.288,0a2.413,2.413,0,0,0,.3,1.2,2.288,2.288,0,0,0,.84.861A2.369,2.369,0,0,0,35.052.2a2.369,2.369,0,0,0,1.239-.322,2.288,2.288,0,0,0,.84-.861,2.413,2.413,0,0,0,.3-1.2,2.413,2.413,0,0,0-.3-1.2,2.288,2.288,0,0,0-.84-.861,2.369,2.369,0,0,0-1.239-.322,2.369,2.369,0,0,0-1.239.322,2.288,2.288,0,0,0-.84.861A2.413,2.413,0,0,0,32.672-2.184ZM28.108-7.616a1.217,1.217,0,0,1,.294-.819,1,1,0,0,1,.8-.343,1,1,0,0,1,.8.343,1.217,1.217,0,0,1,.294.819A1.244,1.244,0,0,1,30-6.79a.988.988,0,0,1-.8.35.988.988,0,0,1-.8-.35A1.244,1.244,0,0,1,28.108-7.616Zm-1.288,0a2.413,2.413,0,0,0,.3,1.2,2.288,2.288,0,0,0,.84.861,2.369,2.369,0,0,0,1.239.322,2.369,2.369,0,0,0,1.239-.322,2.341,2.341,0,0,0,.847-.861,2.37,2.37,0,0,0,.308-1.2,2.37,2.37,0,0,0-.308-1.2,2.341,2.341,0,0,0-.847-.861A2.369,2.369,0,0,0,29.2-10a2.369,2.369,0,0,0-1.239.322,2.288,2.288,0,0,0-.84.861A2.413,2.413,0,0,0,26.82-7.616Z" transform="translate(521 1017.75)"/>
  </g>
</svg>
