<svg xmlns="http://www.w3.org/2000/svg" width="80" height="81" viewBox="0 0 80 81">
  <g id="그룹_11" data-name="그룹 11" transform="translate(342 -569.99)">
    <g id="guide" transform="translate(-342 569.99)">
      <rect id="사각형_14" data-name="사각형 14" width="80" height="81" fill="none"/>
    </g>
    <g id="Layer_1" data-name="Layer 1" transform="translate(-335.708 590.735)">
      <line id="선_8" data-name="선 8" x2="24.892" transform="translate(21.262 50.274)" fill="none" stroke="#000" stroke-linecap="round" stroke-miterlimit="10" stroke-width="2"/>
      <g id="그룹_10" data-name="그룹 10">
        <line id="선_9" data-name="선 9" y2="7.588" transform="translate(33.673 42.687)" fill="none" stroke="#000" stroke-linecap="round" stroke-miterlimit="10" stroke-width="2"/>
        <path id="사각형_15" data-name="사각형 15" d="M-282.108,585.577h-53.569a1.268,1.268,0,0,0-1.267,1.262V619.7a7.486,7.486,0,0,0,7.506,7.468h58.572A1.268,1.268,0,0,0-269.6,625.9V598.023" transform="translate(336.945 -585.577)" fill="none" stroke="#000" stroke-linecap="round" stroke-linejoin="round" stroke-width="2"/>
        <line id="선_10" data-name="선 10" x2="67.347" transform="translate(0 20.428)" fill="none" stroke="#000" stroke-linecap="round" stroke-miterlimit="10" stroke-width="2"/>
        <line id="선_11" data-name="선 11" y2="40.848" transform="translate(33.673)" fill="none" stroke="#000" stroke-linecap="round" stroke-miterlimit="10" stroke-width="2"/>
        <g id="그룹_7" data-name="그룹 7" transform="translate(13.155 5.955)">
          <ellipse id="타원_3" data-name="타원 3" cx="2.293" cy="2.258" rx="2.293" ry="2.258" transform="translate(1.505)" fill="none" stroke="#000" stroke-linecap="round" stroke-linejoin="round" stroke-width="2"/>
          <path id="패스_10" data-name="패스 10" d="M-318.84,598.33h-7.6a3.776,3.776,0,0,1,3.916-3.623A3.771,3.771,0,0,1-318.84,598.33Z" transform="translate(326.436 -589.3)" fill="none" stroke="#000" stroke-linecap="round" stroke-linejoin="round" stroke-width="2"/>
        </g>
        <g id="그룹_7-2" data-name="그룹 7" transform="translate(13.155 26.364)">
          <ellipse id="타원_3-2" data-name="타원 3" cx="2.293" cy="2.258" rx="2.293" ry="2.258" transform="translate(1.505)" fill="none" stroke="#000" stroke-linecap="round" stroke-linejoin="round" stroke-width="2"/>
          <path id="패스_10-2" data-name="패스 10" d="M-318.84,614.728h-7.6a3.776,3.776,0,0,1,3.916-3.623A3.771,3.771,0,0,1-318.84,614.728Z" transform="translate(326.436 -605.697)" fill="none" stroke="#000" stroke-linecap="round" stroke-linejoin="round" stroke-width="2"/>
        </g>
        <g id="그룹_7-3" data-name="그룹 7" transform="translate(46.956 26.364)">
          <ellipse id="타원_3-3" data-name="타원 3" cx="2.293" cy="2.258" rx="2.293" ry="2.258" transform="translate(1.504)" fill="none" stroke="#000" stroke-linecap="round" stroke-linejoin="round" stroke-width="2"/>
          <path id="패스_10-3" data-name="패스 10" d="M-291.84,614.728h-7.595a3.775,3.775,0,0,1,3.916-3.623A3.771,3.771,0,0,1-291.84,614.728Z" transform="translate(299.435 -605.697)" fill="none" stroke="#000" stroke-linecap="round" stroke-linejoin="round" stroke-width="2"/>
        </g>
        <path id="패스_13" data-name="패스 13" d="M-290.654,594.451l-3.918,2.23-3.919,2.23V589.99l3.919,2.23Z" transform="translate(346.63 -584.498)" fill="none" stroke="#000" stroke-linecap="round" stroke-linejoin="round" stroke-width="2"/>
      </g>
    </g>
    <path id="패스_841705" data-name="패스 841705" d="M501.086,580.013v2.561h2.561" transform="translate(-769.958 8.837)" fill="none" stroke="#000" stroke-linecap="round" stroke-linejoin="round" stroke-width="2"/>
  </g>
</svg>
