<svg xmlns="http://www.w3.org/2000/svg" width="64" height="64" viewBox="0 0 64 64">
  <g id="그룹_458596" data-name="그룹 458596" transform="translate(-846 -970)">
    <g id="그룹_458943" data-name="그룹 458943" transform="translate(845.614 969.447)">
      <g id="그룹_458292" data-name="그룹 458292">
        <path id="패스_841770" data-name="패스 841770" d="M55.386,44.553H14.8a5.412,5.412,0,0,1-5.411-5.411V13.553h36" fill="none" stroke="#000" stroke-linecap="round" stroke-linejoin="round" stroke-width="2"/>
        <path id="패스_841770-2" data-name="패스 841770" d="M55.386,23.553V44.271" fill="none" stroke="#000" stroke-linecap="round" stroke-linejoin="round" stroke-width="2"/>
        <line id="선_126626" data-name="선 126626" y2="8" transform="translate(32.386 44.553)" fill="none" stroke="#000" stroke-linecap="round" stroke-linejoin="round" stroke-width="2"/>
        <path id="패스_841771" data-name="패스 841771" d="M53.386,13.553v2h2" fill="none" stroke="#000" stroke-linecap="round" stroke-linejoin="round" stroke-width="2"/>
        <path id="패스_841772" data-name="패스 841772" d="M20.386,55.553l12.03-3h-.03l12,3" fill="none" stroke="#000" stroke-linecap="round" stroke-linejoin="round" stroke-width="2"/>
        <g id="그룹_458291" data-name="그룹 458291">
          <circle id="타원_8464" data-name="타원 8464" cx="10" cy="10" r="10" transform="translate(22.386 19.053)" fill="none"/>
          <path id="패스_841773" data-name="패스 841773" d="M26.022,26.689a9,9,0,0,1,12.728,0h0" fill="none" stroke="#000" stroke-linecap="round" stroke-linejoin="round" stroke-width="2"/>
          <path id="패스_841774" data-name="패스 841774" d="M29.2,29.871a4.5,4.5,0,0,1,6.364,0h0" fill="none" stroke="#000" stroke-linecap="round" stroke-linejoin="round" stroke-width="2"/>
          <path id="사각형_339905" data-name="사각형 339905" d="M32.386,33.053Z" fill="none" stroke="#000" stroke-linecap="round" stroke-linejoin="round" stroke-width="2"/>
        </g>
      </g>
      <rect id="사각형_339906" data-name="사각형 339906" width="64" height="64" transform="translate(0.386 0.553)" fill="none"/>
    </g>
  </g>
</svg>
