<svg id="Layer_2" data-name="Layer 2" xmlns="http://www.w3.org/2000/svg" width="80" height="80" viewBox="0 0 80 80">
  <rect id="사각형_2651" data-name="사각형 2651" width="80" height="80" fill="none"/>
  <circle id="타원_204" data-name="타원 204" cx="7.5" cy="7.5" r="7.5" transform="translate(32.5 6.25)" fill="none" stroke="#000" stroke-miterlimit="10" stroke-width="2"/>
  <path id="패스_70033" data-name="패스 70033" d="M21.5,31.5A12.5,12.5,0,0,1,34,19h1.25a12.5,12.5,0,0,1,12.5,12.5" transform="translate(5.375 4.75)" fill="none" stroke="#000" stroke-miterlimit="10" stroke-width="2"/>
  <rect id="사각형_2652" data-name="사각형 2652" width="57.5" height="37.5" transform="translate(11.25 36.25)" fill="none" stroke="#000" stroke-linejoin="round" stroke-width="2"/>
  <g id="U_" data-name="U " transform="translate(32.409 45.775)">
    <g id="그룹_5617" data-name="그룹 5617" transform="translate(0 2.638)">
      <path id="패스_70034" data-name="패스 70034" d="M27.831,52.88a7.125,7.125,0,0,1-1.888-5.325V38.73h3.65v8.75c0,2.825,1.163,4.225,3.513,4.225a3.287,3.287,0,0,0,2.6-1.013,4.812,4.812,0,0,0,.9-3.213V38.73h3.6v8.825a7.162,7.162,0,0,1-1.875,5.325,7.1,7.1,0,0,1-5.25,1.875A7.1,7.1,0,0,1,27.831,52.88Z" transform="translate(-25.927 -38.73)"/>
    </g>
    <g id="그룹_5618" data-name="그룹 5618" transform="translate(15.929)">
      <path id="패스_70035" data-name="패스 70035" d="M46.07,41.033H43.233v2.813h-1.65V41.033H38.67v-1.6h2.913V36.62h1.712v2.813h2.838Z" transform="translate(-38.67 -36.62)"/>
    </g>
  </g>
</svg>
