<svg id="logo" xmlns="http://www.w3.org/2000/svg" width="100" height="24" viewBox="0 0 100 24">
  <rect id="사각형_341001" data-name="사각형 341001" width="100" height="24" fill="#fff" opacity="0"/>
  <path id="패스_70046" data-name="패스 70046" d="M459.913.4h-5.53a.268.268,0,0,0-.275.269v9.406a1.667,1.667,0,0,0,1.683,1.646h0a1.668,1.668,0,0,0,1.683-1.646V2.987h2.37c3.246,0,5.22,1.663,5.22,5.358,0,4.468-2.25,5.829-5.924,5.829h-8.174V.669A.268.268,0,0,0,450.691.4h-2.816a.268.268,0,0,0-.275.269V16.441a.268.268,0,0,0,.275.269H459.26c5.289,0,9.307-2,9.307-8.1C468.585,2.684,465.425.4,459.913.4Z" transform="translate(-369.848 3.841)"/>
  <path id="패스_70047" data-name="패스 70047" d="M238.664-.765H234.8v16.32h11.866V12.4h-8Zm16.5,10.1h3.143v2.857a9.031,9.031,0,0,1-2.782.437c-3.469,0-4.637-1.731-4.637-5.227,0-3.345,1.1-5.311,4.585-5.311a4.512,4.512,0,0,1,3.95,1.731l2.4-2.151C260.353-.378,257.777-1,255.39-1c-5.409,0-8.243,2.874-8.243,8.37,0,5.463,2.559,8.438,8.226,8.438a12.354,12.354,0,0,0,6.508-1.6V6.295h-6.7V9.337Z" transform="translate(-192.697 5)"/>
  <g id="그룹_425139" data-name="그룹 425139" transform="translate(2.999 4.24)">
    <path id="패스_70048" data-name="패스 70048" d="M16.72.4V16.71H14.762V1.962h-.223L9.937,16.71H7.224L2.347,1.962H2.14V16.727H.2V.4H3.772l4.74,14.765h.206L13.217.4Z" transform="translate(-0.2 -0.4)"/>
    <path id="패스_70049" data-name="패스 70049" d="M114.716,9.672V16.71h-1.958V9.672L106.8.4h2.318l4.534,7.357h.206L118.409.4h2.284Z" transform="translate(-88.494 -0.4)"/>
  </g>
</svg>
