<svg xmlns="http://www.w3.org/2000/svg" width="64" height="64" viewBox="0 0 64 64"><rect width="64" height="64" fill="none"/><circle cx="6" cy="6" r="6" transform="translate(26 5)" fill="none" stroke="#000" stroke-miterlimit="10" stroke-width="2"/><path d="M21.5,29a10,10,0,0,1,10-10h1a10,10,0,0,1,10,10" fill="none" stroke="#000" stroke-miterlimit="10" stroke-width="2"/><rect width="46" height="30" transform="translate(9 29)" fill="none" stroke="#000" stroke-linejoin="round" stroke-width="2"/><path d="M27.45,50.05a5.7,5.7,0,0,1-1.51-4.26V38.73h2.92v7c0,2.26.93,3.38,2.81,3.38a2.63,2.63,0,0,0,2.08-.81,3.85,3.85,0,0,0,.72-2.57v-7h2.88v7.06a5.73,5.73,0,0,1-1.5,4.26,5.68,5.68,0,0,1-4.2,1.5,5.68,5.68,0,0,1-4.2-1.5Z"/><path d="M44.59,40.15H42.32V42.4H41V40.15H38.67V38.87H41V36.62h1.37v2.25h2.27Z"/></svg>