<svg xmlns="http://www.w3.org/2000/svg" width="80" height="80" viewBox="0 0 80 80">
  <g id="그룹_457509" data-name="그룹 457509" transform="translate(8.115 8.023)">
    <g id="그룹_457508" data-name="그룹 457508">
      <g id="그룹_457507" data-name="그룹 457507">
        <g id="그룹_457506" data-name="그룹 457506">
          <g id="그룹_457505" data-name="그룹 457505">
            <line id="Line_107-2" data-name="Line 107-2" x2="3.756" transform="translate(30.007 56.026)" fill="none" stroke="#000" stroke-linecap="round" stroke-linejoin="round" stroke-width="2"/>
            <path id="패스_841059" data-name="패스 841059" d="M40.675,61.033H22.5a7.511,7.511,0,0,1-7.511-7.511h0V3.447H36.266" fill="none" stroke="#000" stroke-linecap="round" stroke-linejoin="round" stroke-width="2"/>
            <line id="선_32" data-name="선 32" y2="23.106" transform="translate(48.785 15.965)" fill="none" stroke="#000" stroke-linecap="round" stroke-linejoin="round" stroke-width="2"/>
            <path id="패스_841060" data-name="패스 841060" d="M46.281,3.447v2.5h2.5" fill="none" stroke="#000" stroke-linecap="round" stroke-linejoin="round" stroke-width="2"/>
          </g>
        </g>
      </g>
    </g>
    <path id="패스_842151" data-name="패스 842151" d="M46.763,53.06H57.958" fill="none" stroke="#000" stroke-linecap="round" stroke-miterlimit="10" stroke-width="2"/>
    <path id="패스_842152" data-name="패스 842152" d="M52.361,47.463V58.658" fill="none" stroke="#000" stroke-linecap="round" stroke-miterlimit="10" stroke-width="2"/>
    <circle id="타원_207" data-name="타원 207" cx="13.75" cy="13.75" r="13.75" transform="translate(38.111 38.806)" fill="none" stroke="#000" stroke-miterlimit="10" stroke-width="2"/>
    <rect id="사각형_339256" data-name="사각형 339256" width="80" height="80" transform="translate(-8.115 -8.023)" fill="none"/>
    <g id="present">
      <g id="그룹_456095" data-name="그룹 456095">
        <path id="패스_70064" data-name="패스 70064" d="M27.239,23.048a2.3,2.3,0,0,1,.949-3.107c.027-.015.056-.029.084-.043,2.481-1.064,4.141,3.149,4.141,3.149" fill="none" stroke="#000" stroke-linecap="round" stroke-linejoin="round" stroke-width="2"/>
        <path id="패스_70065" data-name="패스 70065" d="M37.59,23.048a2.3,2.3,0,0,0-.949-3.107l-.085-.043c-2.477-1.064-4.141,3.15-4.141,3.15" fill="none" stroke="#000" stroke-linecap="round" stroke-linejoin="round" stroke-width="2"/>
        <line id="선_456" data-name="선 456" y2="11.96" transform="translate(32.597 22.875)" fill="none" stroke="#000" stroke-width="2"/>
        <rect id="사각형_2530" data-name="사각형 2530" width="13.683" height="11.814" rx="0.912" transform="translate(25.574 23.497)" fill="none" stroke="#000" stroke-linecap="round" stroke-linejoin="round" stroke-width="2"/>
      </g>
    </g>
  </g>
</svg>
