<svg xmlns="http://www.w3.org/2000/svg" width="64" height="64" viewBox="0 0 64 64">
  <g id="icon" transform="translate(-4.198 2.047)">
    <g id="그룹_4272" data-name="그룹 4272">
      <path id="패스_69844" data-name="패스 69844" d="M8.8,13.306,28.9,30.953a3.089,3.089,0,0,0,4.361.187c.065-.06.127-.122.186-.187L53.553,13.3" fill="none" stroke="#000" stroke-miterlimit="10" stroke-width="2"/>
      <path id="패스_69873" data-name="패스 69873" d="M40.178,45.953H12.13A4.934,4.934,0,0,1,7.2,41.02V13.953a1,1,0,0,1,1-1h46a1,1,0,0,1,1,1V29.19" fill="none" stroke="#000" stroke-miterlimit="10" stroke-width="2"/>
      <rect id="사각형_2600" data-name="사각형 2600" width="64" height="64" transform="translate(4.198 -2.047)" fill="none"/>
      <circle id="타원_211" data-name="타원 211" cx="11.72" cy="11.72" r="11.72" transform="translate(38.398 28.031)" fill="none" stroke="#000" stroke-miterlimit="10" stroke-width="2"/>
      <line id="선_20" data-name="선 20" x2="6.989" y2="6.989" transform="translate(59.11 48.743)" fill="none" stroke="#000" stroke-linecap="round" stroke-miterlimit="10" stroke-width="2"/>
    </g>
  </g>
</svg>
