<svg xmlns="http://www.w3.org/2000/svg" width="41.654" height="37.838" viewBox="0 0 41.654 37.838">
  <g id="icon" transform="translate(10.013 6.251)">
    <g id="그룹_457843" data-name="그룹 457843" transform="translate(-4.557 -1.727)">
      <path id="패스_841504" data-name="패스 841504" d="M32.966,8.754v15.2a5.655,5.655,0,0,1-5.658,5.656h-2.34v0l-22.2,0a5.654,5.654,0,0,1-5.66-5.653V8.754" transform="translate(0.345 2.709)" fill="none" stroke="#000" stroke-linecap="round" stroke-linejoin="round" stroke-width="2"/>
      <line id="선_126528" data-name="선 126528" y2="8.975" transform="translate(33.31 11.461)" fill="none" stroke="#000" stroke-linecap="round" stroke-linejoin="round" stroke-width="2"/>
      <path id="패스_841505" data-name="패스 841505" d="M28.364-1.637H26.477V-3.524" transform="translate(6.824 0)" fill="none" stroke="#000" stroke-linecap="round" stroke-linejoin="round" stroke-width="2"/>
      <path id="패스_841506" data-name="패스 841506" d="M30.419,4.208v.926a6.605,6.605,0,0,1-6.6,6.6h0a6.483,6.483,0,0,1-6.606-6.356v-.1" transform="translate(4.779 1.706)" fill="none" stroke="#000" stroke-linecap="round" stroke-linejoin="round" stroke-width="2"/>
      <path id="패스_841507" data-name="패스 841507" d="M8.78,6.838a6.6,6.6,0,0,1-6.6,6.6h0a6.6,6.6,0,0,1-6.6-6.6h0L-4.456-3.518H25.757" transform="translate(0 0.001)" fill="none" stroke="#000" stroke-linecap="round" stroke-linejoin="round" stroke-width="2"/>
      <path id="패스_841508" data-name="패스 841508" d="M6.385-3.514V6.84a6.6,6.6,0,0,0,6.6,6.6h0a6.6,6.6,0,0,0,6.6-6.6h0V-3.514" transform="translate(2.392 0.002)" fill="none" stroke="#000" stroke-linecap="round" stroke-linejoin="round" stroke-width="2"/>
    </g>
  </g>
</svg>
