<svg xmlns="http://www.w3.org/2000/svg" width="56" height="56" viewBox="0 0 56 56">
  <g id="그룹_457361" data-name="그룹 457361" transform="translate(0 -0.5)">
    <g id="그룹_424826" data-name="그룹 424826" transform="translate(10.376 11.459)">
      <path id="패스_841251" data-name="패스 841251" d="M42.632,50.722H17.888a1,1,0,0,1-1-1V18.479A6.284,6.284,0,0,1,23.165,12.2h10.7a1,1,0,0,1,0,2h-10.7a4.282,4.282,0,0,0-4.277,4.277V48.722H41.632V21.97a1,1,0,1,1,2,0V49.722A1,1,0,0,1,42.632,50.722Z" transform="translate(-12.643 -13.202)"/>
      <g id="그룹_424822" data-name="그룹 424822" transform="translate(12.322 7.132)">
        <circle id="타원_164" data-name="타원 164" cx="0.972" cy="0.972" r="0.972" transform="translate(4.321 6.633)"/>
        <g id="그룹_4275" data-name="그룹 4275">
          <path id="패스_69847" data-name="패스 69847" d="M25.959,24.533a1,1,0,0,1-.7-1.71,8.583,8.583,0,0,1,11.981-.1,1,1,0,0,1-1.384,1.444,6.547,6.547,0,0,0-9.189.078A1,1,0,0,1,25.959,24.533Z" transform="translate(-25.959 -21.335)"/>
          <path id="패스_69848" data-name="패스 69848" d="M28.821,27.536a1,1,0,0,1-.7-1.713,5.035,5.035,0,0,1,6.947-.112,1,1,0,1,1-1.355,1.471,3.037,3.037,0,0,0-4.19.067A1,1,0,0,1,28.821,27.536Z" transform="translate(-26.311 -21.833)"/>
        </g>
      </g>
      <path id="선_432" data-name="선 432" d="M35.228,1H0A1,1,0,0,1-1,0,1,1,0,0,1,0-1H35.228a1,1,0,0,1,1,1A1,1,0,0,1,35.228,1Z" transform="translate(0 36.518)"/>
      <g id="그룹_424824" data-name="그룹 424824" transform="translate(10.6 21.165)">
        <rect id="사각형_318755" data-name="사각형 318755" width="1.754" height="3.507"/>
        <rect id="사각형_318756" data-name="사각형 318756" width="1.754" height="3.507" transform="translate(6.138)"/>
        <rect id="사각형_318757" data-name="사각형 318757" width="1.754" height="3.507" transform="translate(12.276)"/>
      </g>
      <g id="그룹_424824-2" data-name="그룹 424824" transform="translate(10.6 28.131)">
        <rect id="사각형_318755-2" data-name="사각형 318755" width="1.754" height="3.507"/>
        <rect id="사각형_318756-2" data-name="사각형 318756" width="1.754" height="3.507" transform="translate(6.138)"/>
        <rect id="사각형_318757-2" data-name="사각형 318757" width="1.754" height="3.507" transform="translate(12.276)"/>
      </g>
      <path id="패스_841252" data-name="패스 841252" d="M45.862,15.956H44.108a1,1,0,0,1-1-1V13.2a1,1,0,0,1,2,0v.754h.754a1,1,0,0,1,0,2Z" transform="translate(-15.873 -13.202)"/>
    </g>
    <rect id="사각형_318761" data-name="사각형 318761" width="56" height="56" transform="translate(0 0.5)" fill="none"/>
  </g>
</svg>
