<svg xmlns="http://www.w3.org/2000/svg" width="34" height="34" viewBox="0 0 34 34">
  <g id="그룹_456377" data-name="그룹 456377" transform="translate(-545 -939)">
    <g id="패스_841313" data-name="패스 841313" transform="translate(545 939)" fill="#e6007e">
      <path d="M 17 33 C 12.72624969482422 33 8.708290100097656 31.3357105255127 5.68628978729248 28.3137092590332 C 2.664289951324463 25.29170989990234 1 21.27375030517578 1 17 C 1 12.72624969482422 2.664289951324463 8.708290100097656 5.68628978729248 5.68628978729248 C 8.708290100097656 2.664289951324463 12.72624969482422 1 17 1 C 21.27375030517578 1 25.29170989990234 2.664289951324463 28.3137092590332 5.68628978729248 C 31.3357105255127 8.708290100097656 33 12.72624969482422 33 17 C 33 21.27375030517578 31.3357105255127 25.29170989990234 28.3137092590332 28.3137092590332 C 25.29170989990234 31.3357105255127 21.27375030517578 33 17 33 Z" stroke="none"/>
      <path d="M 17 2 C 12.99336051940918 2 9.226520538330078 3.560270309448242 6.393400192260742 6.393400192260742 C 3.560270309448242 9.226520538330078 2 12.99336051940918 2 17 C 2 21.00664138793945 3.560270309448242 24.77347946166992 6.393400192260742 27.60659980773926 C 9.226520538330078 30.43972969055176 12.99336051940918 32 17 32 C 21.00664138793945 32 24.77347946166992 30.43972969055176 27.60659980773926 27.60659980773926 C 30.43972969055176 24.77347946166992 32 21.00664138793945 32 17 C 32 12.99336051940918 30.43972969055176 9.226520538330078 27.60659980773926 6.393400192260742 C 24.77347946166992 3.560270309448242 21.00664138793945 2 17 2 M 17 0 C 26.38883972167969 0 34 7.611160278320313 34 17 C 34 26.38883972167969 26.38883972167969 34 17 34 C 7.611160278320313 34 0 26.38883972167969 0 17 C 0 7.611160278320313 7.611160278320313 0 17 0 Z" stroke="none" fill="#e6007e"/>
    </g>
    <g id="time-circle-svgrepo-com" transform="translate(552.25 946.25)">
      <path id="패스_841314" data-name="패스 841314" d="M18.75,10.751a8,8,0,1,1-8-8A8,8,0,0,1,18.75,10.751Z" transform="translate(-1 -1)" fill="none" stroke="#fff" stroke-linecap="round" stroke-linejoin="round" stroke-width="2" fill-rule="evenodd"/>
      <path id="패스_841315" data-name="패스 841315" d="M14.413,13.026l-2.752-1.642V7.847" transform="translate(-2.106 -1.154)" fill="none" stroke="#fff" stroke-linecap="round" stroke-linejoin="round" stroke-width="2"/>
    </g>
  </g>
</svg>
