<svg xmlns="http://www.w3.org/2000/svg" width="30" height="30" viewBox="0 0 30 30">
    <g data-name="icon" transform="translate(-35.097 -30.941)">
        <ellipse data-name="타원 8677" cx="4.5" cy="4.846" rx="4.5" ry="4.846" transform="translate(45.597 41.441)" style="stroke-miterlimit:10;fill:#fff;stroke:#000;stroke-width:2px"/>
        <path data-name="패스 842878" d="M45.164 36.578a10.921 10.921 0 0 1 3.569-1.1" transform="translate(.21 -.054)" style="stroke-miterlimit:10;fill:#fff;stroke:#000;stroke-width:2px"/>
        <path data-name="패스 842879" d="M39.4 43.062a6.44 6.44 0 0 1 1.749-3.316" transform="translate(.858 -.533)" style="stroke-miterlimit:10;fill:#fff;stroke:#000;stroke-width:2px"/>
        <path data-name="패스 842880" d="M39.587 52.36a8.159 8.159 0 0 1-.75-2.122 9.9 9.9 0 0 1-.331-1.862" transform="translate(.958 -1.502)" style="stroke-miterlimit:10;fill:#fff;stroke:#000;stroke-width:2px"/>
        <path data-name="패스 842881" d="M46.5 58.892a9.991 9.991 0 0 1-3.846-2.39" transform="translate(.492 -2.415)" style="stroke-miterlimit:10;fill:#fff;stroke:#000;stroke-width:2px"/>
        <path data-name="패스 842882" d="M55.774 58.4a10.842 10.842 0 0 1-2.351.875 6.582 6.582 0 0 1-1.482.22" transform="translate(-.551 -2.628)" style="stroke-miterlimit:10;fill:#fff;stroke:#000;stroke-width:2px"/>
        <path data-name="패스 842883" d="M62.315 50.6a9.759 9.759 0 0 1-2 3.877" transform="translate(-1.491 -1.752)" style="stroke-miterlimit:10;fill:#fff;stroke:#000;stroke-width:2px"/>
        <path data-name="패스 842884" d="M61.616 42.063a10.483 10.483 0 0 1 .812 2.3c.082.334.146.668.2 1" transform="translate(-1.638 -.793)" style="stroke-miterlimit:10;fill:#fff;stroke:#000;stroke-width:2px"/>
        <path data-name="패스 842885" d="M54.272 35.638a8.082 8.082 0 0 1 3.573 2.108" transform="translate(-.813 -.072)" style="stroke-miterlimit:10;fill:#fff;stroke:#000;stroke-width:2px"/>
        <path data-name="패스 842886" d="m49.148 35.085.676-3.144 4.35.623-.222 2.736" transform="translate(-.237 .343)" style="stroke-linecap:round;stroke-linejoin:round;fill:#fff;stroke:#000;stroke-width:2px"/>
        <path data-name="패스 842887" d="m58.171 37.731 2.436-1.877 2.893 3.309-2.241 2.289" transform="translate(-1.251 -.096)" style="stroke-linecap:round;stroke-linejoin:round;fill:#fff;stroke:#000;stroke-width:2px"/>
        <path data-name="패스 842888" d="m62.695 45.758 2.85.213-.062 4.4-3.018-.175" transform="translate(-1.733 -1.208)" style="stroke-linecap:round;stroke-linejoin:round;fill:#fff;stroke:#000;stroke-width:2px"/>
        <path data-name="패스 842889" d="M59.956 54.843 61.587 57l-3.445 2.721-1.455-2.043" transform="translate(-1.084 -2.228)" style="stroke-linecap:round;stroke-linejoin:round;fill:#fff;stroke:#000;stroke-width:2px"/>
        <path data-name="패스 842890" d="m51.261 59.6-.449 2.818-4.448-.541.342-2.8" transform="translate(.075 -2.704)" style="stroke-linecap:round;stroke-linejoin:round;fill:#fff;stroke:#000;stroke-width:2px"/>
        <path data-name="패스 842891" d="m42.194 56.184-2.354 1.909-2.945-3.369 2.4-2.233" transform="translate(1.139 -1.964)" style="stroke-linecap:round;stroke-linejoin:round;fill:#fff;stroke:#000;stroke-width:2px"/>
        <path data-name="패스 842892" d="m38.172 48.1-3.072-.22.216-4.643 3.58.205" transform="translate(1.34 -.925)" style="stroke-linecap:round;stroke-linejoin:round;fill:#fff;stroke:#000;stroke-width:2px"/>
        <path data-name="패스 842893" d="m40.9 39.318-2.007-2.678 3.514-2.772 2.331 2.4" transform="translate(.914 .127)" style="stroke-linecap:round;stroke-linejoin:round;fill:#fff;stroke:#000;stroke-width:2px"/>
    </g>
</svg>
