<svg xmlns="http://www.w3.org/2000/svg" width="56" height="56" viewBox="0 0 56 56">
  <g id="_080전화" data-name="080전화" transform="translate(0 -0.5)">
    <rect id="사각형_339504" data-name="사각형 339504" width="56" height="56" transform="translate(0 0.5)" fill="none"/>
    <g id="그룹_457359" data-name="그룹 457359" transform="translate(9.633 7.739)">
      <path id="패스_841245" data-name="패스 841245" d="M44.323,40.671h6.891V18H10.972V40.671h6.9" transform="translate(-10.972 -10.848)" fill="none" stroke="#000" stroke-linecap="round" stroke-linejoin="round" stroke-width="2"/>
      <path id="패스_841246" data-name="패스 841246" d="M45.283,17H18.826V9.854H36.5" transform="translate(-11.931 -9.854)" fill="none" stroke="#000" stroke-linecap="round" stroke-linejoin="round" stroke-width="2"/>
      <path id="사각형_339505" data-name="사각형 339505" d="M0,0H26.458a0,0,0,0,1,0,0V18.051a0,0,0,0,1,0,0H6a6,6,0,0,1-6-6V0A0,0,0,0,1,0,0Z" transform="translate(6.936 22.322)" fill="none" stroke="#000" stroke-linecap="round" stroke-linejoin="round" stroke-width="2"/>
      <circle id="타원_8376" data-name="타원 8376" cx="1.39" cy="1.39" r="1.39" transform="translate(30.572 12.369)" fill="none" stroke="#000" stroke-linecap="round" stroke-linejoin="round" stroke-width="2"/>
      <circle id="타원_8377" data-name="타원 8377" cx="1.39" cy="1.39" r="1.39" transform="translate(24.462 12.369)" fill="none" stroke="#000" stroke-linecap="round" stroke-linejoin="round" stroke-width="2"/>
      <g id="그룹_457358" data-name="그룹 457358" transform="translate(11.645 28.032)">
        <path id="패스_841247" data-name="패스 841247" d="M26.793,41.783a2.221,2.221,0,0,1,1.948.866,4.216,4.216,0,0,1,.61,2.452v.414a4.216,4.216,0,0,1-.61,2.452,2.218,2.218,0,0,1-1.948.866,2.217,2.217,0,0,1-1.947-.866,4.216,4.216,0,0,1-.61-2.452V45.1a4.216,4.216,0,0,1,.61-2.452A2.219,2.219,0,0,1,26.793,41.783Zm0,1.164a1.421,1.421,0,0,0-.629.125.914.914,0,0,0-.4.4,2.14,2.14,0,0,0-.216.7,6.5,6.5,0,0,0-.068,1.019v.241a6.517,6.517,0,0,0,.068,1.019,2.14,2.14,0,0,0,.216.7.908.908,0,0,0,.4.4,1.643,1.643,0,0,0,1.26,0,.917.917,0,0,0,.4-.4,2.2,2.2,0,0,0,.217-.7,6.75,6.75,0,0,0,.067-1.019v-.241a6.733,6.733,0,0,0-.067-1.019,2.2,2.2,0,0,0-.217-.7.923.923,0,0,0-.4-.4A1.425,1.425,0,0,0,26.793,42.947Z" transform="translate(-24.236 -41.783)"/>
        <path id="패스_841248" data-name="패스 841248" d="M35.281,41.9a.369.369,0,0,1,.327.154.69.69,0,0,1,0,.736.374.374,0,0,1-.327.149H32.839l-.077,1.741a2.845,2.845,0,0,1,.548-.25,2.3,2.3,0,0,1,.741-.106,2.148,2.148,0,0,1,.885.173,1.939,1.939,0,0,1,.649.467,1.985,1.985,0,0,1,.4.678,2.381,2.381,0,0,1,.135.8v.1a2.572,2.572,0,0,1-.14.827,2.039,2.039,0,0,1-.442.741,2.309,2.309,0,0,1-.769.534,2.781,2.781,0,0,1-1.13.206,4.734,4.734,0,0,1-1.183-.13,3.093,3.093,0,0,1-.894-.379.528.528,0,0,1-.255-.37.614.614,0,0,1,.091-.428.546.546,0,0,1,.327-.27.531.531,0,0,1,.414.087,2.731,2.731,0,0,0,.649.278,3.162,3.162,0,0,0,.842.1,1.113,1.113,0,0,0,1.25-1.2v-.057a1.106,1.106,0,0,0-.322-.856,1.277,1.277,0,0,0-.9-.3,1.8,1.8,0,0,0-.624.106,1.736,1.736,0,0,0-.51.288,1.359,1.359,0,0,1-.245.164.63.63,0,0,1-.264.047.54.54,0,0,1-.356-.111.346.346,0,0,1-.126-.3l.154-2.769a1.914,1.914,0,0,1,.054-.414.553.553,0,0,1,.134-.255.52.52,0,0,1,.245-.13A1.633,1.633,0,0,1,32.5,41.9Z" transform="translate(-25.098 -41.798)"/>
        <path id="패스_841249" data-name="패스 841249" d="M40.375,41.783a2.221,2.221,0,0,1,1.948.866,4.216,4.216,0,0,1,.61,2.452v.414a4.216,4.216,0,0,1-.61,2.452,2.624,2.624,0,0,1-3.9,0,4.216,4.216,0,0,1-.61-2.452V45.1a4.216,4.216,0,0,1,.61-2.452A2.219,2.219,0,0,1,40.375,41.783Zm0,1.164a1.421,1.421,0,0,0-.629.125.914.914,0,0,0-.4.4,2.14,2.14,0,0,0-.216.7,6.5,6.5,0,0,0-.068,1.019v.241a6.517,6.517,0,0,0,.068,1.019,2.14,2.14,0,0,0,.216.7.908.908,0,0,0,.4.4,1.643,1.643,0,0,0,1.26,0,.917.917,0,0,0,.4-.4,2.2,2.2,0,0,0,.217-.7,6.75,6.75,0,0,0,.067-1.019v-.241a6.733,6.733,0,0,0-.067-1.019,2.2,2.2,0,0,0-.217-.7.923.923,0,0,0-.4-.4A1.425,1.425,0,0,0,40.375,42.947Z" transform="translate(-25.894 -41.783)"/>
      </g>
      <path id="패스_841250" data-name="패스 841250" d="M46.977,9.854V11.61h1.756" transform="translate(-15.367 -9.854)" fill="none" stroke="#000" stroke-linecap="round" stroke-linejoin="round" stroke-width="2"/>
    </g>
  </g>
</svg>
