<svg xmlns="http://www.w3.org/2000/svg" width="80" height="80" viewBox="0 0 80 80">
  <g id="그룹_457379" data-name="그룹 457379" transform="translate(1132 -1098)">
    <rect id="사각형_318761" data-name="사각형 318761" width="80" height="80" transform="translate(-1132 1098)" opacity="0"/>
    <g id="그룹_457372" data-name="그룹 457372" transform="translate(-1074.117 1129.743)">
      <path id="패스_841379" data-name="패스 841379" d="M457.885,74.773H455.33a1.277,1.277,0,0,1,0-2.555h2.555a7.025,7.025,0,0,0,0-14.051H455.33a1.277,1.277,0,0,1,0-2.555h2.555a9.58,9.58,0,0,1,0,19.16Z" transform="translate(-454.053 -55.613)"/>
    </g>
    <g id="그룹_457373" data-name="그룹 457373" transform="translate(-1123.295 1107.333)">
      <path id="패스_841380" data-name="패스 841380" d="M427.688,79.652h-2.555a9.58,9.58,0,0,1,0-19.16h1.277V58.507a20.449,20.449,0,0,1,27.512-19.179,1.277,1.277,0,0,1-.883,2.4,17.894,17.894,0,0,0-24.074,16.782V78.374A1.276,1.276,0,0,1,427.688,79.652Zm-2.555-16.606a7.025,7.025,0,0,0,0,14.051h1.277V63.046Z" transform="translate(-415.553 -38.069)"/>
    </g>
    <g id="그룹_457374" data-name="그룹 457374" transform="translate(-1087.523 1126.494)">
      <path id="패스_841381" data-name="패스 841381" d="M446.1,92.818h-1.265a1.277,1.277,0,0,1,0-2.555H446.1A10.876,10.876,0,0,0,456.964,79.4V54.346a1.277,1.277,0,1,1,2.555,0V79.4A13.435,13.435,0,0,1,446.1,92.818Z" transform="translate(-443.558 -53.069)"/>
    </g>
    <g id="그룹_457375" data-name="그룹 457375" transform="translate(-1099.01 1161.003)">
      <path id="패스_841382" data-name="패스 841382" d="M446.061,87.749H437.12a2.557,2.557,0,0,1-2.555-2.555V82.64a2.557,2.557,0,0,1,2.555-2.555h8.941a2.557,2.557,0,0,1,2.555,2.555v2.555A2.557,2.557,0,0,1,446.061,87.749ZM437.12,82.64v2.555h8.943V82.64Z" transform="translate(-434.565 -80.085)"/>
    </g>
    <g id="그룹_457376" data-name="그룹 457376" transform="translate(-1077.91 1113.764)">
      <path id="패스_841383" data-name="패스 841383" d="M454.916,48.212h-2.555a1.277,1.277,0,0,1-1.277-1.277V44.38a1.277,1.277,0,1,1,2.555,0v1.277h1.277a1.277,1.277,0,0,1,0,2.555Z" transform="translate(-451.084 -43.103)"/>
    </g>
  </g>
</svg>
