<svg xmlns="http://www.w3.org/2000/svg" width="80" height="80" viewBox="0 0 80 80">
  <g id="그룹_458471" data-name="그룹 458471" transform="translate(-456 -14)">
    <g id="그룹_211" data-name="그룹 211" transform="translate(456 0)">
      <g id="guide">
        <rect id="사각형_27" data-name="사각형 27" width="80" height="80" transform="translate(0 14)" fill="none"/>
        <g id="그룹_458482" data-name="그룹 458482" transform="translate(-223.818 -1235.853)">
          <path id="패스_469" data-name="패스 469" d="M282.8,1277.043v26.3a7.2,7.2,0,0,1-7.2,7.2H259.97" transform="translate(3.803 2.006)" fill="none" stroke="#231815" stroke-linecap="round" stroke-linejoin="round" stroke-width="2"/>
          <path id="패스_470" data-name="패스 470" d="M241.01,1289.922v-22.871H274.6" transform="translate(0 0.002)" fill="none" stroke="#231815" stroke-linecap="round" stroke-linejoin="round" stroke-width="2"/>
          <path id="패스_471" data-name="패스 471" d="M241.015,1300.37a5.6,5.6,0,0,1,5.6,5.6" transform="translate(0.001 6.684)" fill="none" stroke="#231815" stroke-linecap="round" stroke-linejoin="round" stroke-width="2"/>
          <path id="패스_472" data-name="패스 472" d="M241.015,1295.723a11.176,11.176,0,0,1,11.169,11.181" transform="translate(0.001 5.752)" fill="none" stroke="#231815" stroke-linecap="round" stroke-linejoin="round" stroke-width="2"/>
          <path id="패스_473" data-name="패스 473" d="M241.015,1291.642a16.074,16.074,0,0,1,16.068,16.08" transform="translate(0.001 4.934)" fill="none" stroke="#231815" stroke-linecap="round" stroke-linejoin="round" stroke-width="2"/>
          <path id="패스_474" data-name="패스 474" d="M276.986,1267.043v2.4h2.4" transform="translate(7.216 0)" fill="none" stroke="#000" stroke-linecap="round" stroke-linejoin="round" stroke-width="2"/>
        </g>
      </g>
    </g>
  </g>
</svg>
