<svg xmlns="http://www.w3.org/2000/svg" width="48" height="48" viewBox="0 0 48 48">
  <g id="그룹_458968" data-name="그룹 458968" transform="translate(-2.088 14.951)">
    <g id="그룹_458781" data-name="그룹 458781" transform="translate(2.154 -14.951)">
      <rect id="사각형_2661" data-name="사각형 2661" width="47.934" height="47.989" fill="none"/>
    </g>
    <path id="패스_842064" data-name="패스 842064" d="M51.49,12.2V22.572a4.12,4.12,0,0,1-2.628,3.968c-.252.1-2.264.091-2.537.14" transform="translate(-11.069 -6.809)" fill="none" stroke="#000" stroke-linecap="round" stroke-miterlimit="10" stroke-width="2"/>
    <path id="패스_842065" data-name="패스 842065" d="M31.429,24.434h-11.9a4.306,4.306,0,0,1-4.3-4.309h0V6.641a4.307,4.307,0,0,1,4.3-4.309H36.268" transform="translate(-3.304 -4.347)" fill="none" stroke="#000" stroke-linecap="round" stroke-miterlimit="10" stroke-width="2"/>
    <path id="패스_842066" data-name="패스 842066" d="M36.778,31.7l7.084,5.827.1-5.927" transform="translate(-8.684 -11.669)" fill="none" stroke="#000" stroke-linecap="round" stroke-linejoin="round" stroke-width="2"/>
    <circle id="타원_8545" data-name="타원 8545" cx="1.452" cy="1.452" r="1.452" transform="translate(19.818 7.603)"/>
    <circle id="타원_8546" data-name="타원 8546" cx="1.452" cy="1.452" r="1.452" transform="translate(24.899 7.603)"/>
    <circle id="타원_8547" data-name="타원 8547" cx="1.452" cy="1.452" r="1.452" transform="translate(29.981 7.603)"/>
    <rect id="사각형_339750" data-name="사각형 339750" width="47.934" height="47.989" transform="translate(2.088 -14.94)" fill="none"/>
    <path id="패스_840980" data-name="패스 840980" d="M52.7,3.836H51.2v-1.5" transform="translate(-12.28 -4.322)" fill="none" stroke="#000" stroke-linecap="round" stroke-linejoin="round" stroke-width="2"/>
  </g>
</svg>
