<svg xmlns="http://www.w3.org/2000/svg" width="56" height="56" viewBox="0 0 56 56"><g transform="translate(-4 -4)"><path d="M33.16,40H13V18H46V30" fill="none" stroke="#000" stroke-linejoin="round" stroke-width="2"/><path d="M5,32A27,27,0,0,0,32,59l-4-5" fill="none" stroke="#000" stroke-linecap="round" stroke-linejoin="round" stroke-width="2"/><path d="M59,32A27,27,0,0,0,32,5l4,5" fill="none" stroke="#000" stroke-linecap="round" stroke-linejoin="round" stroke-width="2"/><circle cx="11" cy="11" r="11" transform="translate(33 29)" fill="none" stroke="#000" stroke-miterlimit="10" stroke-width="2"/><line x2="31" transform="translate(14 22)" fill="none" stroke="#000" stroke-linecap="round" stroke-miterlimit="10" stroke-width="2"/><line x2="31" transform="translate(14 26)" fill="none" stroke="#000" stroke-linecap="round" stroke-miterlimit="10" stroke-width="2"/><path d="M38.5,37l2,7h1l2-7h1l2,7h1l2-7" fill="none" stroke="#000" stroke-linecap="round" stroke-linejoin="round" stroke-width="2"/><line x1="1" transform="translate(37.5 41)" fill="none" stroke="#000" stroke-linecap="round" stroke-miterlimit="10" stroke-width="2"/><line x1="1" transform="translate(49.5 41)" fill="none" stroke="#000" stroke-linecap="round" stroke-miterlimit="10" stroke-width="2"/><line x2="1.99" y2="0.01" transform="translate(17.01 35.99)" fill="none" stroke="#000" stroke-linecap="round" stroke-miterlimit="10" stroke-width="2"/></g></svg>