<svg xmlns="http://www.w3.org/2000/svg" width="64" height="64" viewBox="0 0 64 64">
  <g id="icon" transform="translate(-0.138 -0.399)">
    <rect id="사각형_2405" data-name="사각형 2405" width="64" height="64" transform="translate(0.138 0.399)" fill="none"/>
    <g id="그룹_5225" data-name="그룹 5225">
      <g id="사각형_2386" data-name="사각형 2386">
        <rect id="사각형_340037" data-name="사각형 340037" width="58" height="43.603" rx="1" transform="translate(3.138 15.796)" fill="none"/>
        <path id="패스_842162" data-name="패스 842162" d="M60.138,26.685V58.4H9.932A5.794,5.794,0,0,1,4.138,52.6V16.8H51.021" fill="none" stroke="#000" stroke-linecap="round" stroke-linejoin="round" stroke-width="2"/>
      </g>
      <path id="패스_69841" data-name="패스 69841" d="M22.428,16.109a9.71,9.71,0,0,1,19.42-.026v.026" fill="none" stroke="#000" stroke-miterlimit="10" stroke-width="2"/>
      <path id="패스_69842" data-name="패스 69842" d="M43,33.637h-6.92V26.716a.971.971,0,0,0-.971-.971h-5.95a.971.971,0,0,0-.971.971h0v6.921h-6.92a.971.971,0,0,0-.971.971h0v5.948a.971.971,0,0,0,.971.971h6.92v6.92a.971.971,0,0,0,.971.971h5.95a.971.971,0,0,0,.971-.971h0v-6.92H43a.971.971,0,0,0,.971-.971h0V34.608A.971.971,0,0,0,43,33.637Z" fill="none" stroke="#000" stroke-miterlimit="10" stroke-width="2"/>
      <path id="패스_840980" data-name="패스 840980" d="M60.235,18.866h-2v-2" fill="none" stroke="#000" stroke-linecap="round" stroke-linejoin="round" stroke-width="2"/>
    </g>
  </g>
</svg>
