<svg xmlns="http://www.w3.org/2000/svg" width="64" height="64" viewBox="0 0 64 64">
  <g id="그룹_458598" data-name="그룹 458598" transform="translate(-0.088 -0.13)">
    <g id="_17" data-name=" 17" transform="translate(-553.217 -138.087)">
      <g id="그룹_456392" data-name="그룹 456392">
        <g id="그룹_457808" data-name="그룹 457808">
          <path id="선_126514" data-name="선 126514" d="M570.066,173.86" fill="none" stroke="#000" stroke-miterlimit="10" stroke-width="2"/>
          <path id="선_126514-2" data-name="선 126514-2" d="M584.477,173.86" fill="none" stroke="#000" stroke-miterlimit="10" stroke-width="2"/>
          <path id="패스_841478" data-name="패스 841478" d="M578.473,184.817h-3.311c-2.626.145-4.9-1.383-5.1-3.412V162.9h18.65v14.241" fill="none" stroke="#000" stroke-linecap="round" stroke-linejoin="round" stroke-width="2"/>
        </g>
        <g id="그룹_457570" data-name="그룹 457570">
          <path id="사각형_339458" data-name="사각형 339458" d="M583.191,177.643h16.177a5.033,5.033,0,0,1,5.037,5.029v0h0a5.035,5.035,0,0,1-5.032,5.034H583.191a5.034,5.034,0,0,1-5.034-5.034h0a5.033,5.033,0,0,1,5.033-5.033Z" fill="none" stroke="#000" stroke-linecap="round" stroke-linejoin="round" stroke-width="2"/>
          <line id="선_510" data-name="선 510" y1="7.993" transform="translate(598.265 169.65)" fill="none" stroke="#000" stroke-linecap="round" stroke-linejoin="round" stroke-width="2"/>
          <circle id="타원_43" data-name="타원 43" cx="0.724" cy="0.724" r="0.724" transform="translate(582.814 181.952)" stroke="#000" stroke-linecap="round" stroke-miterlimit="10" stroke-width="1"/>
          <circle id="타원_44" data-name="타원 44" cx="0.724" cy="0.724" r="0.724" transform="translate(587.282 181.952)" stroke="#000" stroke-linecap="round" stroke-miterlimit="10" stroke-width="1"/>
        </g>
        <g id="그룹_457995" data-name="그룹 457995">
          <path id="Path_69907" data-name="Path 69907" d="M609.1,195.489H569.453a7.334,7.334,0,0,1-7.333-7.333v-26.8L586.045,145.4l23.765,15.956v34.134" fill="none" stroke="#000" stroke-linecap="round" stroke-linejoin="round" stroke-width="2"/>
        </g>
      </g>
      <rect id="사각형_339262" data-name="사각형 339262" width="64" height="64" transform="translate(553.305 138.217)" fill="none"/>
    </g>
  </g>
</svg>
