<svg xmlns="http://www.w3.org/2000/svg" width="80" height="80" viewBox="0 0 80 80"><g transform="translate(-0.299 -0.299)"><rect width="80" height="80" transform="translate(0.299 0.299)" fill="none"/><g transform="translate(15.989 16.766)"><rect width="64" height="64" transform="translate(-7.69 -8.466)" fill="none"/><g transform="translate(-7.66 -8.209)"><rect width="64" height="64" transform="translate(-0.03 -0.257)" fill="none"/><g transform="translate(10.145 10.145)"><path d="M49.917,20.086a21.871,21.871,0,1,1-8.248-8.245" transform="translate(-9 -9)" fill="none" stroke="#000" stroke-linecap="round" stroke-linejoin="round" stroke-width="2"/><path d="M-367.077,14.9h-1.9V13" transform="translate(406.529 -8.964)" fill="none" stroke="#000" stroke-linecap="round" stroke-linejoin="round" stroke-width="2"/></g><g transform="translate(20.607 23.597)"><path d="M40.249,26.49V23.141H37.779V26.49H34.512v2.362h3.267v3.311h2.471V28.852h3.289V26.49Z" transform="translate(-20.705 -23.141)"/><path d="M28.685,26.677v7.68c0,2.122-1.054,3.166-2.836,3.166s-2.835-1.044-2.835-3.166v-7.68H20V34.4c0,4.192,2.23,5.767,5.742,5.767h.215c3.512,0,5.742-1.574,5.742-5.767V26.677Z" transform="translate(-19.998 -23.313)"/></g><circle cx="8.562" cy="8.562" r="8.562" transform="translate(37.732 37.732)" fill="#fff" stroke="#000" stroke-width="2"/><g transform="translate(41.537 45.343)"><circle cx="0.951" cy="0.951" r="0.951" transform="translate(0.001 0)"/><circle cx="0.951" cy="0.951" r="0.951" transform="translate(3.807 0)"/><circle cx="0.951" cy="0.951" r="0.951" transform="translate(7.612 0)"/></g></g></g></g></svg>