<svg xmlns="http://www.w3.org/2000/svg" width="64" height="64" viewBox="0 0 64 64"><g transform="translate(6.694 6)"><rect width="64" height="64" transform="translate(-6.694 -6)" fill="none"/><g transform="translate(-1133.631 -270.311)"><g transform="translate(1142.988 265.311)"><g transform="translate(4.545 -0.979) rotate(30)" fill="none" stroke="#000" stroke-miterlimit="10" stroke-width="2"><rect width="39.794" height="10.089" rx="2" stroke="none"/><rect x="1" y="1" width="37.794" height="8.089" rx="1" fill="none"/></g><path d="M1164.99,273.77a5.079,5.079,0,0,1,8.8,5.079" transform="translate(-1147.694 -266.519)" fill="none" stroke="#000" stroke-miterlimit="10" stroke-width="2"/></g><g transform="translate(1149.321 294.925)"><line y2="20.693" transform="translate(0 0)" fill="none" stroke="#000" stroke-linecap="round" stroke-miterlimit="10" stroke-width="2"/><line y2="20.693" transform="translate(17.656)" fill="none" stroke="#000" stroke-linecap="round" stroke-miterlimit="10" stroke-width="2"/><path d="M965.023,528H943v42.085a1.014,1.014,0,0,0,1,1.026h30a1.014,1.014,0,0,0,1-1.026V533.912" transform="translate(-950.384 -538.725)" fill="none" stroke="#000" stroke-width="2"/><line y2="20.693" transform="translate(8.828 0)" fill="none" stroke="#000" stroke-linecap="round" stroke-miterlimit="10" stroke-width="2"/></g></g></g></svg>