<svg xmlns="http://www.w3.org/2000/svg" width="33.489" height="42.76" viewBox="0 0 33.489 42.76"><g transform="translate(1 1)"><path d="M32.917,42.5H13V5H36.25V28.484" transform="translate(-13 -5)" fill="none" stroke="#000" stroke-linecap="round" stroke-linejoin="round" stroke-width="2"/><line x2="3.75" transform="translate(9.75 3)" fill="none" stroke="#000" stroke-linecap="round" stroke-miterlimit="10" stroke-width="2"/><path d="M41.5,35.546,31.2,26.473a1.961,1.961,0,0,0-1.99-.338h0A1.885,1.885,0,0,0,28,27.884V28.4a1.851,1.851,0,0,0,.246.92L33.917,38s.083,5.583,2.006,8.281c2.58,3.619,5.2,4.469,5.2,4.469" transform="translate(-16.75 -10.25)" fill="none" stroke="#000" stroke-linecap="round" stroke-miterlimit="10" stroke-width="2"/><path d="M44.494,22.111s7.869,5.281,7.869,9.583V49.778" transform="translate(-20.874 -9.277)" fill="none" stroke="#000" stroke-linecap="round" stroke-miterlimit="10" stroke-width="2"/></g></svg>