<svg xmlns="http://www.w3.org/2000/svg" width="59.042" height="58.037" viewBox="0 0 59.042 58.037"><g transform="translate(1.021 1.019)"><path d="M749.174,291.674a27.886,27.886,0,0,0-48.064,24.191,28.084,28.084,0,0,0,.988,3.674" transform="translate(-700.58 -282.4)" fill="none" stroke="#000" stroke-linecap="round" stroke-miterlimit="10" stroke-width="2"/><path d="M754.858,283.065v10h-10" transform="translate(-704.858 -282.065)" fill="none" stroke="#000" stroke-linecap="round" stroke-linejoin="round" stroke-width="2"/><path d="M709.854,331.851a27.931,27.931,0,0,0,47.076-27.865" transform="translate(-701.448 -285.124)" fill="none" stroke="#000" stroke-linecap="round" stroke-miterlimit="10" stroke-width="2"/><path d="M707.941,342.8v-10h10" transform="translate(-699.941 -286.795)" fill="none" stroke="#000" stroke-linecap="round" stroke-linejoin="round" stroke-width="2"/><g transform="translate(18 16)"><g transform="translate(-0.5 7)" fill="none" stroke="#000" stroke-linecap="round" stroke-linejoin="round" stroke-width="2"><rect width="23" height="17" rx="2" stroke="none"/><rect x="1" y="1" width="21" height="15" rx="1" fill="none"/></g><path d="M726.153,307.963v-2.772a5,5,0,1,1,10,0v2.772" transform="translate(-720.653 -299.963)" fill="none" stroke="#000" stroke-linecap="round" stroke-miterlimit="10" stroke-width="2"/><circle cx="1" cy="1" r="1" transform="translate(6 15)" fill="#231815"/><circle cx="1" cy="1" r="1" transform="translate(10 15)" fill="#231815"/><circle cx="1" cy="1" r="1" transform="translate(14 15)" fill="#231815"/></g></g></svg>