<svg xmlns="http://www.w3.org/2000/svg" width="24" height="21" viewBox="0 0 24 21"><path d="M839.911,281.6l-3.161-2.211h0l-2.607-1.821a5.133,5.133,0,0,0-3.905-.422l-10.249,2.289a3.336,3.336,0,0,0-2.5,3.1v9.915a3.335,3.335,0,0,0,2.5,3.1l10.247,2.293a6.628,6.628,0,0,0,4.6-.905l5.074-3.55a3.052,3.052,0,0,0,1.573-3V284.6a3.009,3.009,0,0,0-1.573-3" transform="translate(-817.484 -276.949)" fill="#d6006e"/><path d="M842.617,283.987v.328l-2.649-1.364a2.048,2.048,0,0,0-1.083-.171l-2.981.486a.784.784,0,0,0-.633.75v8.426c0,1.726-1.174,2.148-2.469,2.023l-1.843-.178a2.118,2.118,0,0,1-1.936-2.4v-6.843a.53.53,0,0,0-.633-.543l-1.645.266a.782.782,0,0,0-.634.747v6.684c0,2.809,1.782,4.353,4.975,4.836l2.312.357c3.385.51,6.056-1.109,6.056-4.985v-5.722l3.161.815v3.345a.575.575,0,0,0,.638.587l1.141-.087a.717.717,0,0,0,.639-.7v-2.519l1.662.429a.284.284,0,0,0,.372-.291v-1.262a.7.7,0,0,0-.342-.565l-1.692-.871v-.435a3.377,3.377,0,0,0-1.278-2.882c-.037-.033-.009-.07.032-.047l-2.6-1.849,0,0c.83.59,1.438,1.687,1.438,3.644" transform="translate(-824.528 -279.72)" fill="#fff"/></svg>