<svg xmlns="http://www.w3.org/2000/svg" xmlns:xlink="http://www.w3.org/1999/xlink" width="96" height="96" viewBox="0 0 96 96">
  <defs>
    <clipPath id="clip-맞춤형_크기_1">
      <rect width="96" height="96"/>
    </clipPath>
  </defs>
  <g id="맞춤형_크기_1" data-name="맞춤형 크기 – 1" clip-path="url(#clip-맞춤형_크기_1)">
    <rect width="96" height="96" fill="#fff"/>
    <g id="그룹_455875" data-name="그룹 455875" transform="translate(-1544 -646)">
      <rect id="사각형_339119" data-name="사각형 339119" width="84" height="84" transform="translate(1550 652)" fill="none" opacity="0.2"/>
      <g id="그룹_425062" data-name="그룹 425062" transform="translate(1550.875 652.629)">
        <rect id="사각형_318838" data-name="사각형 318838" width="49.062" height="80.81" rx="3.931" transform="translate(19.688)" fill="#fff" stroke="#231f20" stroke-miterlimit="10" stroke-width="2"/>
        <g id="그룹_455872" data-name="그룹 455872" transform="translate(34.125 5.496)">
          <line id="선_403" data-name="선 403" x2="17.198" transform="translate(0 0)" fill="none" stroke="#231f20" stroke-linecap="round" stroke-miterlimit="10" stroke-width="2"/>
          <path id="패스_840908" data-name="패스 840908" d="M-1879.862,1377.828Z" transform="translate(1900.862 -1377.828)" fill="none" stroke="#231f20" stroke-linecap="round" stroke-miterlimit="10" stroke-width="2"/>
        </g>
        <g id="그룹_425051" data-name="그룹 425051" transform="translate(29.185 23.647)">
          <line id="선_473" data-name="선 473" x1="1.324" transform="translate(23.429 15.884)" fill="none" stroke="#000" stroke-linecap="round" stroke-miterlimit="10" stroke-width="2"/>
          <circle id="타원_212" data-name="타원 212" cx="14.56" cy="14.56" r="14.56" fill="#fff" stroke="#000" stroke-miterlimit="10" stroke-width="2"/>
          <path id="패스_70054" data-name="패스 70054" d="M-1904.007,1421.107l2.647,9.265h1.324l2.648-9.265h1.323l2.648,9.265h1.324l2.647-9.265" transform="translate(1911.287 -1410.518)" fill="none" stroke="#000" stroke-linecap="round" stroke-linejoin="round" stroke-width="2"/>
          <line id="선_473-2" data-name="선 473" x1="2.028" transform="translate(5.956 15.884)" fill="none" stroke="#000" stroke-linecap="round" stroke-miterlimit="10" stroke-width="2"/>
          <line id="선_474" data-name="선 474" x1="1.853" transform="translate(21.136 15.884)" fill="none" stroke="#000" stroke-linecap="round" stroke-miterlimit="10" stroke-width="2"/>
        </g>
        <g id="그룹_425061" data-name="그룹 425061" transform="translate(0 49.688)">
          <g id="그룹_425060" data-name="그룹 425060">
            <g id="그룹_425059" data-name="그룹 425059">
              <path id="패스_840912" data-name="패스 840912" d="M-1933.024,1468.406c-6.851,0-12.4,3.163-12.4,7.065v3.171c0,3.9,5.554,6.221,12.4,6.221s12.4-2.319,12.4-6.221v-3.171C-1920.619,1471.569-1926.173,1468.406-1933.024,1468.406Z" transform="translate(1945.429 -1452.301)" fill="#fff" stroke="#000" stroke-linecap="round" stroke-linejoin="round" stroke-width="2"/>
              <path id="패스_840913" data-name="패스 840913" d="M-1933.024,1462.271c-6.851,0-12.4,3.163-12.4,7.065v3.171c0,3.9,5.554,6.221,12.4,6.221s12.4-2.32,12.4-6.221v-3.171C-1920.619,1465.434-1926.173,1462.271-1933.024,1462.271Z" transform="translate(1945.429 -1451.534)" fill="#fff" stroke="#000" stroke-linecap="round" stroke-linejoin="round" stroke-width="2"/>
              <path id="패스_840914" data-name="패스 840914" d="M-1920.619,1463.2c0-3.9-5.554-7.066-12.4-7.066s-12.4,3.163-12.4,7.066h0v3.171c0,3.9,5.554,6.221,12.4,6.221s12.4-2.32,12.4-6.221V1463.2Z" transform="translate(1945.429 -1450.767)" fill="#fff" stroke="#000" stroke-linecap="round" stroke-linejoin="round" stroke-width="2"/>
              <g id="그룹_425058" data-name="그룹 425058">
                <ellipse id="타원_8338" data-name="타원 8338" cx="12.405" cy="7.065" rx="12.405" ry="7.065" fill="#fff" stroke="#000" stroke-linecap="round" stroke-linejoin="round" stroke-width="2"/>
                <path id="패스_840915" data-name="패스 840915" d="M-1945.429,1462.3c0,3.9,5.554,6.01,12.4,6.01s12.4-2.108,12.4-6.01v-4.226c0,3.9-6.872,5.492-12.4,5.492-4.8,0-12.4-1.59-12.4-5.492Z" transform="translate(1945.429 -1451.009)" fill="#fff" stroke="#000" stroke-linecap="round" stroke-linejoin="round" stroke-width="2"/>
              </g>
            </g>
          </g>
        </g>
      </g>
    </g>
  </g>
</svg>
