<svg xmlns="http://www.w3.org/2000/svg" width="64" height="64" viewBox="0 0 64 64">
  <g id="_21" data-name=" 21" transform="translate(0 0.271)">
    <g id="그룹_458321" data-name="그룹 458321">
      <line id="선_126641" data-name="선 126641" x1="6" y2="7" transform="translate(12.772 44.229)" fill="none" stroke="#000" stroke-linecap="round" stroke-linejoin="round" stroke-width="2"/>
      <line id="선_126642" data-name="선 126642" x2="6" y2="7" transform="translate(44.772 44.229)" fill="none" stroke="#000" stroke-linecap="round" stroke-linejoin="round" stroke-width="2"/>
      <path id="패스_841831" data-name="패스 841831" d="M54.649,43.914H14.7a5.7,5.7,0,0,1-5.7-5.7v-25.3H45" fill="none" stroke="#000" stroke-linecap="round" stroke-linejoin="round" stroke-width="2"/>
      <path id="패스_841831-2" data-name="패스 841831" d="M55,22.914v21" fill="none" stroke="#000" stroke-linecap="round" stroke-linejoin="round" stroke-width="2"/>
    </g>
    <path id="패스_841832" data-name="패스 841832" d="M53.852,12.525v2h2" fill="none" stroke="#000" stroke-linecap="round" stroke-linejoin="round" stroke-width="2"/>
    <rect id="사각형_339934" data-name="사각형 339934" width="64" height="64" transform="translate(0 -0.271)" fill="none"/>
    <g id="그룹_458299" data-name="그룹 458299">
      <path id="패스_841788" data-name="패스 841788" d="M21.791,23.693a.943.943,0,0,1,.54.156.574.574,0,0,1,.228.5V31.7a.572.572,0,0,1-.228.5,1,1,0,0,1-1.08,0,.565.565,0,0,1-.228-.5V24.353a.568.568,0,0,1,.228-.5A.942.942,0,0,1,21.791,23.693Z"/>
      <path id="패스_841789" data-name="패스 841789" d="M27.767,23.765a4.274,4.274,0,0,1,1.338.187,2.551,2.551,0,0,1,.918.515,2.056,2.056,0,0,1,.534.786,2.733,2.733,0,0,1,.174.984v.168a2.817,2.817,0,0,1-.18,1,2.22,2.22,0,0,1-.552.828,2.723,2.723,0,0,1-.924.564,3.665,3.665,0,0,1-1.308.21H26.039v2.7a.572.572,0,0,1-.228.5,1,1,0,0,1-1.08,0,.565.565,0,0,1-.228-.5V24.761a1.073,1.073,0,0,1,.222-.78,1.137,1.137,0,0,1,.8-.216Zm-1.728,3.948h1.524a2.115,2.115,0,0,0,1.188-.288,1.164,1.164,0,0,0,.43-1.044v-.132a1.392,1.392,0,0,0-.108-.587.916.916,0,0,0-.306-.367,1.258,1.258,0,0,0-.474-.192,3.181,3.181,0,0,0-.6-.054H26.039Z"/>
      <path id="패스_841790" data-name="패스 841790" d="M37.427,23.765a.463.463,0,0,1,.407.192.851.851,0,0,1,0,.913.457.457,0,0,1-.407.191H35.363v6.648a.567.567,0,0,1-.228.5,1,1,0,0,1-1.08,0,.563.563,0,0,1-.228-.5V25.061H31.751a.458.458,0,0,1-.408-.191.847.847,0,0,1,0-.913.463.463,0,0,1,.408-.192Z"/>
      <path id="패스_841791" data-name="패스 841791" d="M45.443,23.753a.755.755,0,0,1,.426.33.661.661,0,0,1,.006.582l-2.712,7a1.137,1.137,0,0,1-.4.563,1.019,1.019,0,0,1-.546.145.993.993,0,0,1-.534-.145,1.125,1.125,0,0,1-.4-.563l-2.64-6.985a.648.648,0,0,1,.006-.582.8.8,0,0,1,.438-.342.962.962,0,0,1,.6-.024.623.623,0,0,1,.42.42L42.251,30.4l2.2-6.228a.668.668,0,0,1,.408-.438A.9.9,0,0,1,45.443,23.753Z"/>
    </g>
  </g>
</svg>
