<svg xmlns="http://www.w3.org/2000/svg" width="64" height="64" viewBox="0 0 64 64"><rect width="64" height="64" fill="none"/><circle cx="6" cy="6" r="6" transform="translate(42.5 33)" fill="none" stroke="#000" stroke-miterlimit="10" stroke-width="2"/><path d="M48,47h1A10,10,0,0,1,59,57v2H38V57A10,10,0,0,1,48,47Z" fill="none" stroke="#000" stroke-linejoin="round" stroke-width="2"/><circle cx="6" cy="6" r="6" transform="translate(9.5 5)" fill="none" stroke="#000" stroke-miterlimit="10" stroke-width="2"/><path d="M15,19h1A10,10,0,0,1,26,29v2H5V29A10,10,0,0,1,15,19Z" fill="none" stroke="#000" stroke-linejoin="round" stroke-width="2"/><path d="M58.19,25.4A27,27,0,0,0,32,5l4,5" fill="none" stroke="#000" stroke-linecap="round" stroke-linejoin="round" stroke-width="2"/><path d="M6,39.44A27,27,0,0,0,32,59l-4-5" fill="none" stroke="#000" stroke-linecap="round" stroke-linejoin="round" stroke-width="2"/></svg>