<svg xmlns="http://www.w3.org/2000/svg" width="80" height="80" viewBox="0 0 80 80"><g transform="translate(-0.299 -0.299)"><rect width="80" height="80" transform="translate(0.299 0.299)" fill="none"/><g transform="translate(18.012 20.951)"><path d="M35.174-76.725H7.074V-39.9l10.659-9.69H39.05a5.814,5.814,0,0,0,5.814-5.814V-67.035" transform="translate(-7.074 76.725)" fill="none" stroke="#000" stroke-linecap="round" stroke-linejoin="round" stroke-width="2"/><path d="M45.236-64.666h6.783v29.012L43.3-43.406H24.888a5.814,5.814,0,0,1-5.814-5.814H22.95" transform="translate(-7.446 76.351)" fill="none" stroke="#000" stroke-linecap="round" stroke-linejoin="round" stroke-width="2"/><path d="M44.074-76.726v1.938h1.938" transform="translate(-8.222 76.726)" fill="none" stroke="#000" stroke-linecap="round" stroke-linejoin="round" stroke-width="2"/><g transform="translate(11.628 12.596)"><circle cx="1.453" cy="1.453" r="1.453"/><circle cx="1.453" cy="1.453" r="1.453" transform="translate(5.814)"/><circle cx="1.453" cy="1.453" r="1.453" transform="translate(11.628)"/></g></g></g></svg>