<svg xmlns="http://www.w3.org/2000/svg" width="54.658" height="53.215" viewBox="0 0 54.658 53.215">
  <g id="패스_70063" data-name="패스 70063" transform="translate(-101.71 -15.444)" fill="none" stroke-miterlimit="10">
    <path d="M115,56.191c21.4,21.074,37.167,9.055,37.167,9.055l2.459-2.421a5.779,5.779,0,0,0,0-8.263l-5.205-5.125a5.176,5.176,0,0,0-7.237,0L138.6,52.968a2.29,2.29,0,0,1-2,.622c-4.181-.714-17.94-4.166-19.068-18.819a2.233,2.233,0,0,1,.672-1.743l3.621-3.565a5.036,5.036,0,0,0,0-7.2l-5.2-5.123a5.945,5.945,0,0,0-8.317,0l-2.5,2.458S92.028,33.568,115,56.191Z" stroke="none"/>
    <path d="M 140.2778930664062 65.65891265869141 C 142.8759155273438 65.65891265869141 145.3569793701172 65.19020080566406 147.6521606445312 64.26581573486328 C 149.0273132324219 63.71197509765625 149.9239349365234 63.14958572387695 150.2413940429688 62.93663787841797 L 152.5253601074219 60.68780136108398 C 153.0690155029297 60.15250778198242 153.368408203125 59.44437026977539 153.368408203125 58.69383239746094 C 153.368408203125 57.94327926635742 153.0690155029297 57.23512649536133 152.5253753662109 56.69984817504883 L 147.3200988769531 51.57468032836914 C 146.9188232421875 51.17956924438477 146.3814697265625 50.96198654174805 145.8070220947266 50.96198654174805 C 145.2321014404297 50.96198654174805 144.6939697265625 51.17989349365234 144.2926635742188 51.57466506958008 L 140.70947265625 55.10274124145508 C 139.7166290283203 56.0835075378418 138.3976745605469 56.62368011474609 136.9954376220703 56.62375640869141 C 136.6976470947266 56.62375640869141 136.3973236083984 56.59855651855469 136.1027984619141 56.54884719848633 L 136.0971832275391 56.54789352416992 C 131.3676300048828 55.74043273925781 115.8357009887695 51.80038452148438 114.5429153442383 35.00429534912109 C 114.4245758056641 33.48164749145508 114.9923477172852 31.98250961303711 116.1006240844727 30.89127922058105 L 119.72265625 27.32497024536133 C 120.1215286254883 26.93255615234375 120.3412551879883 26.41387939453125 120.3413772583008 25.86446380615234 C 120.3414993286133 25.31421661376953 120.1214370727539 24.79446411132812 119.7217483520508 24.40092468261719 L 114.5182113647461 19.2774486541748 C 113.9720230102539 18.73967933654785 113.2427444458008 18.44351005554199 112.4646835327148 18.44351005554199 C 111.6866226196289 18.44351005554199 110.9573287963867 18.73967933654785 110.4111480712891 19.2774486541748 L 107.9513854980469 21.69937705993652 C 107.8502655029297 21.80988121032715 107.1761474609375 22.56844329833984 106.4761657714844 23.88695526123047 C 105.4821319580078 25.75937080383301 104.9012222290039 27.83120155334473 104.7495956420898 30.04487800598145 C 104.5342559814453 33.18849563598633 105.2068710327148 36.54275512695312 106.7487335205078 40.01447677612305 C 108.7587814331055 44.54037094116211 112.2445602416992 49.26386260986328 117.1092834472656 54.05372619628906 C 121.4387969970703 58.31663131713867 125.8316116333008 61.45233917236328 130.1656799316406 63.37372589111328 C 133.58544921875 64.8897705078125 136.9870758056641 65.65861511230469 140.2774353027344 65.65891265869141 L 140.2778930664062 65.65891265869141 M 140.2757873535156 68.65891265869141 C 133.77099609375 68.65834808349609 125.0018539428711 66.03500366210938 115.0044708251953 56.19143295288086 C 92.02764129638672 33.56810760498047 105.8096237182617 19.59806251525879 105.8096237182617 19.59806251525879 L 108.3063354492188 17.13975524902344 C 110.6033248901367 14.87808990478516 114.3260498046875 14.87810039520264 116.6230239868164 17.13975524902344 L 121.8265609741211 22.26321792602539 C 123.8463134765625 24.25190925598145 123.8463134765625 27.47655487060547 121.8265609741211 29.46355628967285 L 118.205436706543 33.02897262573242 C 117.7422714233398 33.48501586914062 117.4839630126953 34.12928009033203 117.5338973999023 34.77183151245117 C 118.661750793457 49.42510986328125 132.4213256835938 52.87692642211914 136.60205078125 53.59067916870117 C 137.3356475830078 53.71445465087891 138.0760192871094 53.48725891113281 138.6011810302734 52.96847915649414 L 142.1878509521484 49.43696975708008 C 144.1869812011719 47.47031402587891 147.4275360107422 47.4703369140625 149.4248962402344 49.43696975708008 L 154.6301727294922 54.56214141845703 C 156.9478302001953 56.84415435791016 156.9478302001953 60.54349517822266 154.6301727294922 62.82549285888672 L 152.1713562011719 65.24650573730469 C 152.1713562011719 65.24650573730469 147.6968383789062 68.65956115722656 140.2757873535156 68.65891265869141 Z" stroke="none" fill="#000"/>
  </g>
</svg>
