<svg id="통합검색" xmlns="http://www.w3.org/2000/svg" width="37.414" height="37.415" viewBox="0 0 37.414 37.415">
  <g id="Ellipse_1" data-name="Ellipse 1" transform="translate(-661.005 -50.345)" fill="none">
    <path d="M665.91,55.278a16.684,16.684,0,0,1,23.687,0,16.909,16.909,0,0,1,0,23.819,16.684,16.684,0,0,1-23.687,0A16.909,16.909,0,0,1,665.91,55.278Z" stroke="none"/>
    <path d="M 677.753662109375 52.34481811523438 C 673.8160400390625 52.34481811523438 670.113525390625 53.88729095458984 667.3283081054688 56.68818664550781 C 664.5401000976562 59.49176788330078 663.0045166015625 63.22039794921875 663.0045166015625 67.18718719482422 C 663.0045166015625 71.15402984619141 664.5401000976562 74.88265991210938 667.3283081054688 77.68634033203125 C 670.113525390625 80.48713684082031 673.8159790039062 82.02960968017578 677.753662109375 82.02960968017578 C 681.6912841796875 82.02960968017578 685.3936767578125 80.48713684082031 688.1788940429688 77.68629455566406 C 690.9671020507812 74.88265991210938 692.502685546875 71.15402984619141 692.502685546875 67.18718719482422 C 692.502685546875 63.22039794921875 690.9671020507812 59.49176788330078 688.1788940429688 56.68813323974609 C 685.3936767578125 53.88729095458984 681.6912841796875 52.34481811523438 677.753662109375 52.34481811523438 M 677.753662109375 50.3448486328125 C 682.0401611328125 50.3448486328125 686.3267211914062 51.98918914794922 689.5970458984375 55.27787017822266 C 696.137939453125 61.85476684570312 696.137939453125 72.51960754394531 689.5970458984375 79.09660339355469 C 683.0563354492188 85.67402648925781 672.4508666992188 85.67392730712891 665.91015625 79.09660339355469 C 659.3692626953125 72.51960754394531 659.3692626953125 61.85476684570312 665.91015625 55.27787017822266 C 669.1805419921875 51.98918914794922 673.4671020507812 50.3448486328125 677.753662109375 50.3448486328125 Z" stroke="none" fill="#000"/>
  </g>
  <line id="Shape_3" data-name="Shape 3" x2="8.421" y2="8.421" transform="translate(27.579 27.58)" fill="none" stroke="#000" stroke-linecap="round" stroke-linejoin="round" stroke-width="2"/>
</svg>
