<svg id="ico-map-sopt" xmlns="http://www.w3.org/2000/svg" width="20" height="20" viewBox="0 0 20 20">
  <rect id="사각형_318788" data-name="사각형 318788" width="20" height="20" fill="none"/>
  <g id="그룹_6489" data-name="그룹 6489" transform="translate(4 2.333)">
    <path id="패스_69785" data-name="패스 69785" d="M233.559,131.092a5.883,5.883,0,0,0-6,5.758,5.608,5.608,0,0,0,.722,2.74l.2.326,1.768,2.875,2.329,3.786a1.115,1.115,0,0,0,1.87.014l2.42-3.8,1.768-2.875c.07-.106.138-.215.2-.326a5.607,5.607,0,0,0,.722-2.74A5.883,5.883,0,0,0,233.559,131.092Z" transform="translate(-227.559 -131.092)" fill="#999"/>
    <circle id="타원_163" data-name="타원 163" cx="2.759" cy="2.759" r="2.759" transform="translate(3.153 3.247)" fill="#fff"/>
  </g>
</svg>
