<svg xmlns="http://www.w3.org/2000/svg" width="64" height="64" viewBox="0 0 64 64">
  <g id="그룹_458598" data-name="그룹 458598" transform="translate(-0.088 -0.129)">
    <g id="_17" data-name=" 17">
      <g id="그룹_456392" data-name="그룹 456392">
        <path id="Path_69907" data-name="Path 69907" d="M56.9,49.183V22.377L32.962,6.421,9.2,22.377V47.53" fill="none" stroke="#000" stroke-linecap="round" stroke-linejoin="round" stroke-width="2"/>
        <path id="Path_69907-2" data-name="Path 69907" d="M31.976,56.511H56.629" fill="none" stroke="#000" stroke-linecap="round" stroke-linejoin="round" stroke-width="2"/>
        <g id="그룹_458321" data-name="그룹 458321">
          <path id="선_126642" data-name="선 126642" d="M42.249,48.712" fill="none" stroke="#000" stroke-linecap="round" stroke-linejoin="round" stroke-width="2"/>
          <path id="패스_841831" data-name="패스 841831" d="M49.177,48.491H21.15a4,4,0,0,1-4-4h0V26.742H42.4" fill="none" stroke="#000" stroke-linecap="round" stroke-linejoin="round" stroke-width="2"/>
          <path id="패스_841831-2" data-name="패스 841831-2" d="M49.424,33.76V48.491" fill="none" stroke="#000" stroke-linecap="round" stroke-linejoin="round" stroke-width="2"/>
        </g>
        <path id="패스_841832" data-name="패스 841832" d="M48.619,26.469v1.4h1.4" fill="none" stroke="#000" stroke-linecap="round" stroke-linejoin="round" stroke-width="2"/>
        <g id="그룹_458299" data-name="그룹 458299">
          <path id="패스_841788" data-name="패스 841788" d="M26.125,34.3a.664.664,0,0,1,.379.111.4.4,0,0,1,.16.351v5.155a.4.4,0,0,1-.16.351.7.7,0,0,1-.758,0,.4.4,0,0,1-.159-.351V34.767a.4.4,0,0,1,.159-.351A.663.663,0,0,1,26.125,34.3Z"/>
          <path id="패스_841789" data-name="패스 841789" d="M30.318,34.355a3.043,3.043,0,0,1,.938.131,1.788,1.788,0,0,1,.645.361,1.455,1.455,0,0,1,.374.554,1.943,1.943,0,0,1,.122.691v.117a1.984,1.984,0,0,1-.126.7,1.549,1.549,0,0,1-.387.582,1.9,1.9,0,0,1-.649.4,2.513,2.513,0,0,1-.917.147H29.1v1.9a.4.4,0,0,1-.159.35.7.7,0,0,1-.758,0,.39.39,0,0,1-.16-.35V35.056a.75.75,0,0,1,.156-.547.8.8,0,0,1,.561-.152ZM29.1,37.121h1.07a1.475,1.475,0,0,0,.833-.2.815.815,0,0,0,.3-.732V36.1a.988.988,0,0,0-.075-.412.669.669,0,0,0-.215-.257.9.9,0,0,0-.332-.135,2.288,2.288,0,0,0-.421-.037H29.1Z"/>
          <path id="패스_841790" data-name="패스 841790" d="M37.1,34.355a.33.33,0,0,1,.286.134.6.6,0,0,1,0,.641.323.323,0,0,1-.286.134H35.648v4.664a.4.4,0,0,1-.161.351.7.7,0,0,1-.758,0,.392.392,0,0,1-.159-.351V35.264H33.112a.317.317,0,0,1-.285-.134.6.6,0,0,1,0-.641.322.322,0,0,1,.285-.134Z"/>
          <path id="패스_841791" data-name="패스 841791" d="M42.719,34.346a.543.543,0,0,1,.3.232.464.464,0,0,1,0,.408l-1.9,4.911a.8.8,0,0,1-.282.4.718.718,0,0,1-.383.1.691.691,0,0,1-.374-.1.777.777,0,0,1-.28-.4L37.947,35a.449.449,0,0,1,0-.407.565.565,0,0,1,.308-.241.671.671,0,0,1,.42-.016.441.441,0,0,1,.3.294l1.5,4.384,1.551-4.364a.468.468,0,0,1,.286-.307A.639.639,0,0,1,42.719,34.346Z"/>
        </g>
        <rect id="사각형_339261" data-name="사각형 339261" width="23.884" height="9.186" transform="translate(7.281 48.652)" fill="none" stroke="#000" stroke-linecap="round" stroke-linejoin="round" stroke-width="2"/>
        <line id="선_467" data-name="선 467" x2="1.837" transform="translate(10.968 53.307)" fill="none" stroke="#000" stroke-linecap="round" stroke-width="2"/>
        <line id="선_126736" data-name="선 126736" x2="2.095" y2="3.047" transform="translate(45.373 49.081)" fill="none" stroke="#000" stroke-linecap="round" stroke-linejoin="round" stroke-width="2"/>
      </g>
      <rect id="사각형_339262" data-name="사각형 339262" width="64" height="64" transform="translate(0.088 0.129)" fill="none"/>
    </g>
  </g>
</svg>
