<svg xmlns="http://www.w3.org/2000/svg" width="54" height="54" viewBox="0 0 54 54">
  <g id="그룹_456412" data-name="그룹 456412" transform="translate(-0.629)">
    <g id="그룹_457110" data-name="그룹 457110">
      <g id="타원_5412" data-name="타원 5412" transform="translate(0.629)" fill="#fff" stroke="#ddd" stroke-width="1">
        <circle cx="27" cy="27" r="27" stroke="none"/>
        <circle cx="27" cy="27" r="26.5" fill="none"/>
      </g>
      <g id="그룹_456440" data-name="그룹 456440" transform="translate(10.224 10.595)">
        <rect id="사각형_339182" data-name="사각형 339182" width="31" height="31" transform="translate(1.405 0.405)" fill="#fff" opacity="0"/>
        <path id="패스_841385" data-name="패스 841385" d="M34.425,15.992,23.637,7.854a.912.912,0,0,0-1.055,0L11.793,15.992a.852.852,0,0,0-.338.68V29.183a4.264,4.264,0,0,0,4.259,4.259h4.8a.852.852,0,0,0,.852-.852V26.867c0-.177.109-.3.207-.3h3.1c.1,0,.206.123.206.3v5.723a.852.852,0,0,0,.852.852h4.784a4.264,4.264,0,0,0,4.245-4.259V16.673A.852.852,0,0,0,34.425,15.992ZM33.06,29.183A2.559,2.559,0,0,1,30.5,31.739H26.615l-.028-4.871a1.96,1.96,0,0,0-1.91-2h-3.1a1.96,1.96,0,0,0-1.91,2v4.871h-3.95a2.558,2.558,0,0,1-2.555-2.555V17.1L23.109,9.59,33.06,17.1Z" transform="translate(-6.159 -4.481)"/>
      </g>
    </g>
  </g>
</svg>
