<svg xmlns="http://www.w3.org/2000/svg" width="80" height="80" viewBox="0 0 80 80">
  <g id="그룹_465086" data-name="그룹 465086" transform="translate(-584.001 -7014)">
    <g id="_9" data-name=" 9" transform="translate(591.895 7022.051)">
      <rect id="사각형_2711" data-name="사각형 2711" width="80" height="80" transform="translate(-7.894 -8.05)" fill="none"/>
      <path id="패스_842076" data-name="패스 842076" d="M36.735,3.956" fill="#be1e2d" stroke="#000" stroke-linejoin="round" stroke-width="2"/>
    </g>
    <g id="그룹_425124" data-name="그룹 425124" transform="translate(-901.357 6954.168)">
      <g id="사각형_318774" data-name="사각형 318774" transform="translate(1498.066 95.172)" fill="#fff" stroke="#000" stroke-width="3">
        <rect width="48.844" height="35.453" rx="8" stroke="none"/>
        <rect x="1.5" y="1.5" width="45.844" height="32.453" rx="6.5" fill="none"/>
      </g>
      <g id="사각형_318775" data-name="사각형 318775" transform="translate(1511.078 74.913)" fill="#fff" stroke="#000" stroke-width="3">
        <path d="M0,0H20.464a0,0,0,0,1,0,0V21.388a9,9,0,0,1-9,9H9a9,9,0,0,1-9-9V0A0,0,0,0,1,0,0Z" stroke="none"/>
        <path d="M3,1.5H17.464a1.5,1.5,0,0,1,1.5,1.5V21.388a7.5,7.5,0,0,1-7.5,7.5H9a7.5,7.5,0,0,1-7.5-7.5V3A1.5,1.5,0,0,1,3,1.5Z" fill="none"/>
      </g>
      <g id="패스_840892" data-name="패스 840892" transform="translate(1528.502 74.913)" fill="#fff">
        <path d="M 10.78412342071533 28.43836212158203 C 5.664843559265137 28.43836212158203 1.500003457069397 24.97886276245117 1.500003457069397 20.7265625 L 1.500003457069397 1.500002980232239 L 13.48015308380127 1.500002980232239 C 14.56353378295898 1.500002980232239 15.57160377502441 1.851442933082581 16.31866264343262 2.489583015441895 C 16.9980525970459 3.069912910461426 17.37221336364746 3.821512937545776 17.37221336364746 4.605903148651123 L 17.37221336364746 4.730473041534424 L 17.39276313781738 4.853322982788086 L 20.06717109680176 20.84469223022461 C 19.99088478088379 25.0427417755127 15.8559103012085 28.43836212158203 10.78412342071533 28.43836212158203 Z" stroke="none"/>
        <path d="M 3.000003814697266 3.000003814697266 L 3.000003814697266 20.7265625 C 3.000003814697266 22.29535293579102 3.748313903808594 23.79853248596191 5.10710334777832 24.95920181274414 C 6.601222991943359 26.23548316955566 8.617362976074219 26.93836212158203 10.78412342071533 26.93836212158203 C 12.95088386535645 26.93836212158203 14.9670238494873 26.23548316955566 16.46114349365234 24.95920181274414 C 17.75632286071777 23.85286903381348 18.4968433380127 22.4353084564209 18.56333923339844 20.9463939666748 L 15.87221336364746 4.855033874511719 L 15.87221336364746 4.605903625488281 C 15.87221336364746 3.846332550048828 14.88983345031738 3.000003814697266 13.48015308380127 3.000003814697266 L 3.000003814697266 3.000003814697266 M 3.814697265625e-06 3.814697265625e-06 L 13.48015308380127 3.814697265625e-06 C 16.45810317993164 3.814697265625e-06 18.87221336364746 2.0621337890625 18.87221336364746 4.605903625488281 L 21.5682430267334 20.7265625 C 21.5682430267334 25.81410217285156 16.74003410339355 29.93836212158203 10.78412342071533 29.93836212158203 C 4.828212738037109 29.93836212158203 3.814697265625e-06 25.81410217285156 3.814697265625e-06 20.7265625 L 3.814697265625e-06 3.814697265625e-06 Z" stroke="none" fill="#000"/>
      </g>
      <g id="패스_840972" data-name="패스 840972" transform="translate(1494.358 74.916)" fill="#fff">
        <path d="M 10.38436317443848 28.43836212158203 C 5.52946662902832 28.43836212158203 1.571591377258301 25.04046249389648 1.500960826873779 20.84062767028809 L 4.07701301574707 4.844392776489258 L 4.09609317779541 4.725913047790527 L 4.09609317779541 4.605903148651123 C 4.09609317779541 2.893302917480469 5.752403259277344 1.500002980232239 7.788273334503174 1.500002980232239 L 19.26872253417969 1.500002980232239 L 19.26872253417969 20.7265625 C 19.26872253417969 24.97886276245117 15.28321361541748 28.43836212158203 10.38436317443848 28.43836212158203 Z" stroke="none"/>
        <path d="M 7.788272857666016 3.000003814697266 C 6.599992752075195 3.000003814697266 5.59609317779541 3.73541259765625 5.59609317779541 4.605903625488281 L 5.59609317779541 4.845922470092773 L 3.004299163818359 20.93991088867188 C 3.138618469238281 24.26659202575684 6.39760684967041 26.93836212158203 10.38436317443848 26.93836212158203 C 14.45611381530762 26.93836212158203 17.76872253417969 24.15176391601562 17.76872253417969 20.7265625 L 17.76872253417969 3.000003814697266 L 7.788272857666016 3.000003814697266 M 7.788272857666016 3.814697265625e-06 L 20.76872253417969 3.814697265625e-06 L 20.76872253417969 20.7265625 C 20.76872253417969 25.81410217285156 16.11948394775391 29.93836212158203 10.38436317443848 29.93836212158203 C 4.649242401123047 29.93836212158203 3.814697265625e-06 25.81410217285156 3.814697265625e-06 20.7265625 L 2.596092224121094 4.605903625488281 C 2.596092224121094 2.0621337890625 4.920713424682617 3.814697265625e-06 7.788272857666016 3.814697265625e-06 Z" stroke="none" fill="#000"/>
      </g>
      <path id="합치기_16" data-name="합치기 16" d="M1.536,18.374H1.6a12.306,12.306,0,1,1,21.429,0h.1L11.451,35.291Z" transform="translate(1530.517 95.252)" fill="#fff" stroke="#000" stroke-linecap="round" stroke-linejoin="round" stroke-width="3"/>
      <g id="타원_228" data-name="타원 228" transform="translate(1535.234 100.661)" fill="none" stroke="#000" stroke-width="3">
        <circle cx="7.418" cy="7.418" r="7.418" stroke="none"/>
        <circle cx="7.418" cy="7.418" r="5.918" fill="none"/>
      </g>
      <rect id="사각형_341659" data-name="사각형 341659" width="19" height="17" transform="translate(1537.858 68.832)" fill="#fff"/>
      <path id="패스_844081" data-name="패스 844081" d="M44.074-75.725v3.687h3.687" transform="translate(1500.782 150.558)" fill="none" stroke="#000" stroke-linecap="round" stroke-linejoin="round" stroke-width="3"/>
    </g>
  </g>
</svg>
