<svg xmlns="http://www.w3.org/2000/svg" width="80" height="80" viewBox="0 0 80 80">
  <g id="그룹_459003" data-name="그룹 459003" transform="translate(8 7.985)">
    <g id="그룹_544" data-name="그룹 544">
      <g id="그룹_5952" data-name="그룹 5952">
        <g id="그룹_5936" data-name="그룹 5936">
          <path id="패스_678" data-name="패스 678" d="M53.251,41.253V60.477H18.511a7.836,7.836,0,0,1-7.836-7.836V5.652H23.226" fill="none" stroke="#000" stroke-linecap="round" stroke-linejoin="round" stroke-width="2"/>
          <line id="선_355" data-name="선 355" y1="15.163" transform="translate(53.251 16.1)" fill="none" stroke="#000" stroke-linecap="round" stroke-linejoin="round" stroke-width="2"/>
        </g>
      </g>
      <path id="패스_679" data-name="패스 679" d="M53.256,8.269H50.644V5.657" fill="none" stroke="#000" stroke-linecap="round" stroke-linejoin="round" stroke-width="2"/>
    </g>
    <path id="패스_680" data-name="패스 680" d="M47.527,46.975l-5.267.274.274-5.267,19.53-19.53,4.99,5Z" fill="none" stroke="#000" stroke-linecap="round" stroke-linejoin="round" stroke-width="2"/>
    <path id="패스_681" data-name="패스 681" d="M38.453,2.722,36.854.449H27.08l-1.6,2.273h-2.25V7.27H40.7V2.722Z" fill="none" stroke="#000" stroke-linecap="round" stroke-linejoin="round" stroke-width="2"/>
    <path id="패스_709" data-name="패스 709" d="M28.1,19.6l4.675,5.155,7.616-7.823" fill="none" stroke="#000" stroke-linecap="round" stroke-linejoin="round" stroke-width="2"/>
    <line id="선_364" data-name="선 364" x2="21.864" transform="translate(21.032 34.85)" fill="none" stroke="#000" stroke-linecap="round" stroke-linejoin="round" stroke-width="2"/>
    <line id="선_365" data-name="선 365" x2="10.931" transform="translate(21.032 43.933)" fill="none" stroke="#000" stroke-linecap="round" stroke-linejoin="round" stroke-width="2"/>
    <rect id="사각형_339881" data-name="사각형 339881" width="80" height="80" transform="translate(-8 -7.985)" fill="none"/>
  </g>
</svg>
