<svg xmlns="http://www.w3.org/2000/svg" width="18" height="17.999" viewBox="0 0 18 17.999"><g transform="translate(90.496 -55.758)"><path d="M9.574,85.822l.688-.688a1.372,1.372,0,0,0,.267-.382,1.725,1.725,0,0,0,.115-.5c0-.42-.458-.229-.65-.038-.191.267-.42.5-.65.764Zm.956,2.6a4.812,4.812,0,0,0,.993-.879,1.336,1.336,0,0,0,.153-1.147c-.115-.267-.344-.344-.8-.115-.268.267-.535.573-.841.841a2.786,2.786,0,0,0,.5,1.3Zm6.611-9.248c1.911-.115,3.1.5,3.44,1.8-.726.115-1.414.23-2.14.344a1.225,1.225,0,0,0-1.414-.841c-1.07.153-1.529.611-1.529,1.681.115,1.529.688,2.255,1.873,2.369a1.446,1.446,0,0,0,1.567-1.8c.726-.076,1.491-.153,2.255-.23a3,3,0,0,1-2.369,3.86,6.57,6.57,0,0,1-3.325.153,4.02,4.02,0,0,1-2.522-3.363,3.775,3.775,0,0,1,1.835-3.4,6.32,6.32,0,0,1,2.331-.573Zm.382-1.414a8.39,8.39,0,0,0-5.58,1.911,8.57,8.57,0,0,0-3.21,4.853c.267-.382.5-.726.726-1.07A4.74,4.74,0,0,1,11.1,81.924c1.3-.382,1.567.458.726,2.6,1.529,0,2.14,1.07,1.758,3.172a2.422,2.422,0,0,1-1.3,1.681,6.993,6.993,0,0,0-1.528,1.758c-1.529-1.3-2.255-3.554-2.026-6.5a10.778,10.778,0,0,0-.229,2.14,8.875,8.875,0,0,0,9.019,8.981,8.486,8.486,0,0,0,6.268-2.6,8.908,8.908,0,0,0,0-12.8,8.488,8.488,0,0,0-6.268-2.6Z" transform="translate(-99 -22)" fill="#cc262d" fill-rule="evenodd"/></g></svg>