<svg xmlns="http://www.w3.org/2000/svg" width="80" height="80" viewBox="0 0 80 80">
  <g id="그룹_457509" data-name="그룹 457509" transform="translate(-32.545 -58.029)">
    <g id="그룹_457508" data-name="그룹 457508">
      <rect id="사각형_339256" data-name="사각형 339256" width="80" height="80" transform="translate(32.545 58.029)" fill="none"/>
    </g>
    <g id="그룹_458938" data-name="그룹 458938">
      <path id="패스_842151" data-name="패스 842151" d="M54.865,116.992a5.826,5.826,0,0,1,3.806,1.125,3.971,3.971,0,0,1,1.364,3.25v.375a3.933,3.933,0,0,1-2.795,4.025l2.9,5.456a.935.935,0,0,1,.1.813,1.037,1.037,0,0,1-.538.572,1.559,1.559,0,0,1-.837.11.841.841,0,0,1-.615-.507l-3.125-6.093a1.592,1.592,0,0,1-.363.048H51.476v5.65a.776.776,0,0,1-.341.707,1.387,1.387,0,0,1-.781.221,1.346,1.346,0,0,1-.77-.221.786.786,0,0,1-.33-.707v-13.2a1.744,1.744,0,0,1,.362-1.272,1.921,1.921,0,0,1,1.333-.354ZM54.4,124.3a4.2,4.2,0,0,0,2.642-.659,2.317,2.317,0,0,0,.812-1.912v-.3a2.313,2.313,0,0,0-.791-1.912,3.868,3.868,0,0,0-2.441-.64H51.477V124.3Z" stroke="#000" stroke-miterlimit="10" stroke-width="0.3"/>
      <path id="패스_842152" data-name="패스 842152" d="M68.06,120.814a5.9,5.9,0,0,1,2.08.354,4.466,4.466,0,0,1,1.605,1.025,4.526,4.526,0,0,1,1.034,1.636,6.275,6.275,0,0,1,.362,2.2v.043a1.6,1.6,0,0,1-.354,1.179,1.7,1.7,0,0,1-1.21.341H64.935v.087a3.364,3.364,0,0,0,.835,2.443,3.22,3.22,0,0,0,2.42.858,7.6,7.6,0,0,0,1.727-.175,6.281,6.281,0,0,0,1.44-.551.929.929,0,0,1,.693-.075.813.813,0,0,1,.5.471,1.056,1.056,0,0,1,.087.716.792.792,0,0,1-.417.516,7.208,7.208,0,0,1-1.794.684,9.994,9.994,0,0,1-2.32.236,5.279,5.279,0,0,1-3.89-1.4,5.687,5.687,0,0,1-1.414-4.212v-.75a5.728,5.728,0,0,1,1.414-4.213A5.2,5.2,0,0,1,68.06,120.814Zm-.043,1.827a2.973,2.973,0,0,0-2.287.846,3.258,3.258,0,0,0-.8,2.32v.132H71.06v-.2a3.267,3.267,0,0,0-.75-2.263,2.918,2.918,0,0,0-2.291-.835Z" stroke="#000" stroke-miterlimit="10" stroke-width="0.3"/>
      <path id="패스_842153" data-name="패스 842153" d="M81.81,120.814a4.146,4.146,0,0,1,3.079,1.112,4.329,4.329,0,0,1,1.1,3.181v6.734a.764.764,0,0,1-.33.68,1.378,1.378,0,0,1-1.5,0,.762.762,0,0,1-.33-.68v-6.229a2.968,2.968,0,0,0-.693-2.24,2.74,2.74,0,0,0-1.946-.649,3.1,3.1,0,0,0-1.134.209,3,3,0,0,0-.942.582,2.77,2.77,0,0,0-.648.915,2.974,2.974,0,0,0-.242,1.22v6.192a.753.753,0,0,1-.33.68,1.349,1.349,0,0,1-.77.222,1.306,1.306,0,0,1-.75-.222.759.759,0,0,1-.33-.68v-9.993a.748.748,0,0,1,.319-.672,1.326,1.326,0,0,1,1.43,0,.749.749,0,0,1,.32.672v.77h.043a3.231,3.231,0,0,1,1.407-1.287A4.783,4.783,0,0,1,81.81,120.814Z" stroke="#000" stroke-miterlimit="10" stroke-width="0.3"/>
      <path id="패스_842154" data-name="패스 842154" d="M91.245,117.888a1.381,1.381,0,0,1,.77.221.784.784,0,0,1,.33.707v2.267H94.9a.637.637,0,0,1,.561.263,1.073,1.073,0,0,1,.188.64,1.028,1.028,0,0,1-.188.625.648.648,0,0,1-.561.25H92.349v6.292a2.361,2.361,0,0,0,.308,1.4,1.212,1.212,0,0,0,1.033.408,3.11,3.11,0,0,0,1.079-.2.783.783,0,0,1,.59.012.8.8,0,0,1,.417.538.96.96,0,0,1,.011.682.836.836,0,0,1-.45.462,4.3,4.3,0,0,1-1.8.352,3.361,3.361,0,0,1-2.574-.857,4.056,4.056,0,0,1-.793-2.794v-6.293H88.849a.648.648,0,0,1-.563-.25,1.032,1.032,0,0,1-.187-.625,1.09,1.09,0,0,1,.187-.64.646.646,0,0,1,.563-.261h1.318v-2.27a.786.786,0,0,1,.33-.707A1.326,1.326,0,0,1,91.245,117.888Z" stroke="#000" stroke-miterlimit="10" stroke-width="0.3"/>
    </g>
    <g id="그룹_458939" data-name="그룹 458939">
      <path id="패스_841464" data-name="패스 841464" d="M71.794,64.353v2.215h2.215" fill="none" stroke="#000" stroke-linecap="round" stroke-linejoin="round" stroke-width="2"/>
      <g id="그룹_457498" data-name="그룹 457498">
        <path id="사각형_339246" data-name="사각형 339246" d="M74.009,76.119v30.6H54.531a4.375,4.375,0,0,1-4.375-4.375V64.388H62.081" fill="#fff" stroke="#000" stroke-linecap="round" stroke-linejoin="round" stroke-width="2"/>
        <line id="선_20" data-name="선 20" x2="4.261" transform="translate(59.952 102.284)" fill="none" stroke="#000" stroke-linecap="round" stroke-miterlimit="10" stroke-width="2"/>
      </g>
      <g id="그룹_458142" data-name="그룹 458142">
        <circle id="타원_8358" data-name="타원 8358" cx="12.849" cy="12.849" r="12.849" transform="translate(70.051 84.249)" fill="#fff" stroke="#000" stroke-linecap="round" stroke-linejoin="round" stroke-width="2"/>
        <ellipse id="타원_8359" data-name="타원 8359" cx="5.592" cy="12.844" rx="5.592" ry="12.844" transform="translate(77.27 84.253)" fill="#fff" stroke="#000" stroke-linecap="round" stroke-linejoin="round" stroke-width="2"/>
        <line id="선_491" data-name="선 491" x2="25.495" transform="translate(70.152 96.997)" fill="none" stroke="#000" stroke-linecap="round" stroke-linejoin="round" stroke-width="2"/>
      </g>
    </g>
  </g>
</svg>
