<svg xmlns="http://www.w3.org/2000/svg" width="64" height="64" viewBox="0 0 64 64">
  <g id="일시정지_해제" data-name="일시정지 해제" transform="translate(0 -0.216)">
    <rect id="사각형_2655" data-name="사각형 2655" width="64" height="64" transform="translate(0 0.216)" fill="none"/>
    <path id="패스_70046" data-name="패스 70046" d="M51.761,24.022q.15.353.287.716a21.71,21.71,0,0,1,.565,13.732" transform="translate(0.49 -0.298)" fill="none" stroke="#000" stroke-linecap="round" stroke-linejoin="round" stroke-width="2"/>
    <path id="패스_70046-2" data-name="패스 70046" d="M39.2,53.6a21.71,21.71,0,1,1,1.877-40.9" transform="translate(-0.672 -0.668)" fill="none" stroke="#000" stroke-linecap="round" stroke-linejoin="round" stroke-width="2"/>
    <g id="그룹_458989" data-name="그룹 458989" transform="translate(27.897 24.39)">
      <line id="선_463" data-name="선 463" y2="15.526" transform="translate(0 0)" fill="none" stroke="#000" stroke-linecap="round" stroke-miterlimit="10" stroke-width="2"/>
      <line id="선_464" data-name="선 464" y2="15.526" transform="translate(8.006 0)" fill="none" stroke="#000" stroke-linecap="round" stroke-miterlimit="10" stroke-width="2"/>
    </g>
    <ellipse id="타원_207" data-name="타원 207" cx="10.543" cy="10.543" rx="10.543" ry="10.543" transform="translate(37.696 37.281)" fill="none" stroke="#000" stroke-miterlimit="10" stroke-width="2"/>
    <path id="패스_842089" data-name="패스 842089" d="M44.567,44.36l6.869,6.927" transform="translate(0.284 0.286)" fill="none" stroke="#000" stroke-linecap="round" stroke-miterlimit="10" stroke-width="2"/>
    <path id="패스_842090" data-name="패스 842090" d="M51.466,44.388l-6.927,6.869" transform="translate(0.283 0.286)" fill="none" stroke="#000" stroke-linecap="round" stroke-miterlimit="10" stroke-width="2"/>
    <path id="패스_841793" data-name="패스 841793" d="M47.185,15.641v2.572h2.572" transform="translate(0.359 -0.538)" fill="none" stroke="#000" stroke-linecap="round" stroke-linejoin="round" stroke-width="2"/>
  </g>
</svg>
