<svg xmlns="http://www.w3.org/2000/svg" width="64" height="64" viewBox="0 0 64 64">
  <g id="그룹_458992" data-name="그룹 458992" transform="translate(0 0.015)">
    <g id="그룹_458991" data-name="그룹 458991">
      <g id="그룹_458990" data-name="그룹 458990">
        <path id="패스_842178" data-name="패스 842178" d="M60.295,12.83V30.3a9.156,9.156,0,0,1-2.64,6.47L47.455,47.2a.9.9,0,0,1-.1.09,2.731,2.731,0,0,0-1.03,2.14v2.15h3.23a.986.986,0,0,1,.99.99V58.5h5.23a.99.99,0,0,1,0,1.98H8.235a.99.99,0,1,1,0-1.98h5.23V52.57a.984.984,0,0,1,.98-.99h3.24V49.43a2.71,2.71,0,0,0-1.04-2.14l-.09-.09L6.345,36.77A9.2,9.2,0,0,1,3.7,30.3V12.83a4.58,4.58,0,0,1,9.16-.08l.14,11.86a8.058,8.058,0,0,0,.13,1.29,4.2,4.2,0,0,1,.56-.7l.06-.07a4.394,4.394,0,0,1,6.21-.01c2.83,2.84,7.53,7.54,10.36,10.37a9.166,9.166,0,0,1,1.68,2.31,9.166,9.166,0,0,1,1.68-2.31c2.83-2.83,7.53-7.53,10.36-10.37a4.394,4.394,0,0,1,6.21.01l.06.07a4.57,4.57,0,0,1,.56.69,7.823,7.823,0,0,0,.13-1.28l.14-11.85a4.575,4.575,0,0,1,9.15.07ZM58.325,30.3V12.83a2.6,2.6,0,0,0-5.2-.04l-.14,11.84a9.894,9.894,0,0,1-2.37,6.25c-.01.01-.02.01-.03.02s-.01.02-.02.03l-8.33,8.47a.97.97,0,0,1-.7.3,1.008,1.008,0,0,1-.7-.28.993.993,0,0,1-.01-1.4L49.1,29.6a2.3,2.3,0,0,0-.19-3.01l-.06-.06a2.406,2.406,0,0,0-1.71-.71,2.381,2.381,0,0,0-1.7.7c-2.84,2.84-7.53,7.54-10.36,10.37a7.087,7.087,0,0,0-2.09,5.05V52.22a1.046,1.046,0,0,1-.04.17,1.163,1.163,0,0,1,.04.18V58.5h15.58V53.56h-9.14a.99.99,0,1,1,0-1.98h4.91V49.43a4.661,4.661,0,0,1,1.74-3.65l10.16-10.39A7.247,7.247,0,0,0,58.325,30.3ZM31.055,52.39a1.046,1.046,0,0,1-.04-.17V41.94a7.087,7.087,0,0,0-2.09-5.05c-2.83-2.83-7.53-7.53-10.36-10.37a2.414,2.414,0,0,0-3.41.01l-.06.06a2.287,2.287,0,0,0-.19,3.01l8.28,8.42a.993.993,0,0,1-.01,1.4,1.008,1.008,0,0,1-.7.28.97.97,0,0,1-.7-.3l-8.33-8.47c-.01-.01-.02-.02-.02-.03s-.02-.01-.03-.02a9.889,9.889,0,0,1-2.37-6.24l-.14-11.86a2.6,2.6,0,0,0-5.2.05V30.3a7.247,7.247,0,0,0,2.08,5.09l10.16,10.39a4.661,4.661,0,0,1,1.74,3.65v2.15h4.91a.99.99,0,1,1,0,1.98h-9.14V58.5h15.58V52.57A1.163,1.163,0,0,1,31.055,52.39Z"/>
        <path id="패스_842179" data-name="패스 842179" d="M45.965,12.5a4.7,4.7,0,0,1-.03.75,9.563,9.563,0,0,1-.5,2.42c-1.13,3.65-4.31,8.87-13,13.08a.935.935,0,0,1-.43.1.907.907,0,0,1-.43-.1c-8.7-4.21-11.87-9.44-13-13.08a9.364,9.364,0,0,1-.5-2.44c-.04-.43-.04-.7-.04-.74,0-4.96,3.74-9,8.33-9a7.946,7.946,0,0,1,5.64,2.38,7.946,7.946,0,0,1,5.64-2.38C42.235,3.49,45.965,7.53,45.965,12.5Zm-2,.59c.03-.34.03-.53.03-.55,0-3.92-2.85-7.08-6.35-7.08a6.115,6.115,0,0,0-4.85,2.51,1.033,1.033,0,0,1-1.58,0,6.114,6.114,0,0,0-4.85-2.51c-3.5,0-6.35,3.16-6.35,7.04,0,.06,0,.25.03.56a7.737,7.737,0,0,0,.41,1.99c1,3.24,3.81,7.85,11.55,11.71,7.74-3.86,10.55-8.47,11.54-11.69A7.787,7.787,0,0,0,43.965,13.09Z"/>
      </g>
      <line id="선_126724" data-name="선 126724" x2="15.416" transform="translate(24.297 52.592)" fill="#43aac2" stroke="#000" stroke-miterlimit="10" stroke-width="2"/>
      <rect id="사각형_340039" data-name="사각형 340039" width="33.14" height="5.106" transform="translate(15.435 53.394)" fill="#fff"/>
    </g>
    <rect id="사각형_2655" data-name="사각형 2655" width="64" height="64" transform="translate(0 -0.015)" fill="none"/>
  </g>
</svg>
