<svg xmlns="http://www.w3.org/2000/svg" width="54" height="54" viewBox="0 0 54 54">
  <g id="그룹_456690" data-name="그룹 456690" transform="translate(0.27 0.378)">
    <g id="타원_5413" data-name="타원 5413" transform="translate(-0.27 -0.378)" fill="none" stroke="#ddd" stroke-width="1">
      <circle cx="27" cy="27" r="27" stroke="none"/>
      <circle cx="27" cy="27" r="26.5" fill="none"/>
    </g>
    <g id="icon" transform="translate(9.838 9.838)">
      <rect id="사각형_2722" data-name="사각형 2722" width="32" height="32" transform="translate(-0.108 -0.216)" fill="none" opacity="0"/>
      <g id="그룹_456693" data-name="그룹 456693" transform="translate(4.857 3.302)">
        <path id="Fill-2" d="M240.378,272.239a6.137,6.137,0,0,1,2.913-5.14,6.314,6.314,0,0,0-4.94-2.675c-2.075-.219-4.093,1.247-5.15,1.247-1.076,0-2.713-1.218-4.464-1.19a6.564,6.564,0,0,0-5.53,3.379c-2.389,4.141-.609,10.233,1.685,13.583,1.152,1.637,2.484,3.474,4.245,3.408,1.713-.067,2.361-1.095,4.426-1.095s2.656,1.095,4.445,1.057c1.847-.029,3-1.647,4.112-3.3A13.43,13.43,0,0,0,244,277.684a5.937,5.937,0,0,1-3.617-5.445" transform="translate(-222.072 -257.903)"/>
        <path id="Fill-3" d="M419.695,153.218a6.039,6.039,0,0,0,1.38-4.322,6.123,6.123,0,0,0-3.969,2.056,5.791,5.791,0,0,0-1.418,4.16,5.073,5.073,0,0,0,4.007-1.894" transform="translate(-404.766 -148.896)"/>
      </g>
    </g>
  </g>
</svg>
