<svg xmlns="http://www.w3.org/2000/svg" width="64" height="64" viewBox="0 0 64 64"><g transform="translate(18.845 9.376)"><line x2="2.984" transform="translate(11.919 41.778)" fill="none" stroke="#000" stroke-linecap="round" stroke-linejoin="round" stroke-width="2"/><path d="M38.925,7.441v35.81H18.037a5.966,5.966,0,0,1-5.967-5.967V-2.506H28.976" transform="translate(-12.07 2.506)" fill="none" stroke="#000" stroke-linecap="round" stroke-linejoin="round" stroke-width="2"/><path d="M49.576-2.506V-.517h1.989" transform="translate(-24.711 2.506)" fill="none" stroke="#000" stroke-linecap="round" stroke-linejoin="round" stroke-width="2"/></g><rect width="64" height="64" fill="none"/><circle cx="10.939" cy="10.939" r="10.939" transform="translate(32.272 34.252)" fill="#fff" stroke="#000" stroke-miterlimit="10" stroke-width="2"/><line x2="6.964" y2="6.964" transform="translate(51.164 53.143)" fill="#fff" stroke="#000" stroke-linecap="round" stroke-miterlimit="10" stroke-width="2"/><g transform="translate(22.122 20.317)"><path d="M20.374,14a2.535,2.535,0,0,1,1.658.49,1.73,1.73,0,0,1,.594,1.415v.163a1.714,1.714,0,0,1-1.217,1.754L22.673,20.2a.4.4,0,0,1,.043.353.454.454,0,0,1-.235.25.678.678,0,0,1-.364.048.365.365,0,0,1-.268-.221l-1.361-2.653a.711.711,0,0,1-.158.021H18.9v2.461a.339.339,0,0,1-.149.308.608.608,0,0,1-.341.1.591.591,0,0,1-.335-.1.344.344,0,0,1-.143-.308V14.71a.759.759,0,0,1,.158-.554.839.839,0,0,1,.58-.154Zm-.2,3.182a1.832,1.832,0,0,0,1.151-.287,1.011,1.011,0,0,0,.354-.833v-.132a1.01,1.01,0,0,0-.345-.833,1.689,1.689,0,0,0-1.063-.278H18.9v2.364Z" transform="translate(-17.926 -13.997)" stroke="#000" stroke-miterlimit="10" stroke-width="0.5"/><path d="M29.121,16.513a2.558,2.558,0,0,1,.906.154,1.943,1.943,0,0,1,.7.447,1.971,1.971,0,0,1,.45.713,2.73,2.73,0,0,1,.158.959V18.8a.7.7,0,0,1-.154.513.746.746,0,0,1-.527.149H27.759V19.5a1.467,1.467,0,0,0,.364,1.065,1.4,1.4,0,0,0,1.054.373,3.3,3.3,0,0,0,.752-.076,2.723,2.723,0,0,0,.627-.24.4.4,0,0,1,.3-.032.355.355,0,0,1,.218.2.467.467,0,0,1,.038.312.348.348,0,0,1-.182.225,3.17,3.17,0,0,1-.782.3,4.388,4.388,0,0,1-1.01.1,2.3,2.3,0,0,1-1.695-.61,2.48,2.48,0,0,1-.616-1.835v-.327a2.5,2.5,0,0,1,.616-1.834A2.263,2.263,0,0,1,29.121,16.513Zm-.019.8a1.294,1.294,0,0,0-1,.369,1.422,1.422,0,0,0-.347,1.01v.058h2.668v-.087a1.431,1.431,0,0,0-.327-.987,1.273,1.273,0,0,0-1-.363Z" transform="translate(-20.924 -14.844)" stroke="#000" stroke-miterlimit="10" stroke-width="0.5"/><path d="M38.045,16.513A1.8,1.8,0,0,1,39.386,17a1.883,1.883,0,0,1,.48,1.386v2.933a.332.332,0,0,1-.144.3.6.6,0,0,1-.654,0,.332.332,0,0,1-.143-.3V18.6a1.3,1.3,0,0,0-.3-.976,1.2,1.2,0,0,0-.848-.282,1.367,1.367,0,0,0-.494.091,1.309,1.309,0,0,0-.41.254,1.207,1.207,0,0,0-.282.4,1.3,1.3,0,0,0-.105.532v2.7a.326.326,0,0,1-.144.3.585.585,0,0,1-.335.1.566.566,0,0,1-.326-.1.329.329,0,0,1-.144-.3V16.963a.326.326,0,0,1,.139-.293.579.579,0,0,1,.623,0,.328.328,0,0,1,.139.293V17.3h.019a1.412,1.412,0,0,1,.613-.561A2.086,2.086,0,0,1,38.045,16.513Z" transform="translate(-23.86 -14.844)" stroke="#000" stroke-miterlimit="10" stroke-width="0.5"/><path d="M44.824,14.592a.6.6,0,0,1,.335.1A.34.34,0,0,1,45.3,15v.988h1.111a.278.278,0,0,1,.245.114.465.465,0,0,1,.082.278.445.445,0,0,1-.082.272.28.28,0,0,1-.245.109H45.306V19.5a1.028,1.028,0,0,0,.134.607.528.528,0,0,0,.45.178,1.342,1.342,0,0,0,.47-.087.337.337,0,0,1,.257.006.345.345,0,0,1,.182.234.417.417,0,0,1,0,.3.365.365,0,0,1-.2.2,1.87,1.87,0,0,1-.786.154,1.465,1.465,0,0,1-1.121-.374,1.766,1.766,0,0,1-.345-1.217V16.758h-.574a.284.284,0,0,1-.245-.109.453.453,0,0,1-.082-.272.479.479,0,0,1,.082-.279.28.28,0,0,1,.245-.113h.574V15a.344.344,0,0,1,.144-.308A.585.585,0,0,1,44.824,14.592Z" transform="translate(-26.529 -14.197)" stroke="#000" stroke-miterlimit="10" stroke-width="0.5"/></g></svg>