<svg xmlns="http://www.w3.org/2000/svg" width="64" height="64" viewBox="0 0 64 64">
  <g id="그룹_459066" data-name="그룹 459066" transform="translate(-80.949 -59.036)">
    <g id="그룹_457527" data-name="그룹 457527" transform="translate(89.505 68.032)">
      <path id="패스_841398" data-name="패스 841398" d="M139.7,105.217h2a6.5,6.5,0,1,0,.12-13H139.7" transform="translate(-101.255 -74.668)" fill="none" stroke="#000" stroke-linecap="round" stroke-linejoin="round" stroke-width="2"/>
      <path id="패스_841399" data-name="패스 841399" d="M120.278,71.208a15.008,15.008,0,0,0-20.192,14.08v15.551h-2a6.5,6.5,0,0,1,0-13h2" transform="translate(-91.644 -70.281)" fill="none" stroke="#000" stroke-linecap="round" stroke-linejoin="round" stroke-width="2"/>
      <path id="패스_841400" data-name="패스 841400" d="M137.075,89.036v19.613a9.506,9.506,0,0,1-9.5,9.507h-.991" transform="translate(-98.631 -74.032)" fill="none" stroke="#000" stroke-linecap="round" stroke-linejoin="round" stroke-width="2"/>
      <rect id="사각형_339531" data-name="사각형 339531" width="9" height="4" rx="0.533" transform="translate(18.956 42.021)" fill="none" stroke="#000" stroke-linecap="round" stroke-linejoin="round" stroke-width="2"/>
      <path id="패스_841401" data-name="패스 841401" d="M137.986,78.577h-2v-2" transform="translate(-100.512 -71.54)" fill="none" stroke="#000" stroke-linecap="round" stroke-linejoin="round" stroke-width="2"/>
    </g>
    <rect id="사각형_339532" data-name="사각형 339532" width="64" height="64" transform="translate(80.949 59.036)" fill="none"/>
  </g>
</svg>
