<svg xmlns="http://www.w3.org/2000/svg" width="64" height="64" viewBox="0 0 64 64">
  <g id="_14" data-name=" 14" transform="translate(-0.088 -0.023)">
    <g id="그룹_456346" data-name="그룹 456346">
      <path id="패스_841006" data-name="패스 841006" d="M55.088,44.023H14.827a5.739,5.739,0,0,1-5.739-5.739V13.023h36" fill="none" stroke="#000" stroke-linecap="round" stroke-linejoin="round" stroke-width="2"/>
      <path id="패스_841006-2" data-name="패스 841006" d="M55.088,23.023v21" fill="none" stroke="#000" stroke-linecap="round" stroke-linejoin="round" stroke-width="2"/>
      <line id="선_397" data-name="선 397" y2="8" transform="translate(32.088 44.023)" fill="none" stroke="#000" stroke-linecap="round" stroke-linejoin="round" stroke-width="2"/>
      <path id="패스_841007" data-name="패스 841007" d="M53.088,13.023v2h2" fill="none" stroke="#000" stroke-linecap="round" stroke-linejoin="round" stroke-width="2"/>
      <path id="패스_841008" data-name="패스 841008" d="M20.088,55.023l12.03-3h-.03l12,3" fill="none" stroke="#000" stroke-linecap="round" stroke-linejoin="round" stroke-width="2"/>
      <g id="그룹_6286" data-name="그룹 6286">
        <path id="패스_840870" data-name="패스 840870" d="M40.189,24.308v-2.78H38.138v2.779h-2.71v1.96h2.71v2.747H40.19V26.267h2.728V24.308Z"/>
        <path id="패스_840871" data-name="패스 840871" d="M31.179,24.32v6.373c0,1.761-.875,2.627-2.353,2.627s-2.353-.868-2.353-2.627V24.32h-2.5v6.412c0,3.479,1.85,4.786,4.764,4.786h.179c2.914,0,4.764-1.307,4.764-4.786V24.323Z"/>
      </g>
    </g>
    <rect id="사각형_339177" data-name="사각형 339177" width="64" height="64" transform="translate(0.088 0.023)" fill="none"/>
  </g>
</svg>
