<svg xmlns="http://www.w3.org/2000/svg" width="43.919" height="26.927" viewBox="0 0 43.919 26.927"><defs><style>.a{fill:#bbb;}</style></defs><path class="a" d="M42.955,8.309l4.758-5a1.973,1.973,0,0,0,0-2.731,1.751,1.751,0,0,0-2.6,0L39.7,6.27a20.534,20.534,0,0,0-9.662-2.423A20.828,20.828,0,0,0,20.3,6.27L14.847.577a1.751,1.751,0,0,0-2.6,0,1.973,1.973,0,0,0,0,2.731l4.794,5.039a23.407,23.407,0,0,0-8.967,18.58H52A23.331,23.331,0,0,0,42.955,8.309ZM22.716,19.234h-3.66V15.387h3.66Zm18.3,0h-3.66V15.387h3.66Z" transform="translate(-8.076)"/></svg>