<svg xmlns="http://www.w3.org/2000/svg" width="40" height="40.156" viewBox="0 0 40 40.156"><defs><style>.a{fill:none;}.b{opacity:0.2;}</style></defs><g transform="translate(-53.77 0.192)"><path class="a" d="M0,0H40V40H0Z" transform="translate(53.77 -0.035)"/><path class="b" d="M30.374,28.7a20.025,20.025,0,0,1-1.98,3.56,18.09,18.09,0,0,1-2.551,3.083,4.948,4.948,0,0,1-3.278,1.444,8.217,8.217,0,0,1-3.028-.723,8.689,8.689,0,0,0-3.26-.721,8.984,8.984,0,0,0-3.353.721,9.02,9.02,0,0,1-2.9.762,4.659,4.659,0,0,1-3.353-1.482,19,19,0,0,1-2.668-3.192,22.076,22.076,0,0,1-2.821-5.6A20.52,20.52,0,0,1,0,19.871,12.2,12.2,0,0,1,1.6,13.49,9.4,9.4,0,0,1,4.956,10.1a9.024,9.024,0,0,1,4.535-1.28A10.679,10.679,0,0,1,13,9.633a11.276,11.276,0,0,0,2.782.818,16.647,16.647,0,0,0,3.085-.964,10.2,10.2,0,0,1,4.194-.745,8.9,8.9,0,0,1,6.975,3.672,7.759,7.759,0,0,0-4.115,7.048,7.775,7.775,0,0,0,2.553,5.859A8.39,8.39,0,0,0,31.024,27q-.307.89-.65,1.707ZM23.267.737a7.858,7.858,0,0,1-2.014,5.154c-1.619,1.892-3.577,2.986-5.7,2.813a5.731,5.731,0,0,1-.043-.7A8.073,8.073,0,0,1,17.647,2.8,8.227,8.227,0,0,1,20.25.843,7.761,7.761,0,0,1,23.229,0a6.688,6.688,0,0,1,.039.737Z" transform="translate(58.165 -0.192)"/></g></svg>