<svg xmlns="http://www.w3.org/2000/svg" width="64" height="65.415" viewBox="0 0 64 65.415"><g transform="translate(0 1.415)"><rect width="64" height="64" fill="none"/><circle cx="2" cy="2" r="2" transform="translate(49 48)" fill="none" stroke="#000" stroke-miterlimit="10" stroke-width="2"/><path d="M2,0A2,2,0,0,1,4,2C4,3.1,0,3.1,0,2A2,2,0,0,1,2,0Z" transform="translate(9 38)" fill="none" stroke="#000" stroke-width="2"/><path d="M2,0A2,2,0,0,1,4,2C4,3.1,0,3.1,0,2A2,2,0,0,1,2,0Z" transform="translate(49 38)" fill="none" stroke="#000" stroke-width="2"/><line transform="translate(11 50)" fill="none" stroke="#000" stroke-linecap="round" stroke-miterlimit="10" stroke-width="2"/><line x2="7" transform="translate(15 50)" fill="none" stroke="#000" stroke-linecap="round" stroke-miterlimit="10" stroke-width="2"/><rect width="54" height="18" transform="translate(5 41)" fill="none" stroke="#000" stroke-linejoin="round" stroke-width="2"/><line y1="18" transform="translate(11 20)" fill="none" stroke="#000" stroke-linecap="round" stroke-linejoin="round" stroke-width="2"/><line y1="18" transform="translate(51 20)" fill="none" stroke="#000" stroke-linecap="round" stroke-linejoin="round" stroke-width="2"/><path d="M9,5A18,18,0,0,1,27,23" transform="translate(9.372 15.556) rotate(-45)" fill="none" stroke="#000" stroke-linecap="round" stroke-linejoin="round" stroke-width="2"/><path d="M9,10A13,13,0,0,1,22,23" transform="translate(9.372 15.556) rotate(-45)" fill="none" stroke="#000" stroke-linecap="round" stroke-linejoin="round" stroke-width="2"/><path d="M9,15a8,8,0,0,1,8,8" transform="translate(9.372 15.556) rotate(-45)" fill="none" stroke="#000" stroke-linecap="round" stroke-linejoin="round" stroke-width="2"/></g></svg>