<svg xmlns="http://www.w3.org/2000/svg" width="44" height="42.173" viewBox="0 0 44 42.173">
  <g id="_01" data-name="01" transform="translate(1 1)">
    <g id="그룹_1" data-name="그룹 1">
      <path id="패스_842054" data-name="패스 842054" d="M3309.853,805.569h0a4.244,4.244,0,0,1-4.244-4.244v-14.3h7.961v18.541h-3.717Z" transform="translate(-3305.608 -772.763)" fill="none" stroke="#000" stroke-linecap="round" stroke-linejoin="round" stroke-width="2"/>
      <path id="패스_843929" data-name="패스 843929" d="M3352.145,792.785v12.784h-7.961V787.028h3.063" transform="translate(-3310.145 -772.831)" fill="none" stroke="#000" stroke-linecap="round" stroke-linejoin="round" stroke-width="2"/>
      <path id="패스_843930" data-name="패스 843930" d="M3311.57,784.8a13.841,13.841,0,0,1,13.742-13.938h4.126a13.841,13.841,0,0,1,13.741,13.938h0" transform="translate(-3306.204 -770.858)" fill="none" stroke="#000" stroke-linecap="round" stroke-linejoin="round" stroke-width="2"/>
      <path id="패스_843931" data-name="패스 843931" d="M3346.675,807.626h0a5.1,5.1,0,0,1-5.1,5.1h-.719" transform="translate(-3309.699 -774.289)" fill="none" stroke="#000" stroke-linecap="round" stroke-linejoin="round" stroke-width="2"/>
      <rect id="사각형_341471" data-name="사각형 341471" width="7.913" height="3.474" rx="1.737" transform="translate(22.967 36.699)" fill="none" stroke="#000" stroke-linecap="round" stroke-linejoin="round" stroke-width="2"/>
    </g>
    <path id="패스_1" data-name="패스 1" d="M3351.121,787.029v1.987h1.987" transform="translate(-3311.124 -772.815)" fill="none" stroke="#000" stroke-linecap="round" stroke-linejoin="round" stroke-width="2"/>
  </g>
</svg>
