<svg xmlns="http://www.w3.org/2000/svg" width="64" height="64" viewBox="0 0 64 64"><rect width="64" height="64" fill="none"/><path d="M2,0A2,2,0,0,1,4,2C4,3.1,0,3.1,0,2A2,2,0,0,1,2,0Z" transform="translate(9 38)" fill="none" stroke="#000" stroke-width="2"/><path d="M2,0A2,2,0,0,1,4,2C4,3.1,0,3.1,0,2A2,2,0,0,1,2,0Z" transform="translate(49 38)" fill="none" stroke="#000" stroke-width="2"/><line transform="translate(11 50)" fill="none" stroke="#000" stroke-linecap="round" stroke-miterlimit="10" stroke-width="2"/><line x2="7" transform="translate(15 50)" fill="none" stroke="#000" stroke-linecap="round" stroke-miterlimit="10" stroke-width="2"/><rect width="54" height="18" transform="translate(5.5 41)" fill="none" stroke="#000" stroke-linejoin="round" stroke-width="2"/><line y1="18" transform="translate(11 20)" fill="none" stroke="#000" stroke-linecap="round" stroke-linejoin="round" stroke-width="2"/><line y1="18" transform="translate(51 20)" fill="none" stroke="#000" stroke-linecap="round" stroke-linejoin="round" stroke-width="2"/><g transform="translate(1.357 1.025)"><g transform="translate(-38.784 -436.863)" fill="#fff" stroke-linecap="round" stroke-linejoin="round"><path d="M 95.45748138427734 498.5039978027344 L 73.62564086914063 498.5039978027344 L 84.5411376953125 481.5710144042969 L 95.45748138427734 498.5039978027344 Z" stroke="none"/><path d="M 84.54116821289063 483.4166564941406 L 75.46003723144531 497.5039978027344 L 93.62300872802734 497.5039978027344 L 84.54116821289063 483.4166564941406 M 84.54145812988281 480.5044860839844 C 84.83451080322266 480.5044860839844 85.12744903564453 480.6343994140625 85.29460144042969 480.8941955566406 L 96.53837585449219 498.3350830078125 C 96.87266540527344 498.8547058105469 96.45436859130859 499.5039978027344 95.78492736816406 499.5039978027344 L 73.29821014404297 499.5039978027344 C 72.62877655029297 499.5039978027344 72.2095947265625 498.8547058105469 72.54475402832031 498.3350830078125 L 83.78767395019531 480.8941955566406 C 83.95526123046875 480.6343994140625 84.2484130859375 480.5044860839844 84.54145812988281 480.5044860839844 Z" stroke="none" fill="#e6007e"/></g><line y2="4.193" transform="translate(45.441 51.665)" fill="none" stroke="#e6007e" stroke-linecap="round" stroke-miterlimit="10" stroke-width="2"/><line y1="0.157" x2="0.019" transform="translate(45.422 58.464)" fill="none" stroke="#e6007e" stroke-linecap="round" stroke-miterlimit="10" stroke-width="2"/></g></svg>