<svg xmlns="http://www.w3.org/2000/svg" width="60" height="60" viewBox="0 0 60 60">
  <g id="그룹_466088" data-name="그룹 466088" transform="translate(-572 -985.342)">
    <g id="타원_479" data-name="타원 479" transform="translate(572 985.342)" fill="none" stroke="#e6007e" stroke-width="4">
      <circle cx="30" cy="30" r="30" stroke="none"/>
      <circle cx="30" cy="30" r="28" fill="none"/>
    </g>
    <path id="패스_841638" data-name="패스 841638" d="M-18.154-11.221a26.444,26.444,0,0,1-5.414.44V-13.9h4.224v-2.071h-6.85v7.274h1.321a30.678,30.678,0,0,0,6.964-.473Zm-3.947,5.5h4.974v1.957H-22.1Zm-2.593,4h10.144V-7.763H-24.693ZM-12.641-13.6h-1.908V-16.88h-2.642v8.529h2.642v-3.131h1.908Zm9.2,2.3a25.947,25.947,0,0,1-5.512.457v-3h4.289v-2.071h-6.915v7.159h1.337A31.33,31.33,0,0,0-3.2-9.231ZM-4.96-3.621C-6.7-3.621-7.6-3.947-7.6-4.73c0-.8.9-1.125,2.642-1.125C-3.2-5.855-2.3-5.529-2.3-4.73-2.3-3.947-3.2-3.621-4.96-3.621Zm0-4.305c-3.164,0-5.251,1.207-5.251,3.2s2.088,3.2,5.251,3.2c3.18,0,5.268-1.207,5.268-3.2S-1.78-7.927-4.96-7.927ZM.177-13.439V-16.88H-2.5v8.692H.177v-3.131H2.036v-2.12Zm8.366.13h2.838v-2.153H2.9v2.153H5.885v.277c0,2.463-.913,5.3-3.6,6.556L3.749-4.4A6.822,6.822,0,0,0,7.255-8.563,6.735,6.735,0,0,0,10.7-4.8l1.435-2.071a6.5,6.5,0,0,1-3.588-6.165Zm8.285,2.087H14.773v-5.643H12.131v15.3h2.642v-7.5h2.055ZM-18.578,3.669H-21.53V2.56h-2.642V3.669h-3V5.528h8.595Zm-4.289,3.784c.848,0,1.321.179,1.321.6,0,.44-.473.62-1.321.62s-1.321-.179-1.321-.62C-24.188,7.632-23.715,7.452-22.867,7.452Zm4.648,3.164c-1.076.13-2.185.212-3.311.261v-.636c1.533-.277,2.479-1.06,2.479-2.185,0-1.4-1.5-2.283-3.816-2.283s-3.816.881-3.816,2.283c0,1.125.962,1.908,2.512,2.185v.718c-1.207.033-2.365.033-3.408.033l.294,1.99a58.493,58.493,0,0,0,9.263-.587Zm-7.371,5.121H-17.7V18h2.642V13.731H-25.59Zm12.3-8.79h-1.761V2.69H-17.7V13.226h2.642V9.083h1.761ZM.145,2.707H-2.5V13.6H.145ZM-9.934,7.567a1.558,1.558,0,0,1,1.68-1.68,1.558,1.558,0,0,1,1.68,1.68,1.566,1.566,0,0,1-1.68,1.68A1.566,1.566,0,0,1-9.934,7.567Zm5.936,0A4.027,4.027,0,0,0-8.254,3.62a4.027,4.027,0,0,0-4.257,3.947,4.037,4.037,0,0,0,4.257,3.947A4.037,4.037,0,0,0-4,7.567ZM-7.618,15.7V12.541H-10.26v5.235H.5V15.7ZM7.6,2.495a21.1,21.1,0,0,1-3.49,1.7L2.868,3.734V16.52h2.4V15.281H8.984V13H5.266V10.192H8.984V7.909H5.266V6.115A32.485,32.485,0,0,0,9.522,4.533ZM16.747,3.6H9.718V17.971h2.4V5.952h2.234V13.1c0,.212-.082.294-.294.294-.228,0-.962,0-1.566-.033a8.866,8.866,0,0,1,.881,2.512,4.625,4.625,0,0,0,2.528-.489c.669-.408.848-1.158.848-2.2Z" transform="translate(607.261 1015.84)" fill="#e6007e"/>
  </g>
</svg>
