<svg xmlns="http://www.w3.org/2000/svg" width="52" height="41.698" viewBox="0 0 52 41.698">
  <g id="그룹_457992" data-name="그룹 457992" transform="translate(1 0)">
    <path id="합치기_9" data-name="합치기 9" d="M0,28.379c0-.01,4.07-3.426,6.427-5.4A14.19,14.19,0,0,1,17.571,0h18.24a14.189,14.189,0,0,1,0,28.379h-13.4s-9.959.006-16.6.006C2.49,28.384,0,28.383,0,28.379Z" transform="translate(0 12.313)" fill="none" stroke="#000" stroke-width="2"/>
    <line id="선_442" data-name="선 442" y2="9.612" transform="translate(26.746 2.902)" fill="none" stroke="#000" stroke-width="2"/>
    <ellipse id="타원_253" data-name="타원 253" cx="4.03" cy="4.03" rx="4.03" ry="4.03" transform="translate(22.691 0)"/>
    <ellipse id="타원_254" data-name="타원 254" cx="3.023" cy="3.023" rx="3.023" ry="3.023" transform="translate(12.927 21.448)"/>
    <ellipse id="타원_255" data-name="타원 255" cx="3.023" cy="3.023" rx="3.023" ry="3.023" transform="translate(36.158 21.448)"/>
    <path id="패스_840981" data-name="패스 840981" d="M-9028.353,1616.5s.685,2.649,4.632,2.649,4.718-2.649,4.718-2.649" transform="translate(9051.231 -1589.748)" fill="none" stroke="#000" stroke-linecap="round" stroke-width="2"/>
  </g>
</svg>
