<svg xmlns="http://www.w3.org/2000/svg" width="36.362" height="29.127" viewBox="0 0 36.362 29.127">
  <g id="그룹_457128" data-name="그룹 457128" transform="translate(-650.801 -865.852)">
    <path id="합치기_9" data-name="합치기 9" d="M2.21,21.148c0-.007,2.938-2.644,4.566-4.105A10.575,10.575,0,0,1,15.142,0H26.5a10.574,10.574,0,0,1,0,21.148H17.834s-6.944,0-11.573,0C3.947,21.153,2.21,21.152,2.21,21.148Z" transform="translate(649.34 873.077)" fill="none" stroke="#000" stroke-width="1.5"/>
    <line id="선_442" data-name="선 442" y2="5.64" transform="translate(670.199 868.142)" fill="none" stroke="#000" stroke-width="1.5"/>
    <circle id="타원_253" data-name="타원 253" cx="2.364" cy="2.364" r="2.364" transform="translate(667.853 865.852)"/>
    <circle id="타원_254" data-name="타원 254" cx="1.773" cy="1.773" r="1.773" transform="translate(660.76 881.221)"/>
    <circle id="타원_255" data-name="타원 255" cx="1.773" cy="1.773" r="1.773" transform="translate(677.311 881.221)"/>
    <path id="패스_840981" data-name="패스 840981" d="M-9028.353,1616.5s.4,1.554,2.718,1.554,2.768-1.554,2.768-1.554" transform="translate(9696.437 -731.789)" fill="none" stroke="#fe64ca" stroke-linecap="round" stroke-width="2"/>
  </g>
</svg>
