<svg xmlns="http://www.w3.org/2000/svg" width="35.557" height="28.197" viewBox="0 0 35.557 28.197">
  <g id="그룹_457208" data-name="그룹 457208" transform="translate(0.75 0.75)">
    <path id="패스_841380" data-name="패스 841380" d="M-65.417,47.083H-90.431V63.572h14.294l4.765,4.711V63.572h5.956Z" transform="translate(99.474 -47.083)" fill="none" stroke="#000" stroke-linecap="round" stroke-linejoin="round" stroke-width="1.5"/>
    <path id="패스_841381" data-name="패스 841381" d="M-77.78,62.216v6.36H-89.439l-3.875,3.842V68.575h-4.852V55.144h8.728" transform="translate(98.167 -45.721)" fill="none" stroke="#000" stroke-linecap="round" stroke-linejoin="round" stroke-width="1.5"/>
    <g id="그룹_457105" data-name="그룹 457105" transform="translate(13.756 7.113)">
      <path id="패스_841382" data-name="패스 841382" d="M-85.231,55.508a1.168,1.168,0,0,1-.83-.351,1.155,1.155,0,0,1-.245-.374,1.164,1.164,0,0,1-.094-.444,1.2,1.2,0,0,1,.339-.83,1.391,1.391,0,0,1,.386-.257,1.193,1.193,0,0,1,1.274.257,1.153,1.153,0,0,1,.339.83,1.152,1.152,0,0,1-.082.444,1.187,1.187,0,0,1-.257.374A1.168,1.168,0,0,1-85.231,55.508Z" transform="translate(86.4 -53.168)"/>
      <path id="패스_841383" data-name="패스 841383" d="M-79.561,55.508a1.223,1.223,0,0,1-.456-.094,1.13,1.13,0,0,1-.374-.257,1.187,1.187,0,0,1-.257-.374,1.152,1.152,0,0,1-.082-.444,1.184,1.184,0,0,1,.339-.83,1.193,1.193,0,0,1,1.274-.257,1.391,1.391,0,0,1,.386.257,1.2,1.2,0,0,1,.339.83,1.164,1.164,0,0,1-.094.444,1.155,1.155,0,0,1-.245.374A1.189,1.189,0,0,1-79.561,55.508Z" transform="translate(87.358 -53.168)"/>
      <path id="패스_841384" data-name="패스 841384" d="M-73.9,55.508a1.162,1.162,0,0,1-.818-.351,1.022,1.022,0,0,1-.257-.374,1.164,1.164,0,0,1-.094-.444,1.164,1.164,0,0,1,.351-.83,1.187,1.187,0,0,1,.374-.257,1.189,1.189,0,0,1,1.274.257,1.136,1.136,0,0,1,.339.83,1.152,1.152,0,0,1-.082.444,1.023,1.023,0,0,1-.257.374,1.022,1.022,0,0,1-.374.257A1.177,1.177,0,0,1-73.9,55.508Z" transform="translate(88.315 -53.168)"/>
    </g>
  </g>
</svg>
