<svg xmlns="http://www.w3.org/2000/svg" width="30.51" height="33.966" viewBox="0 0 30.51 33.966">
  <g id="icon" transform="translate(-77.405 -32.216)">
    <path id="패스_840945" data-name="패스 840945" d="M101.7,48.821c-.242-2.464-.483-4.37-.725-6.835H81.209L78.18,64.49A2.482,2.482,0,0,0,80.4,67.2c.081.008.161.012.242.012h9.888" transform="translate(0 -3.034)" fill="none" stroke="#000" stroke-linecap="round" stroke-linejoin="round" stroke-width="1.5"/>
    <path id="패스_840946" data-name="패스 840946" d="M99.679,42.458V36.726a4.137,4.137,0,0,0-8.239,0v5.732" transform="translate(-4.465)" fill="none" stroke="#000" stroke-linecap="round" stroke-linejoin="round" stroke-width="1.5"/>
    <path id="Path_69806" data-name="Path 69806" d="M104.236,66.925v3.945a1.048,1.048,0,0,0,.1.442,1.123,1.123,0,0,0,.26.362,1.238,1.238,0,0,0,.39.243,1.307,1.307,0,0,0,.475.089h9.255a1.307,1.307,0,0,0,.475-.089,1.26,1.26,0,0,0,.39-.243,1.168,1.168,0,0,0,.259-.362,1.059,1.059,0,0,0,.095-.442V53.645a1.073,1.073,0,0,0-.1-.445,1.138,1.138,0,0,0-.26-.36,1.226,1.226,0,0,0-.39-.243,1.279,1.279,0,0,0-.475-.089h-9.258a1.279,1.279,0,0,0-.475.089,1.226,1.226,0,0,0-.39.243,1.111,1.111,0,0,0-.26.36,1.048,1.048,0,0,0-.1.443V66.925Z" transform="translate(-8.767 -6.574)" fill="none" stroke="#000" stroke-width="1.5"/>
    <line id="Line_393" data-name="Line 393" x1="3.031" transform="translate(99.798 62.594)" fill="none" stroke="#000" stroke-linecap="round" stroke-width="1.5"/>
  </g>
</svg>
