<svg xmlns="http://www.w3.org/2000/svg" width="21.828" height="21.623" viewBox="0 0 21.828 21.623">
  <path id="패스_841636" data-name="패스 841636" d="M218.882,176.946c-.277,0-.568-.01-.874-.029-3.386-.223-6.761-2.086-10.033-5.541a22.461,22.461,0,0,1-4.816-8.006,6.394,6.394,0,0,1,.609-5.828,5.591,5.591,0,0,1,3.318-2.119,1.787,1.787,0,0,1,2.208.811c.285.449,1.779,2.818,2.192,3.7h0a2,2,0,0,1-.166,2.33l-.1.091c-.671.5-1.715,1.311-1.933,1.528a.2.2,0,0,0,.014.167l.04.084a9.533,9.533,0,0,0,2.285,3.253,21.985,21.985,0,0,0,3.935,3.03.719.719,0,0,0,.178.071,20.453,20.453,0,0,0,1.62-1.781,1.825,1.825,0,0,1,2.458-.412c.255.142,2.963,1.677,3.645,2.162a2.448,2.448,0,0,1,1.073,1.67l.01.1a5.03,5.03,0,0,1-.306,1.99C223.922,175.067,222.781,176.946,218.882,176.946Zm-11.16-19.794a.8.8,0,0,0-.2.035,3.81,3.81,0,0,0-2.27,1.405,4.573,4.573,0,0,0-.387,4.145,20.694,20.694,0,0,0,4.438,7.393c2.94,3.106,5.911,4.779,8.825,4.97,3.482.226,4.251-1.1,4.4-1.517a3.2,3.2,0,0,0,.2-1.214.659.659,0,0,0-.286-.407c-.55-.389-2.764-1.659-3.575-2.118l-.012.015-.083-.013a22.505,22.505,0,0,1-1.8,1.971,1.813,1.813,0,0,1-2.324.173,23.768,23.768,0,0,1-4.281-3.287,11.334,11.334,0,0,1-2.69-3.82,2,2,0,0,1,.281-2.25c.364-.366,1.487-1.224,1.978-1.6a.981.981,0,0,0-.1-.331v0c-.32-.688-1.633-2.791-2.11-3.543Zm-.073-.146h0Z" transform="translate(-202.72 -155.323)"/>
</svg>
