<svg xmlns="http://www.w3.org/2000/svg" xmlns:xlink="http://www.w3.org/1999/xlink" width="36.805" height="35.447" viewBox="0 0 36.805 35.447">
  <defs>
    <clipPath id="clip-path">
      <rect id="사각형_339237" data-name="사각형 339237" width="31.342" height="14.412" fill="#fff" stroke="#fff" stroke-width="1"/>
    </clipPath>
    <clipPath id="clip-path-2">
      <rect id="사각형_339240" data-name="사각형 339240" width="11.514" height="10.796" transform="translate(0 0)" fill="#fff" stroke="#fff" stroke-width="1"/>
    </clipPath>
  </defs>
  <g id="ICON-고객센터" transform="translate(-1799 -930.57)">
    <g id="마스크_그룹_128" data-name="마스크 그룹 128" transform="translate(1801.731 930.57)" clip-path="url(#clip-path)">
      <g id="패스_840973" data-name="패스 840973" transform="translate(2.179 1.393)" fill="none">
        <path d="M13.448,0A13.448,13.448,0,0,1,26.9,13.448c0,17.389-26.9,17.389-26.9,0A13.448,13.448,0,0,1,13.448,0Z" stroke="none"/>
        <path d="M 13.44828033447266 1.999994277954102 C 10.39033126831055 1.999994277954102 7.515420913696289 3.190824508666992 5.353120803833008 5.353115081787109 C 3.190830230712891 7.515415191650391 2 10.39033508300781 2 13.44828414916992 C 2 16.87770462036133 3.213190078735352 19.7361946105957 5.508420944213867 21.71471405029297 C 6.547069549560547 22.61004447937012 7.776371002197266 23.30630493164062 9.162189483642578 23.78413391113281 C 10.52056121826172 24.25251388549805 11.96262073516846 24.49000549316406 13.44828033447266 24.49000549316406 C 14.93393993377686 24.49000549316406 16.37599945068359 24.25251388549805 17.73437118530273 23.78413391113281 C 19.12018966674805 23.30630493164062 20.34949111938477 22.61004447937012 21.38813972473145 21.71471405029297 C 23.68337059020996 19.7361946105957 24.89656066894531 16.87770462036133 24.89656066894531 13.44828414916992 C 24.89656066894531 10.39033508300781 23.70573043823242 7.515415191650391 21.5434398651123 5.353115081787109 C 19.38113975524902 3.190824508666992 16.50622940063477 1.999994277954102 13.44828033447266 1.999994277954102 M 13.44828033447266 -5.7220458984375e-06 C 20.87556076049805 -5.7220458984375e-06 26.89656066894531 6.020994186401367 26.89656066894531 13.44828414916992 C 26.89656066894531 30.83724594116211 0 30.83724594116211 0 13.44828414916992 C 0 6.020994186401367 6.020999908447266 -5.7220458984375e-06 13.44828033447266 -5.7220458984375e-06 Z" stroke="none" fill="#fff"/>
      </g>
    </g>
    <g id="마스크_그룹_129" data-name="마스크 그룹 129" transform="translate(1832.436 966.017) rotate(180)" clip-path="url(#clip-path-2)">
      <g id="패스_840974" data-name="패스 840974" transform="translate(1.606 1.204)" fill="none">
        <path d="M9.908,0a9.908,9.908,0,0,1,9.908,9.908C19.817,22.72,0,22.72,0,9.908A9.908,9.908,0,0,1,9.908,0Z" stroke="none"/>
        <path d="M 9.908345222473145 2.000003814697266 C 5.547665596008301 2.000003814697266 1.999994277954102 5.547674179077148 1.999994277954102 9.908343315124512 C 1.999994277954102 12.2772331237793 2.830656051635742 14.24540328979492 4.402185440063477 15.60008335113525 C 5.815515518188477 16.81840324401855 7.82243537902832 17.51714324951172 9.90833568572998 17.51714324951172 C 11.9942455291748 17.51714324951172 14.00115585327148 16.81840324401855 15.41449546813965 15.60008335113525 C 16.98602485656738 14.24540328979492 17.81668472290039 12.2772331237793 17.81668472290039 9.908343315124512 C 17.81668472290039 5.547674179077148 14.26901531219482 2.000003814697266 9.908345222473145 2.000003814697266 M 9.908345222473145 3.814697265625e-06 C 15.38057518005371 3.814697265625e-06 19.81668472290039 4.436113357543945 19.81668472290039 9.908343315124512 C 19.81668472290039 22.72008514404297 -5.7220458984375e-06 22.72008323669434 -5.7220458984375e-06 9.908343315124512 C -5.7220458984375e-06 4.436113357543945 4.436115264892578 3.814697265625e-06 9.908345222473145 3.814697265625e-06 Z" stroke="none" fill="#fff"/>
      </g>
    </g>
    <g id="사각형_339238" data-name="사각형 339238" transform="translate(1799 944.109)" fill="#fff" stroke="#fff" stroke-width="2">
      <path d="M4,0H7.01a0,0,0,0,1,0,0V11.392a0,0,0,0,1,0,0H4a4,4,0,0,1-4-4V4A4,4,0,0,1,4,0Z" stroke="none"/>
      <path d="M4,1H5.01a1,1,0,0,1,1,1V9.392a1,1,0,0,1-1,1H4a3,3,0,0,1-3-3V4A3,3,0,0,1,4,1Z" fill="none"/>
    </g>
    <g id="사각형_339239" data-name="사각형 339239" transform="translate(1835.805 955.501) rotate(180)" fill="#fff" stroke="#fff" stroke-width="2">
      <path d="M4,0H7.01a0,0,0,0,1,0,0V11.392a0,0,0,0,1,0,0H4a4,4,0,0,1-4-4V4A4,4,0,0,1,4,0Z" stroke="none"/>
      <path d="M4,1H5.01a1,1,0,0,1,1,1V9.392a1,1,0,0,1-1,1H4a3,3,0,0,1-3-3V4A3,3,0,0,1,4,1Z" fill="none"/>
    </g>
    <rect id="사각형_339241" data-name="사각형 339241" width="5.763" height="2.382" rx="1.191" transform="translate(1815.021 962.635)" fill="#fff" stroke="#fff" stroke-width="2"/>
  </g>
</svg>
