<svg xmlns="http://www.w3.org/2000/svg" width="27.766" height="28.971" viewBox="0 0 27.766 28.971">
  <g id="그룹_465374" data-name="그룹 465374" transform="translate(0.75 0.75)">
    <g id="그룹_26" data-name="그룹 26">
      <path id="패스_22" data-name="패스 22" d="M5.884,20.532V10.338c0-4.612,4.036-8.386,8.969-8.386h0c4.933,0,8.97,3.774,8.97,8.386V20.532h0a6.4,6.4,0,0,1-6.4,6.4H16.372" transform="translate(-1.635 -1.952)" fill="none" stroke="#000" stroke-linecap="round" stroke-linejoin="round" stroke-width="1.5"/>
      <path id="패스_23" data-name="패스 23" d="M6.836,18.454h0A4.479,4.479,0,0,1,2.587,13.8h0A4.479,4.479,0,0,1,6.836,9.147" transform="translate(-2.587 0.126)" fill="none" stroke="#000" stroke-linecap="round" stroke-linejoin="round" stroke-width="1.5"/>
      <path id="패스_24" data-name="패스 24" d="M19.8,9.147h0A4.408,4.408,0,0,1,23.882,13.8h0A4.408,4.408,0,0,1,19.8,18.454" transform="translate(2.384 0.126)" fill="none" stroke="#000" stroke-linecap="round" stroke-linejoin="round" stroke-width="1.5"/>
    </g>
    <circle id="타원_6" data-name="타원 6" cx="2.495" cy="2.495" r="2.495" transform="translate(9.452 22.482)" fill="none" stroke="#000" stroke-linecap="round" stroke-linejoin="round" stroke-width="1.5"/>
  </g>
</svg>
