<svg xmlns="http://www.w3.org/2000/svg" width="27.272" height="29.898" viewBox="0 0 27.272 29.898">
  <g id="통합검색" transform="translate(-1.997 3.839)">
    <g id="사각형_339358" data-name="사각형 339358" transform="translate(1.997 -3.839)" fill="#fff" stroke="#000" stroke-width="1.5">
      <rect width="21.17" height="27" rx="4" stroke="none"/>
      <rect x="0.75" y="0.75" width="19.67" height="25.5" rx="3.25" fill="none"/>
    </g>
    <path id="패스_840985" data-name="패스 840985" d="M606.549,6073.622h5.832" transform="translate(-593.967 -6070.44)" fill="none" stroke="#000" stroke-linecap="round" stroke-width="1.5"/>
    <path id="패스_841365" data-name="패스 841365" d="M606.549,6073.622h1.822" transform="translate(-599.689 -6070.44)" fill="none" stroke="#000" stroke-linecap="round" stroke-width="1.5"/>
    <path id="패스_840986" data-name="패스 840986" d="M606.549,6073.622H618.1" transform="translate(-599.689 -6063.96)" fill="none" stroke="#000" stroke-linecap="round" stroke-width="1.5"/>
    <path id="패스_840987" data-name="패스 840987" d="M606.549,6073.622H618.1" transform="translate(-599.689 -6057.516)" fill="none" stroke="#000" stroke-linecap="round" stroke-width="1.5"/>
    <line id="Shape_3" data-name="Shape 3" x2="3.909" y2="3.909" transform="translate(24.299 21.09)" fill="none" stroke="#000" stroke-linecap="round" stroke-linejoin="round" stroke-width="1.5"/>
    <g id="Ellipse_1" data-name="Ellipse 1" transform="translate(-649.507 -42.057)" fill="#fff">
      <path d="M 668.7794189453125 65.23151397705078 C 666.9036865234375 65.23151397705078 665.1400756835938 64.49680328369141 663.8134155273438 63.16271209716797 C 661.07177734375 60.40593338012695 661.07177734375 55.92038345336914 663.8134155273438 53.16366195678711 C 665.1400756835938 51.82955551147461 666.9036865234375 51.09483337402344 668.7794189453125 51.09483337402344 C 670.6551513671875 51.09483337402344 672.4187622070312 51.82954406738281 673.7454223632812 53.16363525390625 C 676.4871215820312 55.92038345336914 676.4871215820312 60.40592193603516 673.7454223632812 63.16269302368164 C 672.4187622070312 64.49680328369141 670.6551513671875 65.23151397705078 668.7794189453125 65.23151397705078 Z" stroke="none"/>
      <path d="M 668.7794799804688 51.84482574462891 C 667.1047973632812 51.84482574462891 665.530029296875 52.50098037719727 664.34521484375 53.69252014160156 C 661.8935546875 56.15763473510742 661.8935546875 60.16867446899414 664.34521484375 62.63386535644531 C 665.5300903320312 63.8253288269043 667.1048583984375 64.48152160644531 668.7794799804688 64.48152160644531 C 670.4540405273438 64.48152160644531 672.0287475585938 63.8253288269043 673.213623046875 62.63382720947266 C 675.665283203125 60.16867446899414 675.665283203125 56.15763473510742 673.213623046875 53.69248199462891 C 672.02880859375 52.50098037719727 670.4540405273438 51.84482574462891 668.7794799804688 51.84482574462891 M 668.7794189453125 50.34483337402344 C 670.769287109375 50.34483337402344 672.7591552734375 51.108154296875 674.2772216796875 52.63478851318359 C 677.3135986328125 55.68782806396484 677.3135986328125 60.63848114013672 674.2772216796875 63.69155883789062 C 671.2411499023438 66.74478149414062 666.3179321289062 66.744873046875 663.2816162109375 63.69155883789062 C 660.2453002929688 60.63848114013672 660.2453002929688 55.68782806396484 663.2816162109375 52.63478851318359 C 664.7997436523438 51.108154296875 666.7896118164062 50.34483337402344 668.7794189453125 50.34483337402344 Z" stroke="none" fill="#000"/>
    </g>
  </g>
</svg>
