<svg xmlns="http://www.w3.org/2000/svg" width="24" height="24" viewBox="0 0 24 24">
  <g id="그룹_459181" data-name="그룹 459181" transform="translate(-15.854 -3.001)">
    <g id="그룹_459181-2" data-name="그룹 459181-2">
      <path id="패스_842289" data-name="패스 842289" d="M21.338,7.1a2.518,2.518,0,0,0-3.506,2.317v4.847a2.52,2.52,0,0,0,3.506,2.318l1.207-.514v9.941h3.418V11.276A3.338,3.338,0,0,0,23.931,8.2Z" fill="none" stroke="#000" stroke-linecap="round" stroke-linejoin="round" stroke-width="1"/>
      <path id="패스_842290" data-name="패스 842290" d="M29.754,23.1V8.365a3.332,3.332,0,0,1,2.025-3.073l2.594-1.1a2.518,2.518,0,0,1,3.506,2.317v4.85a2.52,2.52,0,0,1-3.506,2.319l-1.207-.514V23.1Z" fill="none" stroke="#000" stroke-linecap="round" stroke-linejoin="round" stroke-width="1"/>
    </g>
    <rect id="사각형_339404" data-name="사각형 339404" width="24" height="24" transform="translate(15.854 3.001)" fill="none"/>
  </g>
</svg>
