<svg id="그룹_457550" data-name="그룹 457550" xmlns="http://www.w3.org/2000/svg" width="63.999" height="63.999" viewBox="0 0 63.999 63.999">
  <rect id="사각형_339543" data-name="사각형 339543" width="63.946" height="63.985" transform="translate(0.053)" fill="none"/>
  <rect id="사각형_339544" data-name="사각형 339544" width="63.946" height="63.985" transform="translate(0 0.014)" fill="none"/>
  <g id="그룹_457549" data-name="그룹 457549" transform="translate(0.266 -0.023)">
    <g id="그룹_5542" data-name="그룹 5542">
      <g id="그룹_5541" data-name="그룹 5541">
        <rect id="사각형_2583" data-name="사각형 2583" width="6.395" height="14.397" transform="translate(10.297 44.257)" fill="none" stroke="#e6007e" stroke-linejoin="round" stroke-width="2"/>
        <path id="패스_69949" data-name="패스 69949" d="M18.354,45.235" fill="none" stroke="#000" stroke-miterlimit="10" stroke-width="2"/>
      </g>
    </g>
    <path id="패스_69949-2" data-name="패스 69949-2" d="M16.937,46.212l4.113-2A15.83,15.83,0,0,1,27.31,43l11.972,1.3a2.624,2.624,0,0,1,2.341,2.613h0a2.907,2.907,0,0,1-2.505,2.92l-8.63.422" fill="none" stroke="#e6007e" stroke-linecap="round" stroke-miterlimit="10" stroke-width="2"/>
    <path id="패스_842022" data-name="패스 842022" d="M39.775,49.7l9.256-5.145a2.945,2.945,0,0,1,4.135.486l.036.047a3.021,3.021,0,0,1-.832,4.19h0l-9.853,6.8s-4.823,3.061-9.93,2.874-15.649-1.488-15.649-1.488" fill="none" stroke="#e6007e" stroke-linecap="round" stroke-miterlimit="10" stroke-width="2"/>
  </g>
  <g id="그룹_458747" data-name="그룹 458747" transform="translate(0.266 -0.023)">
    <line id="Line_107-2" data-name="Line 107-2" x2="1.997" transform="translate(30.996 33.371)" fill="none" stroke="#e6007e" stroke-linecap="round" stroke-linejoin="round" stroke-width="2"/>
    <path id="패스_842023" data-name="패스 842023" d="M40.99,12.065V36.034H27.01a4,4,0,0,1-4-4V5.408H34.334" fill="none" stroke="#e6007e" stroke-linecap="round" stroke-linejoin="round" stroke-width="2"/>
    <path id="패스_842024" data-name="패스 842024" d="M39.66,5.408V6.739h1.331" fill="none" stroke="#e6007e" stroke-linecap="round" stroke-linejoin="round" stroke-width="2"/>
  </g>
</svg>
