<svg xmlns="http://www.w3.org/2000/svg" width="101" height="30" viewBox="0 0 101 30">
  <g id="BI" transform="translate(1.798 0.806)">
    <g id="BI-2" data-name="BI" transform="translate(-1.761 -0.373)">
      <g id="그룹_2" data-name="그룹 2" transform="translate(0 0)">
        <rect id="사각형_2527" data-name="사각형 2527" width="101" height="30" transform="translate(-0.036 -0.433)" fill="#f13939" opacity="0"/>
        <g id="그룹_1" data-name="그룹 1" transform="translate(1.778 1.009)">
          <path id="패스_1" data-name="패스 1" d="M105.177,282.863a13.558,13.558,0,1,0-13.558-13.554,13.556,13.556,0,0,0,13.558,13.554" transform="translate(-91.619 -255.748)" fill="#a50034"/>
          <path id="패스_2" data-name="패스 2" d="M110.134,266.566V278.46h3.778v-1.07h-2.689V266.566Z" transform="translate(-97.12 -258.956)" fill="#fff"/>
          <path id="패스_3" data-name="패스 3" d="M104.063,269.809a1.626,1.626,0,1,0-1.623-1.624,1.625,1.625,0,0,0,1.623,1.624" transform="translate(-94.834 -258.954)" fill="#fff"/>
          <path id="패스_4" data-name="패스 4" d="M106.655,258.889c-.142-.006-.41-.015-.54-.015a11.357,11.357,0,1,0,11.344,11.356v-.5h-8.1v1.045h7.024c0,.023,0,.134,0,.163a10.282,10.282,0,0,1-17.534,6.573,10.291,10.291,0,0,1,7.275-17.568c.118,0,.407,0,.54.008Z" transform="translate(-92.554 -256.675)" fill="#fff"/>
        </g>
      </g>
      <g id="그룹_456668" data-name="그룹 456668" transform="translate(33.823 3.122)">
        <rect id="사각형_2528" data-name="사각형 2528" width="66" height="23" transform="translate(0.141 0.445)" fill="#c14d4d" opacity="0"/>
        <g id="그룹_456667" data-name="그룹 456667" transform="translate(0 0.353)">
          <path id="패스_5" data-name="패스 5" d="M143.076,262.149h-4.152v17.98h12.755v-3.5h-8.6Zm17.739,11.129H164.2v3.144a9.551,9.551,0,0,1-3,.475c-3.738,0-4.982-1.9-4.982-5.755,0-3.679,1.186-5.846,4.924-5.846a4.805,4.805,0,0,1,4.241,1.9l2.582-2.375c-1.573-2.253-4.332-2.937-6.912-2.937-5.815,0-8.869,3.176-8.869,9.227,0,6.022,2.758,9.286,8.839,9.286a13.218,13.218,0,0,0,7-1.749v-8.723h-7.206Z" transform="translate(-138.924 -257.592)" fill="#6b6b6b"/>
          <path id="패스_6" data-name="패스 6" d="M222.208,260.423v-4.529h-3.342v4.529h-4.417v3.195h4.417v4.476h3.342v-4.476h4.447v-3.195Z" transform="translate(-160.341 -255.894)" fill="#6b6b6b"/>
          <path id="패스_7" data-name="패스 7" d="M200.13,262.243V272.63c0,2.871-1.425,4.283-3.837,4.283s-3.836-1.412-3.836-4.283V262.243h-4.075v10.449c0,5.669,3.016,7.8,7.766,7.8h.292c4.75,0,7.767-2.129,7.767-7.8V262.243Z" transform="translate(-152.949 -257.694)" fill="#6b6b6b"/>
        </g>
      </g>
    </g>
  </g>
</svg>
