<svg xmlns="http://www.w3.org/2000/svg" width="83" height="25" viewBox="0 0 83 25">
  <g id="BI" transform="translate(0 0)">
    <g id="그룹_2" data-name="그룹 2" transform="translate(0 0)">
      <rect id="사각형_2527" data-name="사각형 2527" width="83" height="25" transform="translate(0 0)" fill="#f13939" opacity="0"/>
      <g id="그룹_1" data-name="그룹 1" transform="translate(1.491 1.185)">
        <path id="패스_1" data-name="패스 1" d="M102.761,278.031a11.141,11.141,0,1,0-11.142-11.138,11.14,11.14,0,0,0,11.142,11.138" transform="translate(-91.619 -255.748)" fill="#a50034"/>
        <path id="패스_2" data-name="패스 2" d="M110.134,266.566v9.775h3.1v-.879h-2.21v-8.9Z" transform="translate(-99.44 -260.312)" fill="#fff"/>
        <path id="패스_3" data-name="패스 3" d="M103.774,269.229a1.337,1.337,0,1,0-1.334-1.335,1.335,1.335,0,0,0,1.334,1.335" transform="translate(-96.19 -260.308)" fill="#fff"/>
        <path id="패스_4" data-name="패스 4" d="M104.536,258.886c-.117-.005-.337-.013-.444-.013a9.333,9.333,0,1,0,9.322,9.332v-.414h-6.66v.858h5.773c0,.019,0,.11,0,.134a8.45,8.45,0,0,1-14.409,5.4,8.457,8.457,0,0,1,5.978-14.437c.1,0,.334,0,.444.006Z" transform="translate(-92.947 -257.067)" fill="#fff"/>
      </g>
    </g>
    <g id="그룹_456668" data-name="그룹 456668" transform="translate(27.825 3.211)">
      <rect id="사각형_2528" data-name="사각형 2528" width="54" height="19" transform="translate(0.175 -0.212)" fill="#c14d4d" opacity="0"/>
      <g id="그룹_456667" data-name="그룹 456667" transform="translate(0 0)">
        <path id="패스_5" data-name="패스 5" d="M142.336,262.1h-3.412v14.776h10.482V274h-7.07Zm14.577,9.145h2.778v2.584a7.849,7.849,0,0,1-2.462.391c-3.072,0-4.094-1.561-4.094-4.73,0-3.023.974-4.8,4.046-4.8a3.949,3.949,0,0,1,3.485,1.561l2.121-1.952c-1.292-1.852-3.56-2.413-5.68-2.413-4.779,0-7.288,2.61-7.288,7.583,0,4.949,2.266,7.631,7.264,7.631a10.862,10.862,0,0,0,5.752-1.437v-7.168h-5.922Z" transform="translate(-138.924 -258.357)" fill="#6b6b6b"/>
        <path id="패스_6" data-name="패스 6" d="M220.825,259.616v-3.722h-2.746v3.722h-3.63v2.625h3.63v3.679h2.746v-3.679h3.655v-2.625Z" transform="translate(-169.984 -255.894)" fill="#6b6b6b"/>
        <path id="패스_7" data-name="패스 7" d="M198.036,262.243v8.536c0,2.359-1.171,3.519-3.153,3.519s-3.152-1.16-3.152-3.519v-8.536h-3.349v8.586c0,4.659,2.479,6.409,6.382,6.409H195c3.9,0,6.382-1.75,6.382-6.409v-8.586Z" transform="translate(-159.264 -258.505)" fill="#6b6b6b"/>
      </g>
    </g>
  </g>
</svg>
