<svg xmlns="http://www.w3.org/2000/svg" width="107.927" height="30.905" viewBox="0 0 107.927 30.905">
  <path id="패스_841327" data-name="패스 841327" d="M169.805,300.012h-4.547V327.1q6.195.229,12.34.665V322.99c-2.589-.181-5.2-.339-7.793-.468Zm36.115,0h-4.989l-3.29,8.126-2.968-8.126h-4.909l5.281,14.523-5.766,14.254c1.6.165,3.185.341,4.777.527l3.355-8.283,3.319,9.134c1.731.232,3.463.485,5.184.746l.006,0L200,314.636Zm-56.259,26.846h4.54V315.846h6.165v-4.776H154.2V304.83h8.143v-4.814H149.661ZM132.683,304.83h4.754v22.322c1.51-.064,3.036-.112,4.547-.16V304.83h4.76v-4.814H132.683Zm-15.537,23.708q6.279-.616,12.627-1V322.76q-4.053.257-8.08.592v-7.226c1.761-.02,4.086-.079,6.138-.051v-4.77c-1.643,0-4.282.023-6.138.051V304.83h8.08v-4.814H117.147ZM108.233,317.5l-5.921-17.484H97.993v30.9c1.517-.233,3.03-.45,4.549-.659V313.453l5.266,16.116c1.651-.207,3.31-.4,4.965-.582v-28.97h-4.54Zm73.111,10.554c1.517.118,3.036.254,4.54.4v-28.44h-4.54Z" transform="translate(-97.993 -300.012)" fill="#fff"/>
</svg>
