<svg id="bc-card" xmlns="http://www.w3.org/2000/svg" width="32.001" height="32" viewBox="0 0 32.001 32">
  <path id="패스_70062" data-name="패스 70062" d="M10.406,92.094l1.223-1.223a2.44,2.44,0,0,0,.475-.679,3.067,3.067,0,0,0,.2-.883c0-.747-.815-.408-1.155-.068-.34.475-.747.883-1.155,1.359Zm1.7,4.62a8.555,8.555,0,0,0,1.766-1.563,2.376,2.376,0,0,0,.272-2.039c-.2-.475-.611-.611-1.426-.2-.477.475-.951,1.019-1.494,1.494a4.953,4.953,0,0,0,.883,2.312ZM23.859,80.272c3.4-.2,5.5.883,6.115,3.194-1.291.2-2.514.409-3.8.611a2.177,2.177,0,0,0-2.513-1.494c-1.9.272-2.718,1.087-2.718,2.989.2,2.718,1.224,4.009,3.329,4.212,1.9,0,2.99-1.088,2.786-3.194,1.291-.136,2.65-.272,4.009-.409.679,3.533-.679,5.844-4.212,6.863a11.681,11.681,0,0,1-5.912.272,7.148,7.148,0,0,1-4.484-5.98,6.711,6.711,0,0,1,3.261-6.046,11.236,11.236,0,0,1,4.143-1.018Zm.679-2.514a14.917,14.917,0,0,0-9.92,3.4,15.236,15.236,0,0,0-5.707,8.629c.475-.679.883-1.291,1.291-1.9a8.427,8.427,0,0,1,2.922-2.718c2.309-.679,2.786.815,1.291,4.62,2.718,0,3.8,1.9,3.126,5.639a4.307,4.307,0,0,1-2.311,2.989,12.432,12.432,0,0,0-2.717,3.126c-2.718-2.311-4.009-6.319-3.6-11.55a19.161,19.161,0,0,0-.408,3.8,15.779,15.779,0,0,0,16.035,15.967,15.087,15.087,0,0,0,11.143-4.62,15.837,15.837,0,0,0,0-22.761,15.09,15.09,0,0,0-11.143-4.619Z" transform="translate(-8.504 -77.758)" fill="#cc262d" fill-rule="evenodd"/>
</svg>
