<svg xmlns="http://www.w3.org/2000/svg" width="60" height="60" viewBox="0 0 60 60">
    <defs>
        <clipPath id="48n2084wna">
            <path data-name="사각형 1810" style="fill:#2d2926" d="M0 0h18.264v34.331H0z"/>
        </clipPath>
    </defs>
    <g data-name="kakao page" transform="translate(-542 -2860)">
        <rect data-name="사각형 1822" width="60" height="60" rx="10" transform="translate(542 2860)" style="fill:#888"/>
        <g data-name="그룹 3140">
            <g data-name="그룹 3136" transform="translate(563 2873)" style="clip-path:url(#48n2084wna)">
                <path data-name="패스 69577" d="M16.477 0H1.786A1.78 1.78 0 0 0 0 1.776v14.57a1.78 1.78 0 0 0 1.786 1.775H8.56a10.975 10.975 0 0 1-1.82 5.292A21.289 21.289 0 0 1 3.024 27.4a.972.972 0 0 0-.346.715 1.019 1.019 0 0 0 .252.6l4.724 5.3a1.181 1.181 0 0 0 .419.286.749.749 0 0 0 .624-.071 23.736 23.736 0 0 0 9.566-18.446v-14A1.78 1.78 0 0 0 16.477 0" style="fill:#2d2926"/>
            </g>
        </g>
    </g>
</svg>
