<svg xmlns="http://www.w3.org/2000/svg" width="59" height="60" viewBox="0 0 59 60">
    <g transform="translate(-256 -2860)">
        <rect data-name="사각형 1824" width="59" height="60" rx="10" transform="translate(256 2860)" style="fill:#888"/>
        <path data-name="twitter" d="M42 6.321a17.534 17.534 0 0 1-4.954 1.359 8.693 8.693 0 0 0 3.793-4.775 17.82 17.82 0 0 1-5.483 2.076 8.627 8.627 0 0 0-14.7 7.859 24.439 24.439 0 0 1-17.78-8.988 8.455 8.455 0 0 0-1.168 4.34 8.628 8.628 0 0 0 3.836 7.182 8.6 8.6 0 0 1-3.907-1.08v.106a8.632 8.632 0 0 0 6.919 8.464 8.76 8.76 0 0 1-3.879.149A8.655 8.655 0 0 0 12.751 29a17.3 17.3 0 0 1-10.7 3.691A18.312 18.312 0 0 1 0 32.576a24.539 24.539 0 0 0 13.251 3.874c15.874 0 24.544-13.144 24.544-24.522 0-.368 0-.736-.026-1.1a17.42 17.42 0 0 0 4.313-4.468z" transform="translate(264 2870.754)" style="fill:#2d2926"/>
    </g>
</svg>
