<svg xmlns="http://www.w3.org/2000/svg" width="59" height="60" viewBox="0 0 59 60">
    <g transform="translate(-447 -2860)">
        <rect data-name="사각형 1820" width="59" height="60" rx="10" transform="translate(447 2860)" style="fill:#888"/>
        <path data-name="instagram" d="M16.855 0C12.276 0 11.7.021 9.907.1a12.428 12.428 0 0 0-4.092.785 8.254 8.254 0 0 0-2.986 1.944A8.224 8.224 0 0 0 .885 5.815 12.392 12.392 0 0 0 .1 9.907c-.084 1.8-.1 2.37-.1 6.948s.021 5.151.1 6.945a12.436 12.436 0 0 0 .784 4.092 8.266 8.266 0 0 0 1.944 2.986 8.242 8.242 0 0 0 2.986 1.944 12.444 12.444 0 0 0 4.092.784c1.8.084 2.37.1 6.948.1s5.151-.021 6.948-.1a12.473 12.473 0 0 0 4.092-.784 8.614 8.614 0 0 0 4.93-4.93 12.436 12.436 0 0 0 .784-4.092c.084-1.8.1-2.37.1-6.948s-.021-5.151-.1-6.948a12.465 12.465 0 0 0-.784-4.092 8.272 8.272 0 0 0-1.944-2.986A8.212 8.212 0 0 0 27.895.885 12.4 12.4 0 0 0 23.8.1C22.006.017 21.434 0 16.855 0zm0 3.034c4.5 0 5.035.022 6.812.1a9.286 9.286 0 0 1 3.128.583 5.547 5.547 0 0 1 3.2 3.2 9.306 9.306 0 0 1 .58 3.128c.08 1.778.1 2.312.1 6.812s-.021 5.035-.1 6.812a9.485 9.485 0 0 1-.591 3.128 5.352 5.352 0 0 1-1.263 1.941 5.258 5.258 0 0 1-1.938 1.259 9.374 9.374 0 0 1-3.139.58c-1.789.08-2.316.1-6.825.1s-5.037-.021-6.825-.1a9.557 9.557 0 0 1-3.141-.591 5.22 5.22 0 0 1-1.943-1.271 5.118 5.118 0 0 1-1.264-1.938 9.565 9.565 0 0 1-.59-3.139c-.063-1.77-.086-2.316-.086-6.8s.022-5.037.086-6.828a9.555 9.555 0 0 1 .59-3.138A5 5 0 0 1 4.91 4.929a4.985 4.985 0 0 1 1.937-1.262 9.329 9.329 0 0 1 3.12-.591c1.791-.063 2.318-.084 6.825-.084l.063.042zm0 5.166a8.655 8.655 0 1 0 8.655 8.655A8.654 8.654 0 0 0 16.855 8.2zm0 14.273a5.618 5.618 0 1 1 5.618-5.618 5.617 5.617 0 0 1-5.618 5.618zm11.02-14.614a2.023 2.023 0 1 1-2.023-2.021 2.024 2.024 0 0 1 2.023 2.021z" transform="translate(460 2873)" style="fill:#2d2926"/>
    </g>
</svg>
