<svg xmlns="http://www.w3.org/2000/svg" width="60" height="60" viewBox="0 0 60 60">
    <g transform="translate(-351 -2860)">
        <rect data-name="사각형 1825" width="60" height="60" rx="10" transform="translate(351 2860)" style="fill:#888"/>
        <g data-name="그룹 461331">
            <path data-name="패스 841244" d="M600.2 397.769a1.047 1.047 0 0 0-.773.327 1.137 1.137 0 0 0 0 1.584 1.045 1.045 0 0 0 .773.327 1.119 1.119 0 0 0 0-2.237z" transform="translate(-231.242 2489.364)" style="fill:#2d2926"/>
            <path data-name="패스 841245" d="M656.329 397.711a1.04 1.04 0 0 0-.772.327 1.135 1.135 0 0 0 0 1.583 1.043 1.043 0 0 0 .772.327 1.119 1.119 0 0 0 0-2.237z" transform="translate(-272.919 2489.407)" style="fill:#2d2926"/>
            <path data-name="패스 841246" d="M693.761 397.769a1.048 1.048 0 0 0-.773.327 1.137 1.137 0 0 0 0 1.584 1.047 1.047 0 0 0 .773.327 1.119 1.119 0 0 0 0-2.237z" transform="translate(-300.714 2489.364)" style="fill:#2d2926"/>
            <path data-name="패스 841247" d="M607.5 348.412h-31.709a4.434 4.434 0 0 0-4.421 4.421v17.932a4.434 4.434 0 0 0 4.421 4.421h12.451s2.4 6.564 3.281 6.564 3.477-6.564 3.477-6.564h12.5a4.434 4.434 0 0 0 4.42-4.421v-17.932a4.435 4.435 0 0 0-4.42-4.421zm-24.342 16.555a3.882 3.882 0 0 1-4.795.331h-.03v.5h-2.381v-10.379h2.381v3.969h.03a3.914 3.914 0 0 1 2.508-.77 3.146 3.146 0 0 1 2.3 1.133 4.159 4.159 0 0 1 .927 2.668 3.409 3.409 0 0 1-.942 2.548zm5.109.913h-2.428v-6.425a1.546 1.546 0 0 0-1.172-1.678v-2.571s3.4.208 3.6 4.33zm9.526-1.969a3.766 3.766 0 0 1-.892 1.245 4.065 4.065 0 0 1-1.329.829 4.4 4.4 0 0 1-1.587.289 4.281 4.281 0 0 1-1.562-.289 4.168 4.168 0 0 1-1.331-.829 3.951 3.951 0 0 1-.912-1.26 3.627 3.627 0 0 1 0-2.929 3.962 3.962 0 0 1 .912-1.26 4.169 4.169 0 0 1 1.331-.83 4.281 4.281 0 0 1 1.562-.288 4.4 4.4 0 0 1 1.587.288 4.067 4.067 0 0 1 1.329.83 3.765 3.765 0 0 1 .892 1.245 3.742 3.742 0 0 1 0 2.958zm9.547 1.031c0 1.824-.346 2.935-1.159 3.708a4.133 4.133 0 0 1-3.5.817v-1.885a2.015 2.015 0 0 0 2.3-1.8v-.482h-.029a2.694 2.694 0 0 1-2.39 1.022 3.068 3.068 0 0 1-2.4-1.034 4.018 4.018 0 0 1-.861-2.7 4.475 4.475 0 0 1 .959-3.016 3.282 3.282 0 0 1 2.592-1.092 2.8 2.8 0 0 1 2.1.75h.029v-.569h2.366z" style="fill:#2d2926" transform="translate(-210.644 2525.919)"/>
        </g>
    </g>
</svg>
