<svg xmlns="http://www.w3.org/2000/svg" width="60" height="60" viewBox="0 0 60 60">
    <g transform="translate(-159 -2860)">
        <rect data-name="사각형 1826" width="60" height="60" rx="10" transform="translate(159 2860)" style="fill:#888"/>
        <path data-name="youtube" d="M40.947 8.126a5.241 5.241 0 0 0-3.64-3.64c-3.258-.873-16.38-.873-16.38-.873S7.843 3.6 4.55 4.486A5.241 5.241 0 0 0 .911 8.128 54.474 54.474 0 0 0 0 18.245a54.474 54.474 0 0 0 .911 10.08 5.241 5.241 0 0 0 3.638 3.64c3.257.875 16.38.875 16.38.875s13.083 0 16.378-.875a5.241 5.241 0 0 0 3.64-3.642 54.474 54.474 0 0 0 .871-10.079 54.474 54.474 0 0 0-.871-10.12zm-24.205 16.38V11.967l10.919 6.28z" transform="translate(168 2871.387)" style="fill:#2d2926"/>
    </g>
</svg>
