<svg xmlns="http://www.w3.org/2000/svg" width="24" height="24" viewBox="0 0 24 24"><g transform="translate(-168 84)"><rect width="24" height="24" transform="translate(168 -84)" fill="none"/><path d="M180.627-59.345A8.614,8.614,0,0,1,177-66.375,8.625,8.625,0,0,1,185.625-75a8.626,8.626,0,0,1,2.523.375" transform="translate(-5.625 -5.625)" fill="none" stroke="#000" stroke-linecap="round" stroke-linejoin="round" stroke-width="2"/><path d="M200.734-70.826a8.615,8.615,0,0,1,3.669,7.06,8.625,8.625,0,0,1-8.625,8.625,8.627,8.627,0,0,1-2.533-.378" transform="translate(-15.778 -8.234)" fill="none" stroke="#000" stroke-linecap="round" stroke-linejoin="round" stroke-width="2"/><path d="M213-68.75V-71h2.25" transform="translate(-28.125 -8.125)" fill="none" stroke="#000" stroke-linecap="round" stroke-linejoin="round" stroke-width="2"/><path d="M183.25-39v2.25H181" transform="translate(-8.125 -28.125)" fill="none" stroke="#000" stroke-linecap="round" stroke-linejoin="round" stroke-width="2"/></g></svg>