<svg xmlns="http://www.w3.org/2000/svg" xmlns:xlink="http://www.w3.org/1999/xlink" width="60" height="60" viewBox="0 0 60 60"><defs><clipPath id="a"><path d="M2795.73,40.812s-4.678,3.784-8.575,7.682a109.724,109.724,0,0,0-7.513,8.407,15.053,15.053,0,0,0,0,20.111,95.263,95.263,0,0,0,6.9,7.8c4.24,4.239,9.186,8.291,9.186,8.291a15.045,15.045,0,0,0,20.11,0,107.275,107.275,0,0,0,8.176-7.283c4.125-4.124,7.912-8.806,7.912-8.806a15.023,15.023,0,0,0,0-20.111s-3.586-4.48-7.614-8.507-8.474-7.581-8.474-7.581A15.031,15.031,0,0,0,2795.73,40.812Z" transform="translate(-2775.791 -36.954)" fill="#e6007e"/></clipPath></defs><path d="M2795.73,40.812s-4.678,3.784-8.575,7.682a109.724,109.724,0,0,0-7.513,8.407,15.053,15.053,0,0,0,0,20.111,95.263,95.263,0,0,0,6.9,7.8c4.24,4.239,9.186,8.291,9.186,8.291a15.045,15.045,0,0,0,20.11,0,107.275,107.275,0,0,0,8.176-7.283c4.125-4.124,7.912-8.806,7.912-8.806a15.023,15.023,0,0,0,0-20.111s-3.586-4.48-7.614-8.507-8.474-7.581-8.474-7.581A15.031,15.031,0,0,0,2795.73,40.812Z" transform="translate(-2775.791 -36.954)" fill="#e6007e"/><g clip-path="url(#a)"><path d="M2777.365,60.562l10.222,10.222,7.706,28.151-28.15-28.151Z" transform="translate(-2774.307 -40.964)" fill="#a9a9a9" opacity="0.2" style="mix-blend-mode:multiply;isolation:isolate"/><path d="M2840.568,77.108l-9.782-9.782-9.272-29.716,29.277,29.276Z" transform="translate(-2783.637 -37.065)" fill="#a9a9a9" opacity="0.102" style="mix-blend-mode:color-dodge;isolation:isolate"/><path d="M2816.39,38.337l-10.222,10.222-28.151,7.706,28.151-28.15Z" transform="translate(-2776.173 -35.452)" fill="#a9a9a9" opacity="0.102" style="mix-blend-mode:screen;isolation:isolate"/><path d="M2816.39,101.655l-10.222-10.222-28.151-7.706,28.15,28.151Z" transform="translate(-2776.173 -44.898)" fill="#a9a9a9" opacity="0.2" style="mix-blend-mode:multiply;isolation:isolate"/><path d="M2799.66,38.337l9.782,9.782,27.464,7.02-27.024-27.024Z" transform="translate(-2779.887 -35.452)" fill="#a9a9a9" opacity="0.149" style="mix-blend-mode:screen;isolation:isolate"/><path d="M2777.365,77.569l10.222-10.222,6.58-27.025-27.024,27.025Z" transform="translate(-2774.307 -37.526)" fill="#a9a9a9" opacity="0.302" style="mix-blend-mode:multiply;isolation:isolate"/><path d="M2840.8,60.562,2830.58,70.784l-7.706,28.151,28.15-28.151Z" transform="translate(-2783.871 -40.964)" fill="#a9a9a9" opacity="0.102" style="mix-blend-mode:screen;isolation:isolate"/><path d="M2799.66,101.886l10.222-10.222,27.024-6.58-27.024,27.025Z" transform="translate(-2779.887 -45.129)" fill="#a9a9a9" opacity="0.302" style="mix-blend-mode:color-burn;isolation:isolate"/></g></svg>