<svg xmlns="http://www.w3.org/2000/svg" width="80" height="80" viewBox="0 0 80 80">
  <g id="그룹_465038" data-name="그룹 465038" transform="translate(-920 -1072)">
    <circle id="타원_8404" data-name="타원 8404" cx="40" cy="40" r="40" transform="translate(920 1072)" fill="#f5f5f5"/>
    <g id="그룹_465036" data-name="그룹 465036" transform="translate(927.5 1080.008)">
      <rect id="사각형_341316" data-name="사각형 341316" width="64" height="64" transform="translate(0.5 -0.008)" fill="none"/>
      <g id="그룹_459850" data-name="그룹 459850">
        <ellipse id="타원_8677" data-name="타원 8677" cx="4.049" cy="4.036" rx="4.049" ry="4.036" transform="translate(42.067 41.423)" fill="none" stroke="#000" stroke-miterlimit="10" stroke-width="2"/>
        <path id="패스_842878" data-name="패스 842878" d="M41.643,37.287a9.675,9.675,0,0,1,3.166-.97" fill="#fff" stroke="#000" stroke-miterlimit="10" stroke-width="2"/>
        <path id="패스_842879" data-name="패스 842879" d="M37.1,42.6a5.69,5.69,0,0,1,1.551-2.932" fill="#fff" stroke="#000" stroke-miterlimit="10" stroke-width="2"/>
        <path id="패스_842880" data-name="패스 842880" d="M37.359,49.959a7.186,7.186,0,0,1-.666-1.876,8.706,8.706,0,0,1-.293-1.648" fill="#fff" stroke="#000" stroke-miterlimit="10" stroke-width="2"/>
        <path id="패스_842881" data-name="패스 842881" d="M43.078,54.928a8.879,8.879,0,0,1-3.411-2.115" fill="#fff" stroke="#000" stroke-miterlimit="10" stroke-width="2"/>
        <path id="패스_842882" data-name="패스 842882" d="M50.38,54.3a9.576,9.576,0,0,1-2.085.774,5.836,5.836,0,0,1-1.314.195" fill="#fff" stroke="#000" stroke-miterlimit="10" stroke-width="2"/>
        <path id="패스_842883" data-name="패스 842883" d="M55.348,48.183a8.6,8.6,0,0,1-1.774,3.427" fill="#fff" stroke="#000" stroke-miterlimit="10" stroke-width="2"/>
        <path id="패스_842884" data-name="패스 842884" d="M54.6,41.482a9.243,9.243,0,0,1,.72,2.041c.073.3.13.59.175.885" fill="#fff" stroke="#000" stroke-miterlimit="10" stroke-width="2"/>
        <path id="패스_842885" data-name="패스 842885" d="M48.815,36.44A7.162,7.162,0,0,1,51.987,38.3" fill="#fff" stroke="#000" stroke-miterlimit="10" stroke-width="2"/>
        <path id="패스_842886" data-name="패스 842886" d="M44.78,36.318l.6-2.78,3.859.55-.2,2.415" fill="none" stroke="#000" stroke-linecap="round" stroke-linejoin="round" stroke-width="2"/>
        <path id="패스_842887" data-name="패스 842887" d="M51.886,38.268l2.161-1.659,2.565,2.926-1.987,2.024" fill="none" stroke="#000" stroke-linecap="round" stroke-linejoin="round" stroke-width="2"/>
        <path id="패스_842888" data-name="패스 842888" d="M55.471,44.382,58,44.571l-.055,3.885L55.267,48.3" fill="none" stroke="#000" stroke-linecap="round" stroke-linejoin="round" stroke-width="2"/>
        <path id="패스_842889" data-name="패스 842889" d="M53.618,51.513l1.446,1.907-3.056,2.405L50.717,54.02" fill="none" stroke="#000" stroke-linecap="round" stroke-linejoin="round" stroke-width="2"/>
        <path id="패스_842890" data-name="패스 842890" d="M46.932,55.3l-.4,2.492-3.946-.478.3-2.472" fill="none" stroke="#000" stroke-linecap="round" stroke-linejoin="round" stroke-width="2"/>
        <path id="패스_842891" data-name="패스 842891" d="M39.832,52.932l-2.088,1.686-2.609-2.977,2.126-1.973" fill="none" stroke="#000" stroke-linecap="round" stroke-linejoin="round" stroke-width="2"/>
        <path id="패스_842892" data-name="패스 842892" d="M36.443,46.7l-2.726-.194.192-4.1,3.176.181" fill="none" stroke="#000" stroke-linecap="round" stroke-linejoin="round" stroke-width="2"/>
        <path id="패스_842893" data-name="패스 842893" d="M38.489,39.87,36.7,37.5l3.117-2.451,2.068,2.125" fill="none" stroke="#000" stroke-linecap="round" stroke-linejoin="round" stroke-width="2"/>
      </g>
      <g id="그룹_459804" data-name="그룹 459804">
        <g id="그룹_459818" data-name="그룹 459818">
          <g id="그룹_5952" data-name="그룹 5952">
            <g id="그룹_5936" data-name="그룹 5936">
              <path id="패스_842850" data-name="패스 842850" d="M36.411,53.1H21.371a5.914,5.914,0,0,1-5.906-5.923V10.66h22.57" fill="none" stroke="#000" stroke-linecap="round" stroke-linejoin="round" stroke-width="2"/>
              <line id="선_127057" data-name="선 127057" y1="14.982" transform="translate(47.556 18.556)" fill="none" stroke="#000" stroke-linecap="round" stroke-linejoin="round" stroke-width="2"/>
            </g>
          </g>
          <path id="패스_842851" data-name="패스 842851" d="M47.556,12.637H45.587V10.663" fill="none" stroke="#000" stroke-linecap="round" stroke-linejoin="round" stroke-width="2"/>
        </g>
        <line id="선_127058" data-name="선 127058" x2="16.479" transform="translate(23.271 21.776)" fill="none" stroke="#000" stroke-linecap="round" stroke-linejoin="round" stroke-width="2"/>
        <line id="선_127059" data-name="선 127059" x2="16.479" transform="translate(23.271 28.394)" fill="none" stroke="#000" stroke-linecap="round" stroke-linejoin="round" stroke-width="2"/>
        <line id="선_127060" data-name="선 127060" x2="9.537" transform="translate(23.271 35.34)" fill="none" stroke="#000" stroke-linecap="round" stroke-linejoin="round" stroke-width="2"/>
      </g>
    </g>
  </g>
</svg>
